<svg version="1.1" xmlns="http://www.w3.org/2000/svg" style="display: block;" viewBox="0 0 2048 2048" width="1024" height="1024">
<path transform="translate(0,0)" fill="rgb(254,254,254)" d="M 0 0 L 2048 0 L 2048 2048 L 0 2048 L 0 0 z"/>
<path transform="translate(0,0)" fill="rgb(14,14,14)" d="M 1072.83 144.184 C 1098.94 141.946 1134.03 150.026 1159.45 157.278 C 1198.85 168.519 1271.32 200.326 1291.56 236.617 C 1295.46 236.868 1299.52 237.018 1303.26 238.216 C 1319.16 243.311 1326.43 261.358 1333.47 275.031 A 1737.66 1737.66 0 0 0 1394.2 244.464 C 1407.36 237.438 1420.51 228.659 1434.44 223.312 A 65.8428 65.8428 0 0 1 1456.37 218.797 C 1472.22 218.408 1485.35 225.881 1496.59 236.376 C 1529.27 266.889 1559.54 300.699 1590.79 332.695 L 1766.95 512.089 L 1906.99 656.073 C 1926.24 676.168 1948.3 695.499 1965.35 717.437 C 1974.64 729.382 1978.87 738.385 1979.29 753.675 C 1979.67 767.634 1977.48 781.815 1976.81 795.769 C 1975.77 817.206 1977.79 850.092 1971.79 869.88 C 1968.67 880.167 1962.71 888.978 1955.29 896.65 C 1941.43 910.981 1925.22 923.088 1909.92 935.8 L 1823.52 1006.71 L 1509.88 1265.73 L 1026.08 1663.13 L 858.35 1803.7 C 837.395 1821.04 817.172 1840.27 795.196 1856.21 A 93.0587 93.0587 0 0 1 741.179 1874.24 C 704.84 1874.62 684.051 1851.65 659.205 1828.9 A 1729.58 1729.58 0 0 1 614.678 1787.34 A 28053.2 28053.2 0 0 1 356.816 1541.78 L 265.913 1454.72 C 240.763 1430.89 213.915 1407.69 191.805 1380.97 C 172.715 1357.89 157.771 1331.51 141.599 1306.39 C 126.237 1282.52 109.399 1258.82 95.8627 1233.9 C 84.7747 1213.49 77.9495 1189.16 74.4701 1166.28 C 69.5278 1133.78 71.6862 1100.29 71.7787 1067.54 C 71.8619 1038.11 67.9887 997.846 76.5601 970.132 A 86.3809 86.3809 0 0 1 108.381 925.135 C 128.098 910.933 151.129 900.222 172.563 888.771 L 252.556 845.303 C 326.28 805.771 399.098 764.671 473.096 725.617 A 78855.9 78855.9 0 0 1 1284.08 301.647 C 1275.75 286.392 1264.73 270.72 1264.98 252.797 C 1232.41 225.168 1188.51 204.837 1147.37 193.49 C 1128.05 188.162 1108.12 185.095 1088.27 182.518 C 1082.32 181.746 1076.13 181.981 1070.26 180.819 C 1068.06 180.383 1066.68 179.744 1064.94 178.367 C 1064.1 176.009 1063.95 175.574 1064.41 173.138 C 1065.41 172.223 1066.27 171.552 1067.63 171.257 C 1075.23 169.607 1091.86 172.842 1099.79 173.922 C 1163.7 182.621 1219.13 206.681 1271.24 244.209 L 1281.95 238.548 C 1250.58 199.262 1178.28 169.084 1129.05 159.441 C 1112.49 156.198 1095.36 156.241 1078.85 153.005 C 1075.7 152.389 1073.55 151.858 1071.37 149.365 C 1071.14 146.773 1071.51 146.478 1072.83 144.184 z"/>
<path transform="translate(0,0)" fill="rgb(254,254,254)" d="M 1287.96 247.092 C 1292.17 246.81 1296.63 246.297 1300.71 247.665 C 1313.02 251.802 1319.71 270.48 1325.02 281.138 L 1306.51 290.912 C 1302.15 293.376 1297.59 295.302 1293 297.298 C 1287.4 283.946 1280.31 271.089 1273.78 258.164 C 1278.01 252.989 1281.86 249.912 1287.96 247.092 z"/>
<path transform="translate(0,0)" fill="rgb(254,254,254)" d="M 1960.96 730.88 C 1966.16 740.322 1970.24 748.174 1966.88 759.162 C 1963.42 770.462 1954.09 780.697 1945.71 788.778 C 1934.41 799.677 1921.33 808.783 1909.07 818.566 C 1894.17 830.457 1879.63 842.787 1864.71 854.654 L 1727.05 965.64 C 1718.46 972.655 1689.15 993.777 1683.52 1001.35 C 1674.24 1007.26 1665.62 1015.25 1657.11 1022.26 A 2210.22 2210.22 0 0 1 1615.33 1056.08 L 1425.96 1209.45 L 947.013 1594.16 L 835.193 1683.68 C 816.909 1698.6 790.754 1724.15 770.797 1734.57 C 757.125 1741.71 739.202 1743.48 724.424 1738.82 C 715.131 1735.89 705.954 1731.54 699.171 1724.42 C 685.298 1709.85 672.834 1693.08 660.018 1677.53 A 8278.35 8278.35 0 0 1 585.54 1586.78 L 382.182 1340 L 204.04 1123.6 A 4378.83 4378.83 0 0 1 150.361 1057.36 C 133.07 1035.7 116.297 1015.57 103.24 990.937 C 100.68 983.838 97.7907 976.695 96.0223 969.356 C 101.688 956.289 107.671 947.03 118.809 938.028 C 111.099 955.882 105.943 971.867 113.664 991.084 C 122.177 1012.27 139.927 1030.9 153.952 1048.76 A 5522.96 5522.96 0 0 0 236.731 1150.5 A 23140.5 23140.5 0 0 0 435.303 1391.3 A 19907.4 19907.4 0 0 0 614.577 1608.2 C 642.78 1642.06 669.961 1677.43 699.766 1709.85 C 705.333 1715.9 710.81 1720.63 718.518 1723.84 C 733.479 1730.07 749.55 1730.5 764.562 1724.14 C 783.215 1716.23 830.696 1674.49 848.809 1660.12 L 1089.59 1466.71 L 1661.98 1007.07 A 13392 13392 0 0 0 1897.47 815.342 C 1910.23 804.719 1924.61 796.062 1937.16 785.269 C 1945.4 778.175 1952.37 769.499 1956.37 759.307 C 1959.92 750.27 1960.99 740.526 1960.96 730.88 z"/>
<path transform="translate(0,0)" fill="rgb(254,254,254)" d="M 1964.05 778.565 C 1961.08 802.172 1961.41 853.261 1952.56 872.19 C 1949.28 879.227 1942.47 885.455 1936.74 890.602 C 1915.14 910.018 1892.35 928.221 1869.94 946.7 L 1745.98 1048.9 L 1190.23 1505.94 L 910.936 1737.93 A 6522.96 6522.96 0 0 0 828.808 1806.36 C 813.457 1819.26 798.238 1833.81 781.797 1845.22 C 768.655 1854.34 750.591 1858.29 734.772 1857.29 C 721.042 1856.41 709.922 1851.18 699.215 1842.81 C 682.538 1829.77 667.492 1814.34 652.118 1799.82 C 631.43 1780.29 610.495 1761.09 589.988 1741.35 L 435.328 1593.98 L 290.733 1455.47 C 266.446 1432.39 234.376 1405.48 213.097 1380.98 C 189.695 1354.04 171.754 1324.37 152.481 1294.51 C 121.998 1247.3 93.4583 1208.33 89.4122 1149.99 C 87.8491 1127.46 88.8692 1104.31 89.0002 1081.71 C 89.196 1047.97 87.9803 1013.62 90.4395 979.991 A 452.078 452.078 0 0 0 96.4448 993.646 C 98.2128 994.913 99.4235 995.361 101.453 996.048 L 102.09 995.543 L 101.743 991.33 L 103.24 990.937 C 116.297 1015.57 133.07 1035.7 150.361 1057.36 A 4378.83 4378.83 0 0 0 204.04 1123.6 L 382.182 1340 L 585.54 1586.78 A 8278.35 8278.35 0 0 0 660.018 1677.53 C 672.834 1693.08 685.298 1709.85 699.171 1724.42 C 705.954 1731.54 715.131 1735.89 724.424 1738.82 C 739.202 1743.48 757.125 1741.71 770.797 1734.57 C 790.754 1724.15 816.909 1698.6 835.193 1683.68 L 947.013 1594.16 L 1425.96 1209.45 L 1615.33 1056.08 A 2210.22 2210.22 0 0 0 1657.11 1022.26 C 1665.62 1015.25 1674.24 1007.26 1683.52 1001.35 C 1683.36 1001.79 1683.2 1002.22 1683.04 1002.65 C 1682.45 1004.19 1681.78 1005.58 1681.02 1007.03 C 1683.74 1006.33 1686.64 1003.13 1689.08 1003.23 L 1689.24 1004.35 C 1708.32 991.136 1726.32 975.042 1744.14 960.113 A 2718.11 2718.11 0 0 1 1795.45 918.619 A 12442.6 12442.6 0 0 0 1896.84 837.009 C 1920.54 817.81 1943.49 801.484 1964.05 778.565 z"/>
<path transform="translate(0,0)" fill="rgb(14,14,14)" d="M 96.4448 993.646 C 98.2128 994.913 99.4235 995.361 101.453 996.048 L 102.09 995.543 L 101.743 991.33 L 103.24 990.937 C 116.297 1015.57 133.07 1035.7 150.361 1057.36 A 4378.83 4378.83 0 0 0 204.04 1123.6 L 382.182 1340 L 585.54 1586.78 A 8278.35 8278.35 0 0 0 660.018 1677.53 C 672.834 1693.08 685.298 1709.85 699.171 1724.42 C 705.954 1731.54 715.131 1735.89 724.424 1738.82 C 739.202 1743.48 757.125 1741.71 770.797 1734.57 C 790.754 1724.15 816.909 1698.6 835.193 1683.68 L 947.013 1594.16 L 1425.96 1209.45 L 1615.33 1056.08 A 2210.22 2210.22 0 0 0 1657.11 1022.26 C 1665.62 1015.25 1674.24 1007.26 1683.52 1001.35 C 1683.36 1001.79 1683.2 1002.22 1683.04 1002.65 C 1682.45 1004.19 1681.78 1005.58 1681.02 1007.03 C 1683.74 1006.33 1686.64 1003.13 1689.08 1003.23 L 1689.24 1004.35 C 1675.74 1017.92 1658.47 1029.73 1643.44 1041.74 L 1564.67 1105.43 A 21447.3 21447.3 0 0 1 1315.15 1306.22 L 921.531 1623.74 A 11326 11326 0 0 1 821.925 1703.57 C 807.167 1715.43 789.06 1734.21 772.17 1741.96 C 755.435 1749.64 735.013 1749.65 717.848 1743.38 C 707.882 1739.74 699.465 1734.52 692.235 1726.69 C 672.645 1705.49 654.982 1682.27 636.846 1659.83 C 616.74 1634.96 595.989 1610.49 575.572 1585.86 L 320.322 1275.7 L 175.683 1099.29 C 151.953 1070.1 112.136 1026.81 96.4448 993.646 z"/>
<path transform="translate(0,0)" fill="rgb(254,254,254)" d="M 1453 237.304 C 1454 237.26 1455 237.239 1456 237.276 C 1464.82 237.611 1472.7 239.271 1479.85 244.772 C 1496.9 257.892 1512.01 276.2 1527.11 291.701 L 1623.12 390.595 L 1847.09 619.963 C 1875.02 648.554 1903.66 676.547 1931.3 705.417 C 1940.2 714.717 1949.77 726.386 1949.2 740.016 C 1948.54 755.871 1938.73 768.525 1927.29 778.552 C 1903.59 799.32 1877.55 818.018 1853.13 838.013 L 1675.25 983.872 L 1201.2 1365.32 L 901.897 1605.23 L 808.301 1680.69 C 795.451 1691.09 783.241 1703.16 769.699 1712.59 C 759.804 1719.47 749.229 1723.34 736.99 1722.27 C 715.191 1720.35 704.529 1704.3 692.125 1688.76 A 2889.2 2889.2 0 0 0 671.799 1663.89 L 336.079 1257.15 C 281.931 1191.99 227.285 1127.38 175.058 1060.66 C 161.764 1043.68 147.099 1027.49 134.528 1010 C 128.054 1000.99 121.143 990.103 118.946 979.074 C 116.22 965.392 119.638 947.271 127.881 936.008 C 131.65 930.859 136.756 927.158 142.232 924.007 C 165.036 910.881 189.24 899.926 212.356 887.299 L 463.761 751.645 A 52928.4 52928.4 0 0 1 1184.84 373.401 L 1297.23 314.845 A 6337.34 6337.34 0 0 1 1399.01 261.212 C 1412.84 254.106 1426.79 245.637 1441.3 240.027 C 1445.13 238.546 1448.96 237.864 1453 237.304 z"/>
<path transform="translate(0,0)" fill="rgb(14,14,14)" d="M 272.781 890.003 C 274.341 890.02 275.948 890.035 277.488 890.311 C 280.127 890.785 282.295 892.308 284.128 894.194 C 304.614 915.273 323.453 939.079 342.796 961.284 C 354.519 974.741 371.829 992.002 381.511 1006.33 C 383.549 1009.35 384.051 1011.77 383.363 1015.35 C 374.509 1025.54 291.415 1069.25 273.199 1078.92 C 267.745 1081.76 262.558 1084.3 256.693 1086.19 C 249.889 1081.27 169.734 986.419 165.817 979.707 L 166.49 978.257 C 171.261 968.237 194.263 931.808 201.704 925.366 C 212.997 915.589 257.739 895.492 272.781 890.003 z"/>
<path transform="translate(0,0)" fill="rgb(254,254,254)" d="M 205.861 938.672 C 209.905 941.629 213.645 947.35 217.082 951.162 C 233.21 969.056 249.487 986.451 263.696 1005.96 A 1390.37 1390.37 0 0 0 252.459 1062.49 L 246.739 1054.51 C 233.607 1036.16 195.923 989.849 179.306 978.795 C 188.832 965.811 196.841 951.981 205.861 938.672 z"/>
<path transform="translate(0,0)" fill="rgb(254,254,254)" d="M 336.141 973.915 C 340.201 975.449 363.055 1003.77 368.414 1009.29 C 338.756 1024.3 309.692 1041.38 281.595 1059.12 C 274.661 1063.6 267.724 1068 260.572 1072.12 C 262.012 1050.72 267.693 1027.67 273.492 1007.07 C 294.148 997.403 317.599 987.163 336.141 973.915 z"/>
<path transform="translate(0,0)" fill="rgb(254,254,254)" d="M 273.32 899.75 C 274.225 900.014 275.2 900.104 276.035 900.542 C 280.523 902.9 324.102 959.894 331.604 968.471 C 312.551 980.268 291.949 990.112 272.086 1000.49 C 260.78 985.941 248.209 972.508 235.784 958.926 C 227.693 950.081 218.937 941.306 212.402 931.227 C 231.133 918.459 253.18 910.107 273.32 899.75 z"/>
<path transform="translate(0,0)" fill="rgb(14,14,14)" d="M 1440.79 271.122 C 1444.85 270.699 1449.11 270.354 1453.07 271.591 C 1457.83 273.082 1462.41 275.927 1466.31 278.995 C 1477.05 287.433 1518.96 327.773 1524.49 338.466 C 1527.12 343.57 1527.42 347.261 1525.78 352.682 C 1516.1 362.821 1500.3 369.802 1488.11 376.886 C 1462.69 391.667 1436.96 405.811 1411.44 420.413 A 10447.3 10447.3 0 0 1 1215.02 531.757 C 1187.25 547.155 1159.77 563.609 1131.41 577.866 C 1129.74 578.617 1127.68 579.753 1125.78 579.601 C 1122.49 579.339 1118.96 575.744 1116.73 573.569 C 1106.51 563.566 1097.92 551.347 1088.72 540.391 C 1076.92 526.327 1063.15 512.503 1053.03 497.248 C 1051.06 494.276 1047.92 489.848 1048.69 486.12 C 1052.05 480.55 1057.57 476.713 1063.08 473.446 C 1075.94 465.828 1089.61 459.252 1102.87 452.353 L 1175.4 414.542 A 8438.66 8438.66 0 0 0 1366.99 311.151 C 1391.52 297.662 1416.53 285.134 1440.79 271.122 z"/>
<path transform="translate(0,0)" fill="rgb(254,254,254)" d="M 1444.57 277.944 A 44.4253 44.4253 0 0 1 1450.31 279.217 C 1462.98 282.882 1511.09 329.16 1517.55 341.158 C 1519.16 344.158 1519.91 346.581 1518.93 349.931 C 1509.2 357.398 1496.49 363.177 1485.81 369.352 L 1399.05 418.479 L 1196.96 533.134 C 1174.4 545.678 1152.13 558.69 1129.33 570.797 L 1127.09 571.5 C 1124.69 571.046 1123.45 569.753 1121.77 568.097 C 1112.87 559.309 1105.04 548.289 1096.88 538.721 C 1085.14 524.965 1071.86 511.318 1061.32 496.671 C 1059.04 493.491 1056.53 490.172 1057.23 486.074 C 1073.48 474.268 1093.52 465.772 1111.32 456.432 L 1214.63 402.172 L 1356.18 326.357 C 1385.58 310.25 1414.66 293.069 1444.57 277.944 z"/>
<path transform="translate(0,0)" fill="rgb(14,14,14)" d="M 976.62 510.904 C 977.072 510.908 977.525 510.884 977.976 510.917 C 990.242 511.812 1031.6 562.095 1040.6 572.582 C 1042.29 587.417 1049.78 625.397 1042.87 638.154 C 1033.48 645.325 1022.2 650.673 1011.96 656.6 A 4716.91 4716.91 0 0 1 943.591 695.67 L 871.18 737.092 C 854.588 746.732 818.559 769.791 802.411 774.174 C 790.979 763.483 780.326 751.103 769.698 739.593 A 2320.2 2320.2 0 0 0 728.333 696.038 L 717.798 702.251 C 725.028 711.565 734.052 719.752 741.751 728.714 C 756.162 745.491 766.766 769.655 770.661 791.329 C 762.33 797.696 752.564 802.937 743.549 808.321 C 724.609 819.635 705.429 830.488 686.398 841.638 L 519.447 939.456 C 509.068 945.127 492.455 956.696 480.927 956.654 C 473.88 952.37 402.609 865.779 394.817 852.802 C 400.968 840.921 412.218 831.216 420.928 821.161 C 426.146 815.137 430.967 808.638 436.383 802.809 C 444.063 794.544 487.994 768.616 498.727 768.713 C 505.36 768.774 510.68 775.283 515.081 779.513 C 517.209 773.962 519.334 768.37 521.729 762.929 C 523.161 759.676 524.896 756.855 527.476 754.384 C 537.21 745.061 576.945 723.245 590.291 717.966 C 596.106 720.984 600.295 724.451 604.91 728.998 C 607.111 722.663 609.677 716.436 614.052 711.249 C 622.225 701.557 671.323 670.901 683.164 671.154 C 692.244 671.348 701.679 683.981 707.564 690.145 L 719.774 685.654 C 723.957 678.133 729.607 670.973 734.533 663.893 C 752.633 637.877 760.089 627.919 787.324 611.213 C 796.146 605.802 804.891 600.469 814.692 596.998 C 819.251 599.566 823.185 603.074 827.229 606.372 A 78.0228 78.0228 0 0 1 829.006 600.616 C 835.067 583.672 883.603 559.723 900.803 551.749 C 906.665 555.129 911.911 559.62 917.231 563.787 C 917.367 558.472 917.811 553.169 918.187 547.867 C 928.348 532.905 960.186 518.757 976.62 510.904 z"/>
<path transform="translate(0,0)" fill="rgb(254,254,254)" d="M 925.034 558.769 C 931.915 562.946 960.095 594.295 965.555 601.325 C 968.63 605.284 968.73 606.732 968.096 611.5 C 966.922 611.639 967.221 611.772 965.938 610.574 C 963.606 608.396 961.623 604.84 959.357 602.387 C 950.174 592.446 933.611 578.181 926.986 567.052 C 925.492 564.542 925.285 561.617 925.034 558.769 z"/>
<path transform="translate(0,0)" fill="rgb(254,254,254)" d="M 527.782 772.352 C 536.525 779.665 544.044 791.161 551.458 800.016 C 560.377 810.668 569.868 820.811 578.708 831.533 C 576.22 838.059 574.475 844.953 572.518 851.661 L 571.929 852.198 L 571.114 851.623 C 576.692 820.882 539.674 804.549 527.318 780.313 C 525.722 777.184 526.797 775.461 527.782 772.352 z"/>
<path transform="translate(0,0)" fill="rgb(254,254,254)" d="M 839.856 599.608 C 848.229 602.559 884.776 645.259 893.212 654.118 C 890.949 661.644 889.328 669.042 887.989 676.784 L 887.714 677.98 L 887.041 677.791 C 885.67 671.967 886.832 664.12 887.078 658.09 C 876.098 644.723 847.018 618.386 839.896 605.702 C 838.467 603.156 839.161 602.326 839.856 599.608 z"/>
<path transform="translate(0,0)" fill="rgb(254,254,254)" d="M 619.136 720.506 C 624.29 724.611 629.244 731.519 633.718 736.456 C 645.81 749.802 657.751 763.312 670.444 776.094 C 669.81 781.353 668.92 786.217 667.558 791.337 C 654.965 763.732 628.561 750.077 616.148 727.562 C 615.912 724.695 617.63 722.781 619.136 720.506 z"/>
<path transform="translate(0,0)" fill="rgb(254,254,254)" d="M 1030.31 586.782 L 1031.6 587.399 C 1034.97 596.061 1032.04 621.138 1030.99 630.933 C 1010.15 640.952 990.118 654.386 970.185 666.163 L 968.098 665.404 C 964.275 656.014 975.071 623.759 977.602 612.569 C 997.042 608.116 1013.02 596.131 1030.31 586.782 z"/>
<path transform="translate(0,0)" fill="rgb(254,254,254)" d="M 953.009 625.943 C 953.117 626.043 953.246 626.125 953.334 626.244 C 958.242 632.825 957.834 662.779 957.964 672.713 C 937.383 684.669 916.068 695.521 895.273 707.128 C 894.136 707.686 894.93 707.391 892.75 707.436 C 892.56 707.219 892.335 707.028 892.18 706.786 C 887.716 699.827 898.154 667.807 900.583 659.196 C 917.668 647.368 936.24 638.607 953.009 625.943 z"/>
<path transform="translate(0,0)" fill="rgb(254,254,254)" d="M 872.959 673.158 C 874.893 676.862 875.225 683.953 876.474 688.238 C 879 696.91 882.205 705.297 885.474 713.708 C 862.753 727.555 839.037 740.384 815.852 753.5 L 805.995 758.633 C 811.082 740.529 813.042 721.738 817.257 703.427 C 838.245 698.242 854.988 684.552 872.959 673.158 z"/>
<path transform="translate(0,0)" fill="rgb(254,254,254)" d="M 740.781 749.203 C 747.149 756.66 752.46 775.509 755.625 785.008 A 3567.3 3567.3 0 0 1 676.547 832.084 C 673.674 833.797 670.986 835.461 667.804 836.53 C 663.928 830.405 676.598 790.374 678.676 780.918 C 702.633 774.322 720.524 763.137 740.781 749.203 z"/>
<path transform="translate(0,0)" fill="rgb(254,254,254)" d="M 560.259 850 L 561.186 850.586 C 563.554 865.804 566.019 881.448 566.999 896.816 C 542.496 909.304 518.718 924.382 494.832 938.088 C 493.368 938.964 492.061 939.455 490.464 940.029 C 489.239 937.691 499.246 889.607 500.709 883.475 A 2081.97 2081.97 0 0 0 560.259 850 z"/>
<path transform="translate(0,0)" fill="rgb(254,254,254)" d="M 759.451 647.664 C 766.527 653.594 772.538 661.343 778.781 668.149 C 788.873 679.152 799.242 689.889 809.288 700.938 C 804.75 717.134 802.807 734.037 798.562 750.365 L 792.338 743.962 C 773.182 724.307 755.016 703.83 734.669 685.35 C 741.831 672.34 750.519 659.52 759.451 647.664 z"/>
<path transform="translate(0,0)" fill="rgb(254,254,254)" d="M 651.48 799.91 C 656.023 805.125 658.615 832.645 659.57 840.885 A 1355.67 1355.67 0 0 1 580.791 888.135 C 578.657 889.343 577.192 890.113 574.732 890.533 C 571.552 880.29 582.967 846.311 586.777 834.581 C 609.609 825.678 630.624 812.627 651.48 799.91 z"/>
<path transform="translate(0,0)" fill="rgb(254,254,254)" d="M 437.615 818.744 C 444.532 825.865 450.611 834.299 457.108 841.848 C 468.852 855.492 481.427 868.835 491.543 883.763 C 488.844 901.377 484.478 919.264 480.596 936.668 L 471.795 926.621 A 7736.61 7736.61 0 0 1 408.727 853.47 C 417.426 841.267 427.65 829.926 437.615 818.744 z"/>
<path transform="translate(0,0)" fill="rgb(254,254,254)" d="M 977.486 520.91 L 979.611 521.066 C 992.615 528.4 1019.98 562.091 1029.77 574.861 C 1014.03 584.522 999.139 595.829 982.277 603.536 C 977.036 602.022 934.413 555.107 929.961 547.702 C 944.578 537.66 961.964 529.617 977.486 520.91 z"/>
<path transform="translate(0,0)" fill="rgb(254,254,254)" d="M 900.404 563.797 C 904.344 565.501 946.96 608.388 952.279 614.682 C 937.739 628.843 918.803 638.596 901.345 648.689 A 1955.29 1955.29 0 0 1 848.581 592.025 C 864.808 581.142 883.015 572.626 900.404 563.797 z"/>
<path transform="translate(0,0)" fill="rgb(254,254,254)" d="M 812.729 606.912 C 828.472 615.369 857.759 647.601 870.755 662.159 C 856.796 674.682 837.025 685.486 820.282 693.665 L 818.743 694.364 C 811.245 692.608 772.151 647.541 764.875 638.839 C 778.628 626.035 796.241 615.855 812.729 606.912 z"/>
<path transform="translate(0,0)" fill="rgb(254,254,254)" d="M 679.513 680.936 C 680.708 680.925 681.738 680.849 682.93 681.169 C 692.869 683.838 730.567 729.762 737.11 739.686 C 721.334 752.986 700.184 764.56 681.25 772.332 L 679.168 772.629 C 672.328 767.305 666.423 758.865 660.618 752.369 L 625.782 713.906 C 640.482 699.573 661.523 690.449 679.513 680.936 z"/>
<path transform="translate(0,0)" fill="rgb(254,254,254)" d="M 496.965 778.905 C 497.522 778.896 499.379 778.788 500.14 778.99 C 504.86 780.242 551.977 833.468 557.256 841.065 C 539.58 853.622 519.63 863.501 501.3 875.179 L 498.909 876.199 C 492.94 870.101 487.803 862.91 482.23 856.418 A 2618.95 2618.95 0 0 0 441.994 810.371 C 457.632 797.876 478.717 787.066 496.965 778.905 z"/>
<path transform="translate(0,0)" fill="rgb(254,254,254)" d="M 589.76 728.836 C 602.099 736.47 638.213 775.623 648.234 788.206 C 636.815 801.306 606.516 816.72 590.321 824.262 C 589.145 824.669 588.005 824.709 586.773 824.832 C 568.313 810.692 551.215 780.001 531.989 763.397 C 545.28 752.049 573.651 736.852 589.76 728.836 z"/>
<path transform="translate(0,0)" fill="rgb(14,14,14)" d="M 1550.34 370.155 C 1551.49 370.111 1552.63 370.128 1553.78 370.19 C 1569.11 371.02 1597.52 402.014 1608.31 413.775 C 1612.15 417.959 1612.28 422.026 1614.38 426.991 C 1615.42 429.452 1620.45 431.133 1622.74 432.242 C 1625.3 433.477 1627.34 434.648 1629.41 436.591 C 1653.96 459.552 1676.93 484.605 1700.86 508.243 C 1717.29 524.472 1748.81 552.338 1761.32 569.673 C 1764.79 574.474 1763.49 580.103 1762.55 585.528 C 1764.61 583.722 1765.27 582.711 1768.02 582.306 C 1778.07 586.379 1874.27 685.363 1889.56 701.651 C 1897.92 710.561 1908.9 723.661 1908.15 736.599 C 1907.39 749.606 1899.16 757.195 1890.01 765.129 C 1856.04 794.589 1820.59 822.345 1785.52 850.466 L 1598.24 998.659 L 1300.73 1235.54 L 976.941 1492.54 A 8366.48 8366.48 0 0 1 826.555 1611.24 C 805.924 1627.32 785.869 1644.65 764.625 1659.87 C 758.556 1664.22 752.366 1668.2 744.563 1667.43 C 741.41 1667.11 738.871 1666.07 736.418 1664.07 C 725.506 1655.17 716.336 1642.63 707.28 1631.86 L 664.278 1580.31 C 609.651 1513 552.43 1447.73 496.596 1381.39 C 467.726 1347.09 440.225 1311.71 411.495 1277.33 C 397.834 1260.99 383.279 1245.42 369.461 1229.21 C 355.993 1213.41 343.297 1196.93 330.137 1180.87 C 319.528 1167.93 308.314 1155.21 298.555 1141.62 C 304.923 1129.35 330.455 1088.22 340.191 1079.35 C 348.896 1071.41 408.363 1040.14 421.186 1034.89 C 425.681 1037.01 429.849 1039.71 434.079 1042.31 C 437.377 1036.36 440.727 1028.88 445.12 1023.76 C 453.919 1013.51 510.676 976.255 522.963 976.025 C 528.403 975.923 531.569 979.092 535.356 982.51 C 538.406 975.563 540.882 966.973 545.769 961.074 C 552.25 953.251 609.269 917.341 618.291 916.725 C 624.556 916.296 629.739 921.705 634.215 925.399 C 635.034 920.772 635.951 915.708 637.925 911.428 C 639.371 908.295 641.443 905.258 644.041 902.968 C 651.156 896.694 708.886 860.612 716.819 858.733 C 722.157 857.469 728.644 861.776 733.322 864.091 C 735.575 858.685 737.246 851.971 740.746 847.261 C 746.878 839.009 803.583 802.868 812.47 802.594 C 817.346 802.444 822.77 807.455 826.504 810.211 C 828.269 805.59 830.017 800.886 832.309 796.495 C 833.983 793.289 836.146 790.294 839.004 788.038 C 846.641 782.009 889.281 755.472 897.67 753.366 C 904.334 751.692 909.172 754.617 914.621 758.112 A 908.199 908.199 0 0 1 921.739 740.303 C 930.315 734.091 939.854 728.838 948.813 723.163 C 960.387 715.831 971.953 707.625 984.164 701.435 C 989.834 703.478 994.541 705.967 999.552 709.239 C 1000.18 703.852 1000.39 697.782 1003.18 692.999 C 1007.26 685.976 1059.66 652.622 1068.31 651.709 C 1073.56 651.156 1078.39 655.064 1082.61 657.72 C 1083.24 654.96 1083.81 652.109 1084.79 649.449 C 1089.19 637.495 1136.26 609.976 1149.87 603.826 L 1159.55 611.61 C 1160.43 606.699 1161.74 602.071 1163.2 597.315 C 1170.44 590.379 1211.13 562.307 1219.48 561.007 C 1224.99 560.148 1231 566.12 1235.07 569.304 L 1236.08 569.011 C 1235.85 560.969 1236.8 557.291 1240.2 550.211 C 1247.82 544.031 1286.22 517.991 1294.32 516.439 C 1301.62 515.039 1311.67 524.444 1317.24 528.597 C 1315.3 524.222 1311.05 516.838 1312.13 511.97 C 1313.74 504.734 1360.33 477.192 1368.11 473.637 C 1373 476.149 1377.31 479.477 1381.75 482.696 C 1381.65 478.974 1381.19 472.948 1383.21 469.626 C 1386.5 464.228 1539.93 373.216 1550.34 370.155 z"/>
<path transform="translate(0,0)" fill="rgb(254,254,254)" d="M 1530.57 845.884 C 1532.17 848.59 1533.66 851.197 1534.46 854.26 C 1535.35 857.603 1536.31 861.651 1534.51 864.795 C 1531.92 864.977 1530.95 863.624 1528.9 862.172 A 737.721 737.721 0 0 0 1517.65 854.593 L 1530.57 845.884 z"/>
<path transform="translate(0,0)" fill="rgb(254,254,254)" d="M 1041.67 1200.98 L 1042.32 1201.41 C 1038.79 1207.67 1029.71 1210.51 1025.55 1217.73 C 1021.59 1224.6 1023.65 1235.02 1020.6 1239.78 C 1020.43 1240.05 1020.19 1240.26 1019.98 1240.5 L 1015.58 1240.68 C 1011.9 1235.66 1015.72 1223.99 1015.27 1217.51 C 1024.47 1212.6 1033.02 1206.77 1041.67 1200.98 z"/>
<path transform="translate(0,0)" fill="rgb(254,254,254)" d="M 1750.38 585.893 L 1751.69 586.504 C 1751.46 588.65 1751.27 590.6 1750.07 592.461 C 1747.52 596.411 1722.61 611.943 1714 622.068 L 1713.84 622.233 C 1713.06 620.524 1717.02 609.508 1717.74 607.102 C 1729.13 600.918 1739.78 593.327 1750.38 585.893 z"/>
<path transform="translate(0,0)" fill="rgb(254,254,254)" d="M 1472.94 753.048 L 1473.49 753.591 C 1475.47 761.925 1461.89 763.524 1459.64 774.453 C 1459.58 774.751 1459.53 775.051 1459.47 775.351 C 1458.18 775.957 1457.33 776.151 1455.9 776.187 C 1447.85 776.387 1444.65 780.15 1438.74 785.029 L 1437.52 784.522 C 1437.57 783.63 1437.55 783.433 1437.78 782.443 C 1440.31 771.516 1463.99 759.117 1472.94 753.048 z"/>
<path transform="translate(0,0)" fill="rgb(254,254,254)" d="M 1472.94 770.721 C 1482.98 780.827 1536.63 817.558 1539.7 825.38 L 1538.59 826.551 C 1535.37 826.009 1534.82 825.062 1532.47 822.896 C 1521.52 814.953 1482.22 781.038 1475.74 778.529 L 1474.46 779.455 L 1474.53 784.6 L 1473.53 784.785 C 1471.49 783.151 1469.91 781.906 1468.63 779.552 C 1469 775.943 1470.92 773.639 1472.94 770.721 z"/>
<path transform="translate(0,0)" fill="rgb(254,254,254)" d="M 1420.9 542.006 C 1420.86 545.458 1419.06 549.087 1417.9 552.337 C 1414.52 554.355 1409.91 556.53 1407.88 560.019 C 1404.64 565.586 1407.46 572.098 1409.1 577.743 C 1405.27 574.33 1401.3 571.397 1397.11 568.469 C 1393.48 570.083 1390.12 572.191 1386.71 574.209 C 1384.73 575.638 1382.62 576.862 1380.54 578.138 L 1379.02 577.13 C 1384.22 562.69 1408.89 551.63 1420.9 542.006 z"/>
<path transform="translate(0,0)" fill="rgb(254,254,254)" d="M 1209.85 680.189 L 1210.45 680.942 C 1209.2 688.63 1197.83 693.98 1191.94 698.54 C 1189.05 700.777 1188.96 703.604 1188.51 706.979 L 1188.35 708.211 C 1186.06 707.074 1183.87 705.856 1181.32 705.391 C 1177.12 704.624 1162.49 717.074 1158.47 719.821 L 1156.42 720.377 C 1155.51 717.06 1157.38 712.354 1158.21 709.059 C 1176.89 701.751 1193.04 690.994 1209.85 680.189 z"/>
<path transform="translate(0,0)" fill="rgb(254,254,254)" d="M 1321.39 526.499 C 1331.5 528.949 1365.5 558.402 1374.31 566.769 C 1375.38 569.979 1377.53 574.707 1377.33 578.094 C 1377.13 581.527 1374.91 582.687 1372.59 584.793 C 1370.93 586.193 1369.58 587.196 1367.58 588.063 C 1364.72 582.748 1370.91 574.155 1366.69 567.218 C 1356.75 550.883 1330.5 544.039 1321.39 526.499 z"/>
<path transform="translate(0,0)" fill="rgb(254,254,254)" d="M 1354.88 587.055 L 1355.7 588.487 C 1353.42 600.46 1345.62 598.253 1343.45 604.703 C 1341.44 610.694 1345.52 617.621 1347.98 622.896 C 1341.86 618.395 1335.72 614.088 1329.28 610.046 C 1326.91 611.656 1324.7 613.437 1322.46 615.218 C 1319.48 617.784 1316.75 620.503 1312.99 621.867 L 1311.5 620.902 L 1311.5 617.65 C 1322.1 605.183 1340.34 597.866 1353.54 588.06 L 1354.88 587.055 z"/>
<path transform="translate(0,0)" fill="rgb(254,254,254)" d="M 1245.26 564.571 C 1250.49 566.491 1302.88 611.094 1304.56 615.625 C 1306.16 619.954 1303.75 625.874 1302.44 630.035 C 1300.62 630.944 1300.17 631.208 1298.07 631.163 C 1296.42 626.761 1297.29 620.046 1296.72 615.192 C 1286.58 602.095 1247.95 577.777 1245.26 564.571 z"/>
<path transform="translate(0,0)" fill="rgb(254,254,254)" d="M 1282.98 630.896 C 1283.7 631.539 1284.23 632.386 1284.3 633.397 C 1284.7 639.091 1274.41 644.118 1270.45 647.621 L 1269.6 648.387 C 1268.2 654.911 1267.8 660.821 1267.72 667.466 C 1264.56 663.983 1261.26 660.989 1257.67 657.956 C 1253.47 659.96 1249.55 662.448 1245.57 664.856 C 1243.2 666.412 1241.74 667.954 1238.84 668.055 C 1237.37 665.261 1238.71 660.557 1239.18 657.455 C 1254.98 649.876 1268.66 640.961 1282.98 630.896 z"/>
<path transform="translate(0,0)" fill="rgb(254,254,254)" d="M 1169.19 606.506 C 1176.83 609.977 1216.86 645.964 1225.9 654.359 C 1229.35 657.573 1231.44 659.806 1231.4 664.78 C 1231.37 669.198 1230.94 673.681 1227.72 676.942 C 1225.69 678.071 1223.79 678.925 1221.58 679.677 C 1219.74 676.973 1226.07 665.771 1217.84 654.694 C 1207.74 641.088 1175.32 622.835 1169.75 610.94 C 1169.3 609.991 1169.33 607.635 1169.19 606.506 z"/>
<path transform="translate(0,0)" fill="rgb(254,254,254)" d="M 1268.46 926.558 C 1278.27 928.09 1320.07 970.524 1334.71 977.791 C 1337.51 979.184 1340.88 979.869 1343.91 980.602 L 1337.52 985.805 L 1329.93 991.073 C 1329.52 987.79 1329.08 984.53 1327.25 981.689 C 1317.1 965.96 1270.52 941.569 1268.46 926.558 z"/>
<path transform="translate(0,0)" fill="rgb(254,254,254)" d="M 1342.17 875.486 C 1345.47 877.545 1348.61 881.344 1351.81 883.856 C 1361.24 891.235 1370.71 898.512 1379.98 906.092 C 1387.86 912.545 1395.75 920.182 1404.52 925.32 C 1413.49 930.577 1421.16 920.116 1429.48 917.905 C 1427.13 920.395 1424.27 922.244 1421.5 924.221 C 1416.14 928.185 1408.27 936.305 1402.12 938.07 C 1398.92 935.452 1400.04 929.964 1395.74 925.836 C 1380.64 911.344 1362.6 899.124 1346.6 885.497 L 1344.76 885.675 C 1344.2 887.568 1343.62 889.053 1342.61 890.749 C 1341.09 886.408 1342.05 880.102 1342.17 875.486 z"/>
<path transform="translate(0,0)" fill="rgb(254,254,254)" d="M 1265.05 906.928 L 1265.83 907.704 C 1266.02 910.984 1259.81 928.078 1259.07 936.394 C 1258.09 934.103 1257.14 931.557 1255.86 929.421 C 1254.65 927.384 1252.46 926.219 1250.11 926.048 C 1242.4 925.487 1229.9 938.824 1223.77 943.77 C 1221.35 945.679 1219.1 947.355 1216.35 948.759 L 1215.16 947.648 C 1215.18 946.456 1215.13 945.083 1215.37 943.9 C 1217.89 931.567 1253.31 913.904 1265.05 906.928 z"/>
<path transform="translate(0,0)" fill="rgb(254,254,254)" d="M 1342.51 849.873 C 1342.81 850.892 1343 851.361 1343.1 852.499 C 1343.76 859.431 1335.64 864.167 1331.8 869.179 L 1331.11 870.089 C 1330.82 874.857 1330.96 879.657 1330.99 884.432 C 1327.89 881.135 1324.51 878.35 1321.02 875.502 C 1314.35 878.721 1308.45 883.548 1302.69 888.123 L 1299.84 890.454 L 1298.46 890.042 C 1297.95 886.766 1297.96 883.561 1297.95 880.251 C 1312.17 869.273 1327.48 859.7 1342.51 849.873 z"/>
<path transform="translate(0,0)" fill="rgb(254,254,254)" d="M 924.084 1143.17 C 925.553 1145.71 922.981 1154.26 922.762 1157.84 C 922.546 1161.38 923.101 1165.08 923.532 1168.59 C 919.894 1165.54 916.085 1162.66 912.358 1159.72 C 899.677 1166.33 889.037 1175.7 878.074 1184.76 C 875.865 1186.59 874.774 1188.16 871.845 1188.47 C 870.351 1185.6 871.682 1180.8 872.1 1177.66 C 889.769 1166.68 906.342 1154.04 924.084 1143.17 z"/>
<path transform="translate(0,0)" fill="rgb(254,254,254)" d="M 1092.74 653.517 C 1099.92 655.477 1143.08 696.194 1151.96 704.113 C 1148.69 711.846 1148.08 717.655 1148.53 725.864 C 1146.61 727.164 1145.3 728.101 1142.99 728.463 C 1140.23 724.858 1143.14 709.212 1143.26 703.842 C 1128.03 690.023 1107.45 675.806 1094.37 660.531 C 1092.12 657.896 1092.41 656.941 1092.74 653.517 z"/>
<path transform="translate(0,0)" fill="rgb(254,254,254)" d="M 1370.67 733.464 C 1371.3 733.779 1372.43 734.324 1373.09 734.723 C 1382.65 740.521 1422.33 771.674 1427.92 780.482 C 1430.29 784.216 1431.06 790.175 1432.04 794.489 C 1429.67 796.71 1427.02 798.709 1424.5 800.764 L 1421.3 802.856 L 1420.29 802.008 C 1419.39 794.934 1420.97 786.955 1421.06 779.684 C 1406.21 766.104 1386.54 756.07 1372.94 741.36 C 1370.23 738.427 1370.53 737.194 1370.67 733.464 z"/>
<path transform="translate(0,0)" fill="rgb(254,254,254)" d="M 925.609 751.503 C 931.776 755.023 974.325 797.794 982.553 806.012 A 1543.37 1543.37 0 0 0 975.532 836.844 L 972.615 838.213 C 969.429 833.413 974.492 817.672 974.944 811.166 C 974.97 810.781 974.989 810.395 975.012 810.01 C 965.519 794.639 932.635 771.627 926.987 759.344 C 925.856 756.886 925.779 754.163 925.609 751.503 z"/>
<path transform="translate(0,0)" fill="rgb(254,254,254)" d="M 1144.05 877.802 C 1147.66 885.724 1200.19 928.797 1209.46 934.264 C 1208.79 944.398 1208.8 953.928 1201.87 962.038 C 1200.95 962.368 1201.48 962.321 1200.29 961.845 L 1202.1 953.975 C 1203.07 949.709 1203.73 942.966 1201.81 938.845 C 1196.01 926.45 1152.55 901.349 1143.83 886.234 C 1142.11 883.239 1143.09 880.81 1144.05 877.802 z"/>
<path transform="translate(0,0)" fill="rgb(254,254,254)" d="M 1218.66 826.525 C 1226.51 830.312 1234.15 838.012 1240.75 843.735 C 1256.51 857.415 1272.02 872.804 1289.5 884.225 A 282.026 282.026 0 0 1 1289.47 887.048 C 1289.3 895.432 1289.14 898.641 1282.93 904.652 C 1281.81 905.344 1280.65 905.78 1279.43 906.28 C 1277.84 901.114 1281.33 893.934 1280.72 888.125 C 1280.5 886.025 1279.85 884.57 1278.44 882.946 C 1271.37 874.754 1243.9 854.502 1233.28 845.71 C 1226.55 840.142 1219.54 835.794 1218.66 826.525 z"/>
<path transform="translate(0,0)" fill="rgb(254,254,254)" d="M 1010.51 701.294 C 1018.23 702.977 1058.59 743.109 1066.64 751.266 C 1064.26 762.237 1062.8 775.549 1058.56 785.842 C 1056.83 786.238 1055.36 786.334 1053.59 786.315 C 1053.06 776.946 1058.05 765.166 1058.97 755.4 L 1059.11 753.918 C 1046.66 737.114 1026.96 725.77 1013.35 709.784 C 1010.58 706.537 1010.13 705.598 1010.51 701.294 z"/>
<path transform="translate(0,0)" fill="rgb(254,254,254)" d="M 1042.96 809.666 C 1053.15 814.049 1097.46 855.298 1109.63 865.927 C 1105.39 873.275 1105.6 881.673 1103.46 889.714 C 1101.54 891.24 1100.27 892.247 1097.88 892.971 C 1094.85 888.492 1099.03 875.13 1098.98 869.016 L 1098.96 867.573 C 1087.36 853.254 1050.97 826.364 1044.28 815.373 C 1043.29 813.747 1043.14 811.525 1042.96 809.666 z"/>
<path transform="translate(0,0)" fill="rgb(254,254,254)" d="M 450.98 1033.73 C 469.735 1057.17 488.57 1080.73 509.098 1102.65 C 505.217 1114.5 505.401 1130.87 498.492 1141.15 L 497.541 1139.8 C 498.196 1135.59 499.517 1131.84 500.842 1127.81 C 502.885 1121.6 504.702 1115.29 502.709 1108.78 C 497.846 1092.9 455.823 1059.15 448.861 1042.18 C 447.867 1039.75 450.045 1036.02 450.98 1033.73 z"/>
<path transform="translate(0,0)" fill="rgb(254,254,254)" d="M 840.993 802.971 C 860.409 820.118 877.009 840.44 897.523 856.446 C 895.983 864.434 894.004 885.294 890.509 891.279 C 890.015 892.126 888.146 893.376 887.347 894.085 C 885.027 894.017 886.155 894.266 883.971 893.298 C 883.76 886.209 887.629 877.938 889.221 870.943 C 890.023 867.416 890.717 864.543 889.384 861.057 C 883.97 846.902 846.923 825.43 840.295 810.817 C 838.883 807.704 840.029 805.972 840.993 802.971 z"/>
<path transform="translate(0,0)" fill="rgb(254,254,254)" d="M 1193.62 983.588 C 1214.29 993.768 1238.98 1024.74 1260.76 1036.04 C 1272.05 1031.18 1281.43 1023.48 1292.37 1018.1 C 1291.13 1020.37 1287.89 1022.26 1285.78 1023.86 C 1273.41 1031.53 1262.07 1041.68 1250.03 1050.04 L 1250.02 1038.36 C 1238.17 1027.13 1224.92 1016.84 1212.42 1006.29 C 1206.69 1001.45 1199.9 996.545 1195.23 990.685 C 1193.09 988.008 1193.32 986.953 1193.62 983.588 z"/>
<path transform="translate(0,0)" fill="rgb(254,254,254)" d="M 1408.02 821.553 C 1413.31 824.634 1418.63 830.086 1423.69 833.874 C 1442.63 848.077 1461.21 862.824 1480.31 876.798 C 1489.5 872.386 1502.47 860.206 1512.17 859.855 L 1512.92 861.473 C 1511.22 865.84 1504.41 869.248 1500.52 871.811 L 1471.05 892.256 L 1473.21 879.896 L 1472.66 879.284 C 1463.46 868.889 1450.65 860.712 1439.9 851.883 C 1430.65 844.279 1422.09 835.864 1412.85 828.313 L 1411.3 828.594 L 1409.93 832.981 L 1408.86 833.453 L 1407 831.028 C 1406.25 827.395 1406.96 825.062 1408.02 821.553 z"/>
<path transform="translate(0,0)" fill="rgb(254,254,254)" d="M 957.781 861.318 C 964.86 863.417 1010.97 910.855 1021.58 919.221 C 1021.16 919.963 1020.73 920.701 1020.34 921.458 C 1015.93 929.963 1009.64 942.089 1012.53 951.657 C 1010.71 953.054 1010.48 953.569 1008.13 953.877 C 1005.43 947.6 1012.74 930.446 1013.49 922.957 C 1013.54 922.534 1013.56 922.11 1013.6 921.687 C 1009.83 917.329 1004.67 913.511 1000.33 909.689 C 988.824 899.562 976.384 889.567 965.88 878.437 C 960.394 872.623 957.579 869.734 957.781 861.318 z"/>
<path transform="translate(0,0)" fill="rgb(254,254,254)" d="M 996.037 950.001 C 996.576 952.66 996.833 957.741 995.099 959.964 C 986.697 970.732 966.809 973.136 961.186 986.496 C 960.287 988.633 959.776 990.047 958.058 991.686 C 947.419 991.71 945.186 994.198 937.002 1000.38 C 936.292 997.895 937.179 994.469 937.844 992.069 C 939.268 986.925 942.099 983.045 946.045 979.521 C 955.918 970.703 983.226 957.611 996.037 950.001 z"/>
<path transform="translate(0,0)" fill="rgb(254,254,254)" d="M 1166.84 835.052 C 1164.62 849.098 1153.95 853.28 1143.95 861.466 C 1134.82 868.938 1133.3 875.973 1132.15 887.023 C 1130.48 885.925 1128.79 884.794 1126.98 883.958 C 1122.12 881.721 1118.84 883.074 1114.07 884.795 L 1113.12 885.272 L 1112.08 884.633 C 1112.24 878.873 1114.39 872.978 1115.89 867.43 C 1133.01 856.806 1150.09 846.27 1166.84 835.052 z"/>
<path transform="translate(0,0)" fill="rgb(254,254,254)" d="M 872.29 918.345 C 881.454 925.06 889.71 934.019 897.936 941.878 C 909.972 953.376 922.287 964.707 933.8 976.73 C 933.745 976.874 933.692 977.019 933.634 977.162 C 929.21 988.074 927.185 999.3 923.447 1010.37 C 922.303 1009.83 921.58 1009.84 921.087 1008.55 C 919.056 1003.22 925.924 989.184 927.995 983.776 C 918.404 968.107 884.416 942.759 869.9 926.442 C 869.663 923.115 870.923 921.347 872.29 918.345 z"/>
<path transform="translate(0,0)" fill="rgb(254,254,254)" d="M 746.697 856.318 C 754.27 859.614 799.527 908.107 807.791 917.587 C 806.229 925.407 806.567 935.798 802.771 942.753 C 801.303 942.839 800.378 942.757 798.959 942.508 C 796.33 936.442 799.845 927.339 801.373 921.217 C 786.586 901.104 760.745 884.676 744.768 864.554 C 744.214 861.165 745.421 859.459 746.697 856.318 z"/>
<path transform="translate(0,0)" fill="rgb(254,254,254)" d="M 867.614 889.953 L 868.419 890.713 C 869.034 893.709 868.93 896.424 868.806 899.45 L 867.761 900.306 C 867.288 900.699 866.832 901.111 866.349 901.49 C 860.215 906.301 860.012 916.122 858.648 923.404 C 854.58 920.799 850.278 918.768 845.937 916.674 C 836.655 920.872 828.208 926.445 819.588 931.833 C 817.834 932.918 817.307 933.271 815.19 933.478 C 813.754 929.84 815.118 925.518 815.638 921.652 C 833.076 911.224 849.647 899.502 867.614 889.953 z"/>
<path transform="translate(0,0)" fill="rgb(254,254,254)" d="M 811.775 1072.88 C 812.242 1074.78 812.599 1077.79 811.938 1079.65 C 809.709 1085.92 798.447 1090.35 792.902 1093.26 C 788.902 1101.01 786.59 1110.03 783.843 1118.31 C 780.363 1115.28 776.84 1112.82 772.952 1110.34 C 765.396 1113.06 760.202 1116.97 754.06 1121.98 C 752.351 1123.04 751.166 1123.69 749.172 1124.03 C 748.003 1119.63 751.75 1112.35 753.355 1107.96 A 730.21 730.21 0 0 0 811.775 1072.88 z"/>
<path transform="translate(0,0)" fill="rgb(254,254,254)" d="M 937.776 1158.59 C 960.885 1179.75 984.716 1201.5 1009.45 1220.71 C 1006.77 1228.02 1004.86 1235.65 1002.76 1243.15 L 998.902 1245.2 L 997.581 1244.33 C 996.91 1238.36 999.353 1231.17 999.872 1224.94 C 987.211 1209.03 968.075 1195.41 952.57 1182.13 C 947.803 1178.05 940.786 1173.22 937.408 1167.92 C 935.976 1165.67 937.366 1161.12 937.776 1158.59 z"/>
<path transform="translate(0,0)" fill="rgb(254,254,254)" d="M 906.181 1009.01 L 906.66 1009.43 C 907.717 1012.52 905.318 1017.87 904.394 1020.99 C 900.544 1022.8 896.658 1024.55 892.826 1026.4 C 878.495 1033.3 878.449 1045.65 873.843 1059.01 L 863.729 1050.63 C 859.79 1052.16 856.025 1054.2 852.243 1056.08 C 850.758 1057.12 849.242 1058.04 847.692 1058.97 L 846.423 1058.16 C 846.41 1052.72 849.758 1046.27 851.705 1041.16 C 870.761 1032.29 888.364 1020.1 906.181 1009.01 z"/>
<path transform="translate(0,0)" fill="rgb(254,254,254)" d="M 717.023 1138.38 L 717.527 1138.94 L 716.702 1140.92 C 709.227 1144.67 703.854 1156.64 691.879 1163.27 C 690.305 1169.67 688.507 1175.84 686.32 1182.06 L 675.331 1174.44 C 667.407 1177.4 660.726 1182.34 653.791 1187.06 L 650.763 1188.65 L 649.433 1187.96 C 648.593 1183.21 650.541 1177.78 651.599 1173.13 C 674.147 1162.53 695.117 1150.08 717.023 1138.38 z"/>
<path transform="translate(0,0)" fill="rgb(254,254,254)" d="M 1042.02 782.255 L 1042.48 782.791 C 1042.87 786.732 1043.07 789.861 1041.09 793.438 C 1037.35 800.19 1033.96 807.134 1030.47 814.021 C 1027.77 812.754 1025.36 811.015 1022.35 810.586 C 1011.86 809.093 997.078 822.913 988.562 828.882 C 987.002 830.112 987.301 830.143 985.115 830.351 C 985.255 824.178 988.752 816.75 990.75 810.842 C 1008.86 804.041 1025.54 792.312 1042.02 782.255 z"/>
<path transform="translate(0,0)" fill="rgb(254,254,254)" d="M 1030 1099.42 C 1035.48 1102.24 1041.04 1108.71 1045.7 1112.91 C 1053.23 1119.67 1088.37 1152.9 1095.9 1153.77 C 1105.65 1154.9 1148.07 1121.34 1158.02 1114.02 C 1155.01 1118.55 1152.03 1121.75 1147.71 1125.07 A 6057.65 6057.65 0 0 0 1086.66 1169.78 L 1088.21 1158.24 C 1075.56 1147.59 1039.6 1118.74 1031.18 1107.29 C 1029.03 1104.36 1029.59 1102.79 1030 1099.42 z"/>
<path transform="translate(0,0)" fill="rgb(254,254,254)" d="M 778.805 974.472 A 1265.52 1265.52 0 0 0 843.216 1038.51 A 853.117 853.117 0 0 0 834.161 1067.21 L 832.891 1068.45 L 831.587 1068.36 C 830.223 1061.02 833.114 1050.46 834.239 1043.05 A 560.288 560.288 0 0 0 804.712 1012.64 C 794.897 1003.21 784.21 994.012 776.009 983.115 L 778.805 974.472 z"/>
<path transform="translate(0,0)" fill="rgb(254,254,254)" d="M 1086.68 886.866 C 1087.76 890.992 1086.4 895.488 1085.55 899.558 C 1076.54 905.294 1056.25 916.038 1050.56 924.437 C 1048.96 926.811 1048.5 930.94 1047.67 933.73 C 1046 933.625 1046.65 933.751 1045.3 933.408 C 1044.26 933.143 1043.05 932.751 1041.97 932.718 C 1035.3 932.517 1027.62 940.275 1022.72 944.229 C 1022.13 943.793 1021.79 943.091 1021.37 942.495 C 1022.67 935.319 1025.55 928.711 1028.91 922.283 C 1049.45 913.145 1068.06 899.336 1086.68 886.866 z"/>
<path transform="translate(0,0)" fill="rgb(254,254,254)" d="M 1352.81 617.706 C 1374.25 634.329 1395.25 651.493 1416.89 667.87 C 1432.76 659.388 1447.74 646.949 1462.34 636.339 C 1461.88 638.849 1461.5 641.707 1460.66 644.109 C 1459.49 647.418 1455.28 649.209 1452.4 650.863 C 1442.13 658.756 1430.17 664.99 1420.36 673.335 C 1416.67 676.468 1415.28 683.226 1411.54 685.306 L 1408.56 683.925 C 1407.58 685.16 1406.6 686.365 1405.58 687.567 C 1402.2 681.948 1409.02 675.912 1407.97 669.671 C 1406.88 663.212 1365.21 635.1 1357.81 629.691 L 1352.81 617.706 z"/>
<path transform="translate(0,0)" fill="rgb(254,254,254)" d="M 1115.24 1039.85 C 1124.01 1047.61 1175.42 1091.81 1182 1091.42 C 1191.4 1090.87 1212.67 1073.72 1221.22 1067.99 C 1224.63 1065.71 1232.07 1059.84 1235.85 1059.93 C 1233.37 1062.76 1230.45 1064.56 1227.32 1066.6 C 1207.93 1081.6 1187.91 1095.66 1168.01 1109.97 C 1168.48 1106.69 1169 1103.31 1169.12 1100 C 1169.67 1084.39 1124.93 1062.33 1115.68 1048.56 C 1113.65 1045.54 1114.72 1043.17 1115.24 1039.85 z"/>
<path transform="translate(0,0)" fill="rgb(254,254,254)" d="M 798.266 1106.67 C 804.431 1112.38 809.798 1120.17 815.82 1126.29 C 832.09 1142.82 848.968 1158.8 865.616 1174.95 C 864.271 1182.69 863.859 1192.02 860.685 1199.16 L 858.352 1198.97 C 856.51 1196.57 857.945 1189.17 857.561 1185.77 C 857.235 1182.9 856.526 1178.72 854.816 1176.3 C 848.052 1166.7 805.242 1128.82 794.399 1120.36 L 798.266 1106.67 z"/>
<path transform="translate(0,0)" fill="rgb(254,254,254)" d="M 679.581 1036.52 C 685.071 1039.63 739.486 1098.89 744.904 1106.7 C 742.578 1116.2 741.496 1127.89 733.786 1134.55 C 732.156 1135.59 731.281 1136.68 729.309 1136.53 C 732.467 1127.62 734.503 1118.3 736.793 1109.13 C 732.728 1102.04 726.074 1096.21 720.322 1090.48 C 705.987 1076.22 688.061 1061.12 677.185 1044.01 C 676.842 1040.71 678.062 1039.41 679.581 1036.52 z"/>
<path transform="translate(0,0)" fill="rgb(254,254,254)" d="M 701.929 1171.46 C 709.744 1177.36 716.917 1187.24 723.525 1194.52 C 737.663 1210.09 751.993 1225.67 768.053 1239.31 C 765.968 1244.36 760.976 1265.71 760.562 1266.32 C 760.017 1267.12 758.12 1268.22 757.288 1268.87 L 754.16 1269.32 L 752.832 1268.08 C 752.639 1263.99 754.921 1260.75 756.275 1257.04 C 757.985 1252.36 758.965 1247.24 757.085 1242.44 C 752.094 1229.73 705.642 1194.73 698.954 1180.1 C 698.933 1176.52 700.172 1174.52 701.929 1171.46 z"/>
<path transform="translate(0,0)" fill="rgb(254,254,254)" d="M 1129.08 725.238 L 1129.36 725.561 C 1130.23 729.646 1127.33 736.516 1126.22 740.613 L 1116.28 747.996 C 1114.08 753.392 1113.13 758.299 1112.81 764.11 C 1109 761.459 1104.92 759.282 1100.86 757.025 C 1090.92 761.922 1081.77 769.699 1072.57 775.938 C 1070.4 777.338 1071.58 776.865 1069.04 777.359 C 1068.77 771.604 1072.75 762.716 1074.37 756.897 C 1094.02 750.292 1110.47 734.552 1129.08 725.238 z"/>
<path transform="translate(0,0)" fill="rgb(254,254,254)" d="M 681.46 1007.89 L 682.848 1008.54 C 682.905 1013.33 680.989 1018.24 679.678 1022.82 A 73.7682 73.7682 0 0 0 676.639 1024.89 C 667.672 1031.37 664.906 1037.87 663.289 1048.41 C 659.9 1046.09 656.272 1044.3 652.627 1042.42 C 644.447 1046.9 637.024 1052.18 629.476 1057.62 C 627.579 1058.9 628.649 1058.37 626.22 1059.1 C 624.56 1054.81 627.383 1044.76 628.132 1040.03 A 3267.79 3267.79 0 0 0 681.46 1007.89 z"/>
<path transform="translate(0,0)" fill="rgb(254,254,254)" d="M 1279.05 656.829 C 1289.99 667.603 1302.4 677.211 1314.09 687.182 C 1325.05 696.53 1335.63 706.441 1347.05 715.214 C 1362.46 706.922 1379.52 690.942 1394.96 685.271 L 1395.81 685.878 C 1393.01 691.819 1389.27 694.882 1384.01 698.5 C 1374.74 704.71 1353.74 715.332 1349.9 725.933 C 1349.26 727.715 1348.95 728.845 1347.84 730.394 L 1342.99 727.371 C 1338.55 727.777 1334.66 730.78 1330.9 733.035 C 1332.78 728.657 1336.24 722.244 1335.42 717.39 C 1333.67 707.059 1301.88 684.139 1292.56 676.133 C 1285.96 670.47 1279.76 666 1279.05 656.829 z"/>
<path transform="translate(0,0)" fill="rgb(254,254,254)" d="M 780.628 943.967 C 780.992 944.386 781.104 944.462 781.33 945.114 C 782.351 948.065 781.347 953.272 779.92 955.953 C 778.547 956.331 776.769 956.66 775.594 957.501 C 769.262 962.031 764.359 978.055 763.392 985.546 C 761.004 983.264 758.034 980.549 754.786 979.663 C 745.762 977.201 733 988.49 725.743 993.057 L 722.774 994.719 L 721.299 994.233 C 720.002 989.894 721.601 984.214 722.278 979.772 C 741.929 968.172 761.041 955.678 780.628 943.967 z"/>
<path transform="translate(0,0)" fill="rgb(254,254,254)" d="M 959.775 831.012 L 960.404 831.728 A 509.051 509.051 0 0 0 958.036 843.309 C 956.133 845.3 954.219 847.305 952.481 849.444 C 946.485 856.822 946.752 863.237 947.752 872.108 C 945.023 869.585 941.86 866.444 937.996 865.9 C 928.153 864.513 915.661 875.482 907.919 880.756 C 906.282 881.85 905.036 882.469 903.131 882.976 C 900.46 878.507 904.475 867.609 905.725 862.516 C 924.841 854.506 942.674 842.604 959.775 831.012 z"/>
<path transform="translate(0,0)" fill="rgb(254,254,254)" d="M 584.132 1103.82 C 593.961 1112.19 602.436 1124.28 611.08 1133.94 C 621.496 1145.6 636.046 1157.61 643.895 1171.07 C 642.29 1176.91 641.791 1182.92 640.259 1188.76 C 638.561 1195.22 637.559 1197.41 631.661 1200.86 L 630.907 1200.74 C 629.419 1197 634.387 1183.57 634.597 1178.45 C 634.71 1175.69 634.481 1173.34 633.115 1170.9 C 628.289 1162.28 587.29 1123.05 576.862 1112.28 C 579.171 1109.37 581.675 1106.61 584.132 1103.82 z"/>
<path transform="translate(0,0)" fill="rgb(254,254,254)" d="M 551.984 971.545 C 561.75 983.88 608.296 1035.04 619.733 1042.66 C 617.855 1051.82 617.052 1063.91 609.92 1070.5 C 607.675 1070.68 608.713 1070.91 606.795 1069.84 C 606.909 1063.19 609.825 1055.77 611.224 1049.13 C 598.551 1030.49 556.801 998.925 549.823 981.173 C 548.773 978.504 551.022 974.124 551.984 971.545 z"/>
<path transform="translate(0,0)" fill="rgb(254,254,254)" d="M 838.043 1200.2 C 842.619 1205.87 829.594 1226.41 833.378 1235.56 C 833.602 1236.1 833.858 1236.63 834.098 1237.17 C 829.697 1234.48 826.287 1230.55 822.7 1226.89 C 806.998 1232.79 794.486 1241.75 781.247 1251.81 C 777.798 1254.33 774.144 1256.63 770.596 1259.02 L 773.742 1241.08 C 796.46 1230.91 817.198 1213.81 838.043 1200.2 z"/>
<path transform="translate(0,0)" fill="rgb(254,254,254)" d="M 1300.63 781.981 C 1319.05 793.996 1345.55 817.115 1363.38 831.505 C 1377.46 823.955 1390.33 810.083 1405.37 804.771 C 1407.45 804.035 1407.67 803.809 1409.73 804.791 L 1409.52 807.495 C 1408.36 809.549 1407.47 810.549 1405.53 811.928 C 1403.02 813.72 1400.77 815.671 1398.47 817.734 L 1396.51 822.882 C 1380.67 830.021 1366.06 842.598 1352.01 852.782 A 1272.87 1272.87 0 0 0 1355.74 833.39 C 1339.55 818.292 1321.29 805.375 1305.25 790.104 C 1302.5 787.481 1300.72 785.907 1300.63 781.981 z"/>
<path transform="translate(0,0)" fill="rgb(254,254,254)" d="M 648.897 912.703 C 656.688 918.189 668.649 932.839 675.826 940.107 C 689.008 953.456 705.247 966.364 716.45 981.375 C 714.543 989.595 712.186 999.089 707.545 1006.21 C 705.994 1006.68 704.512 1006.96 702.91 1007.2 C 700.363 1002.14 705.41 990.687 706.867 985.089 C 695.69 966.113 654.887 941.06 644.936 920.11 C 644.956 917.062 647.12 914.999 648.897 912.703 z"/>
<path transform="translate(0,0)" fill="rgb(254,254,254)" d="M 1205.61 712.768 C 1220.53 718.19 1255.88 753.458 1269.85 765.654 C 1279.53 759.773 1314.73 732.341 1323.35 733.083 C 1323.31 733.38 1323.31 733.685 1323.23 733.975 C 1321.78 739.632 1314.97 743.374 1310.4 746.35 C 1302.96 751.444 1284.16 760.887 1280.03 767.946 C 1280 769.737 1280.19 772.127 1279.75 773.839 C 1279.65 774.211 1279.11 775.382 1278.69 775.697 C 1275.53 778.014 1270.24 779.747 1266.62 781.62 C 1261.23 784.404 1256.06 787.673 1250.91 790.862 C 1253.1 783.785 1256.15 776.053 1256.77 768.656 C 1256.93 766.686 1257.13 763.644 1256.23 761.806 C 1254.55 758.358 1213.61 722.351 1205.61 712.768 z"/>
<path transform="translate(0,0)" fill="rgb(254,254,254)" d="M 1122.85 755.71 C 1143.76 777.769 1168.43 797.743 1191.56 817.526 C 1210.07 809.473 1227.53 796.188 1244.12 784.801 L 1240.1 796.121 C 1236.99 798.45 1233.68 800.571 1230.47 802.767 C 1224.03 806.985 1217.08 811.009 1211.44 816.248 C 1210.42 822.209 1210.2 828.169 1209.93 834.2 L 1201.16 825.367 C 1194.35 828.356 1188.13 833.246 1182.01 837.451 C 1183.02 833.573 1184.21 829.549 1184.74 825.574 C 1185.18 822.273 1184.31 820.029 1182.4 817.424 C 1178.2 811.684 1172.03 807.251 1166.59 802.727 C 1152.97 791.396 1135.13 778.837 1124.6 764.742 C 1122.04 761.327 1122.31 759.693 1122.85 755.71 z"/>
<path transform="translate(0,0)" fill="rgb(254,254,254)" d="M 1603.86 425.014 C 1604.85 428.029 1605.2 428.155 1604.02 431.046 C 1595.86 437.32 1586.99 442.748 1578.6 448.743 C 1536.19 479.07 1494.03 505.915 1450.23 533.916 C 1444.43 537.618 1437.43 545.191 1430.67 546.405 L 1429.96 544.849 C 1430.64 540.385 1431.01 535.856 1431.49 531.366 C 1433.42 533.032 1436.39 535.957 1438.85 536.731 C 1441.78 537.65 1442.47 537.212 1445.02 535.926 C 1447.85 532.548 1448.6 528.523 1449.75 524.362 C 1479.75 508.939 1508.34 489.009 1536.81 470.955 C 1556.9 458.218 1579.12 446.079 1597.88 431.53 C 1600.35 429.613 1602.16 427.632 1603.86 425.014 z"/>
<path transform="translate(0,0)" fill="rgb(254,254,254)" d="M 620.897 1198.1 L 621.818 1199.9 C 621.785 1201.7 621.934 1204.18 620.918 1205.78 C 615.015 1215.12 533.942 1261.55 518.114 1275.67 C 508.442 1284.3 502.367 1294.49 496.193 1305.76 L 495.558 1305.22 C 494.713 1296.12 498.507 1283.74 500.076 1274.58 C 527.215 1265.17 594.054 1216.51 620.897 1198.1 z"/>
<path transform="translate(0,0)" fill="rgb(254,254,254)" d="M 1543.85 863.502 C 1566.48 882.539 1591.18 908.513 1618.46 919.792 C 1617.87 934.127 1616.61 948.469 1615.5 962.771 C 1612.34 963.155 1608.65 962.902 1606.02 960.892 C 1598.43 955.1 1600.21 928.326 1599.97 919.358 C 1582.31 901.834 1560.24 888.597 1542.88 870.787 C 1541.96 867.793 1542.9 866.434 1543.85 863.502 z"/>
<path transform="translate(0,0)" fill="rgb(254,254,254)" d="M 1067.67 939.619 C 1072.34 942.7 1076.57 947.002 1080.83 950.679 C 1094.95 962.862 1119.88 987.312 1134.46 995.849 C 1144.46 990.921 1184.22 962.952 1189.53 962.644 L 1185.43 971.415 C 1182.67 973.337 1180.33 975.629 1177.89 977.932 C 1174.31 984.727 1168.13 983.332 1161.55 987.989 C 1146.38 998.719 1132.61 1010.48 1118.9 1022.99 C 1120.46 1016.36 1123.18 1008.33 1122.82 1001.56 C 1122.17 989.219 1089.01 967.175 1078.9 958.187 C 1072.57 952.568 1068.22 948.424 1067.67 939.619 z"/>
<path transform="translate(0,0)" fill="rgb(254,254,254)" d="M 980.477 991.659 C 992.105 1000.96 1036.49 1042.42 1043.38 1053.38 C 1061.56 1046.38 1084.55 1031.43 1101.06 1020.63 C 1097.43 1029.08 1095.24 1036.43 1094.57 1045.65 C 1092.66 1044.49 1090.44 1042.95 1088.23 1042.53 C 1078.93 1040.74 1059.08 1055.38 1052.41 1061.73 C 1047.14 1066.77 1043.55 1072.51 1037.52 1076.87 C 1037.14 1077.14 1036.76 1077.39 1036.39 1077.66 C 1038.4 1069.79 1039.1 1062.09 1039.5 1054 C 1019 1037.78 999.449 1020.31 980.056 1002.8 C 980.09 999.088 980.319 995.368 980.477 991.659 z"/>
<path transform="translate(0,0)" fill="rgb(254,254,254)" d="M 742.924 1267.79 L 744.271 1268.37 L 745.091 1271.07 C 744.428 1273.76 744.261 1274.51 742.147 1276.44 C 731.108 1286.5 715.938 1294.6 703.433 1303.04 C 681.52 1317.82 660.028 1333.38 638.263 1348.41 C 624.116 1358.17 608.42 1367.5 595.319 1378.59 C 588.514 1384.36 585.378 1391.37 579.878 1398.11 L 579.064 1399.09 L 578.772 1399.32 L 578.212 1398.5 C 580.017 1391.11 581.975 1383.88 584.322 1376.65 C 638.457 1342.71 690.097 1303.83 742.924 1267.79 z"/>
<path transform="translate(0,0)" fill="rgb(254,254,254)" d="M 887.351 1046.6 C 912.168 1067.9 934.894 1092.85 957.994 1116.06 C 977.448 1106.43 995.745 1092.3 1014.52 1081.19 A 603.777 603.777 0 0 0 1012.49 1098.54 L 997.417 1101.01 C 983.732 1109.94 970.305 1118.89 955.424 1125.76 C 954.406 1128.56 953.391 1131.38 952.116 1134.08 C 950.314 1137.89 948.625 1141.15 944.517 1142.62 L 943.353 1141.83 C 945.493 1135.41 948.715 1128.44 948.595 1121.57 C 948.56 1119.57 948.225 1116.98 947.123 1115.28 C 940.686 1105.35 896.121 1068 883.991 1055.62 L 887.351 1046.6 z"/>
<path transform="translate(0,0)" fill="rgb(254,254,254)" d="M 1597.25 548.894 L 1598.35 549.37 C 1599.53 552.191 1599.91 552.843 1599.53 555.834 C 1594.79 561.609 1540.28 594.666 1529.05 602.084 C 1509.33 615.104 1490.18 628.974 1470.23 641.643 C 1471.62 635.086 1472.65 628.926 1473.02 622.224 C 1459.34 609.022 1441.35 597.795 1426.06 586.371 C 1424.65 585.365 1423.24 584.363 1421.92 583.24 C 1419.26 580.96 1418.26 578.508 1418.07 575.042 L 1419.4 573.887 C 1430.99 577.111 1461.83 607.338 1479.05 615.978 L 1477.41 618.506 C 1478.73 621.17 1482.84 622.636 1485.45 623.974 C 1522.18 598.197 1559.92 573.802 1597.25 548.894 z"/>
<path transform="translate(0,0)" fill="rgb(254,254,254)" d="M 597.909 1061.91 C 598.365 1064.71 598.214 1074.33 596.973 1076.97 C 596.303 1078.4 595.61 1078.22 594.245 1078.67 C 592.445 1078.2 590.419 1077.51 588.573 1077.36 C 585.959 1077.13 584.784 1077.34 582.987 1079.27 C 579.194 1083.35 577.391 1089.54 577.625 1094.96 C 573.7 1098.84 570.381 1102.45 567.331 1107.1 L 567.124 1119.11 C 564.341 1115.94 561.363 1112.17 557.046 1111.14 C 546.85 1108.7 531.757 1120.7 523.067 1125.87 C 519.119 1128.24 514.998 1130.35 510.936 1132.52 C 513.128 1124.31 514.45 1115.9 515.918 1107.53 C 544.544 1097.35 572.684 1078.73 597.909 1061.91 z"/>
<path transform="translate(0,0)" fill="rgb(254,254,254)" d="M 844.831 1224.73 C 858.022 1235.39 905.768 1281.87 918.427 1285.22 C 928.928 1287.99 953.709 1267.47 962.666 1261.69 C 968.183 1258.13 973.93 1254.86 979.616 1251.57 L 980.916 1252.01 C 980.166 1255.31 978.975 1258.21 976.75 1260.81 C 972.347 1265.97 952.341 1278 945.51 1282.81 C 941.272 1285.69 936.888 1288.53 932.874 1291.72 C 917.498 1303.95 918.876 1326.19 916.919 1344.05 C 913.852 1341.95 910.931 1339.61 907.976 1337.36 C 910.749 1328.08 914.289 1317.92 915.422 1308.3 C 915.983 1303.54 915.778 1299.36 913.289 1295.16 C 903.651 1278.91 859.874 1253.72 845.905 1234.6 C 843.287 1231.02 844.125 1228.81 844.831 1224.73 z"/>
<path transform="translate(0,0)" fill="rgb(254,254,254)" d="M 1881.72 710.668 C 1886.48 712.061 1888.82 716.565 1891.36 720.52 A 77.29 77.29 0 0 1 1891.43 729.743 C 1890.4 753.732 1867.34 762.366 1851.87 776.682 L 1850.6 777.871 L 1848.85 779.027 C 1847.78 777.271 1850.48 764.071 1850.5 760.812 C 1850.54 752.968 1848.02 746.556 1844.81 739.585 C 1857.29 730.233 1868.79 719.344 1881.72 710.668 z"/>
<path transform="translate(0,0)" fill="rgb(254,254,254)" d="M 488.266 1126.86 L 489.372 1127.39 C 486.242 1133.96 484.824 1138.58 484.383 1145.8 C 475.67 1150.73 466.094 1153.87 457.438 1159.05 C 428.723 1176.23 414.237 1206.13 396.419 1233.33 L 395.95 1233.49 L 395.108 1232.45 C 397.23 1216.2 406.696 1181.65 413.835 1167.17 C 439.076 1154.44 463.662 1140.77 488.266 1126.86 z"/>
<path transform="translate(0,0)" fill="rgb(254,254,254)" d="M 1666.61 618.757 C 1666.79 618.836 1666.98 618.881 1667.14 618.993 C 1668.98 620.315 1668.8 620.95 1669.08 623.083 C 1668.21 625.21 1667.2 626.48 1665.39 627.911 C 1653.16 637.58 1639.18 645.71 1626.45 654.805 C 1599.07 674.364 1571.88 694.542 1543.93 713.295 A 1206.74 1206.74 0 0 1 1483.68 751.703 C 1485.64 747.552 1488.66 742.058 1487.52 737.329 C 1484.87 726.314 1452.88 705.309 1442.94 698.223 C 1438.77 695.295 1435.12 691.606 1431.38 688.158 L 1432.78 684.745 C 1446.9 691.632 1487.44 724.223 1497.4 736.073 C 1518.22 723.399 1537.95 708.268 1557.98 694.355 L 1666.61 618.757 z"/>
<path transform="translate(0,0)" fill="rgb(254,254,254)" d="M 1745.01 688.057 L 1745.57 688.738 C 1745.98 691.07 1746.46 694.021 1745.6 696.327 C 1743.36 702.318 1651.64 763.231 1645.12 774.517 C 1639.64 784.009 1626.9 785.506 1618.29 799.086 C 1613.66 797.727 1608.89 796.872 1604.17 795.911 C 1583.41 811.871 1562.96 828.376 1542.5 844.711 L 1540.63 844.868 C 1540.03 843.405 1539.15 842.224 1539.52 840.609 C 1540.46 836.576 1544.63 833.25 1547.7 830.694 C 1563.19 817.828 1580.53 806.622 1596.82 794.779 C 1646.14 758.946 1696.53 725.088 1745.01 688.057 z"/>
<path transform="translate(0,0)" fill="rgb(254,254,254)" d="M 1647.44 789.574 C 1657.62 794.659 1701.33 834.155 1712.64 844.239 C 1709.52 861.398 1704.82 878.191 1701.94 895.451 A 533.769 533.769 0 0 1 1691.64 890.561 C 1690.97 884.584 1691.31 878.498 1690.72 872.503 C 1688.79 852.918 1671.52 844.171 1657.58 832.803 C 1648.7 825.564 1636.82 817.75 1629.51 809.043 C 1628.03 807.288 1627.25 805.27 1627.76 802.945 C 1628.24 800.738 1629.72 799.586 1631.51 798.473 C 1631.72 799.223 1631.92 799.975 1632.18 800.708 C 1634.63 807.592 1677.22 846.811 1684.49 850.383 L 1685.79 849.156 C 1688.21 834.733 1645.4 813.333 1642.71 796.599 C 1643.24 793.364 1645.24 791.781 1647.44 789.574 z"/>
<path transform="translate(0,0)" fill="rgb(254,254,254)" d="M 927.666 1331.22 C 937.447 1336.45 949.125 1348.66 958.053 1355.87 C 972.729 1367.72 987.934 1378.21 1004.14 1387.86 C 1001.69 1409.82 1000.7 1432.04 997.841 1453.92 L 996.75 1456.19 C 996.24 1456.16 995.676 1456.34 995.222 1456.1 C 993.383 1455.16 981.326 1417.89 979.195 1412.33 C 965.975 1377.82 952.63 1369.53 925.77 1346.34 L 927.666 1331.22 z"/>
<path transform="translate(0,0)" fill="rgb(254,254,254)" d="M 1031.13 1236.28 C 1042.72 1242.93 1053.64 1251.71 1064.54 1259.49 C 1082.72 1272.45 1100.48 1284.15 1120.23 1294.61 C 1119.44 1314.92 1117.16 1335.41 1115.63 1355.7 C 1115.22 1356.64 1115.56 1355.98 1114.17 1357.38 C 1109.12 1355.56 1104.57 1351.51 1100.24 1348.38 C 1099.39 1341.62 1098.77 1334.73 1097.5 1328.04 C 1090.24 1289.68 1060.45 1267.85 1030.17 1247.01 L 1031.13 1236.28 z"/>
<path transform="translate(0,0)" fill="rgb(254,254,254)" d="M 1680.79 870.694 L 1681.67 871.43 C 1685.09 879.117 1683.03 902.814 1682.38 911.872 C 1668.44 927.747 1642.47 944.434 1625.53 958.819 L 1624.22 958.796 C 1622.55 950.352 1626.22 926.353 1627.14 916.277 C 1642.73 899.527 1663.06 885.204 1680.79 870.694 z"/>
<path transform="translate(0,0)" fill="rgb(254,254,254)" d="M 813.417 1412.6 C 824.337 1420.55 834.053 1431.74 843.75 1441.19 C 857.321 1454.42 871.368 1466.1 886.96 1476.85 C 887.395 1489.51 885.274 1539.17 881.383 1549.65 C 874.849 1547.88 873.002 1545 871.104 1538.72 C 867.45 1526.64 864.81 1514.27 860.793 1502.28 C 850.872 1472.68 828.069 1455.82 806.952 1434.33 A 388.724 388.724 0 0 1 813.417 1412.6 z"/>
<path transform="translate(0,0)" fill="rgb(254,254,254)" d="M 903.727 1308.95 L 904.536 1310.09 C 902.843 1318.73 900.094 1327.22 897.666 1335.68 L 885.372 1332.47 C 878.822 1335.46 872.363 1338.51 866.171 1342.2 C 849.644 1352.03 813.764 1378.1 806.692 1395.91 C 802.903 1405.46 801.927 1416.81 799.341 1426.84 C 795.073 1422.63 790.304 1417.53 784.846 1414.98 C 781.372 1413.36 778.642 1413.27 775.151 1414.77 C 762.324 1420.26 691.702 1468.46 684.02 1479.2 C 678.781 1486.52 665.957 1522.14 661.419 1532.75 L 655.381 1547.04 C 656.222 1521.61 663.446 1495.11 670.765 1470.88 C 675.12 1469.69 679.228 1468.32 683.194 1466.12 C 698.524 1457.62 712.503 1446.23 726.735 1436.04 A 6880.24 6880.24 0 0 0 818.318 1369.18 C 846.36 1348.61 874.674 1328.08 903.727 1308.95 z"/>
<path transform="translate(0,0)" fill="rgb(254,254,254)" d="M 1726.3 632.503 C 1740.31 645.954 1753.88 659.845 1767.94 673.234 C 1788.41 692.719 1826.29 723.561 1839.07 747.946 C 1845.69 760.564 1842.38 773.521 1838.57 786.325 L 1824.66 799.035 L 1822.72 800.495 C 1821.56 797.557 1825.87 788.933 1826.77 785.404 C 1827.87 781.073 1827.81 775.25 1827.52 770.806 C 1825.89 745.839 1788.17 718.811 1768.94 705.063 C 1764.48 701.883 1758.5 699.064 1754.56 695.48 C 1750.93 692.171 1754.22 682.927 1750.76 678.199 C 1744.43 669.574 1725.28 655.876 1716.22 647.713 C 1719.5 642.596 1722.94 637.565 1726.3 632.503 z"/>
<path transform="translate(0,0)" fill="rgb(254,254,254)" d="M 1367.23 484.087 C 1373.15 487.421 1379.02 494.225 1384.39 498.629 C 1396.75 508.76 1409.83 518.133 1421.69 528.84 C 1410.08 540.295 1394.69 549.76 1380.6 557.914 C 1362.21 545.426 1338.94 528.969 1323.67 513 C 1337.07 502.264 1352.76 493.327 1367.23 484.087 z"/>
<path transform="translate(0,0)" fill="rgb(254,254,254)" d="M 1816.91 768.012 C 1821.13 777.069 1813.84 799.228 1811.55 808.796 C 1797.91 822.114 1782.65 833.795 1767.82 845.739 A 6591.61 6591.61 0 0 1 1712.3 890.165 L 1711.6 889.52 C 1710.7 882.867 1718.79 853.167 1720.64 843.955 C 1742.51 828.956 1767.69 808.701 1788.29 791.736 C 1797.85 783.863 1806.7 775.049 1816.91 768.012 z"/>
<path transform="translate(0,0)" fill="rgb(254,254,254)" d="M 1412.12 693.865 C 1421.82 696.382 1465.31 733.193 1474.15 741.577 C 1459.79 749.973 1446.48 760.24 1434.03 771.238 C 1413.82 754.079 1389.52 739.454 1371.5 720.073 C 1383.62 710.211 1398.85 702.187 1412.12 693.865 z"/>
<path transform="translate(0,0)" fill="rgb(254,254,254)" d="M 1397.67 580.757 C 1412.36 587.874 1447.45 615.923 1462.59 626.768 C 1448.2 635.44 1434.45 645.39 1420.41 654.642 L 1417.61 655.88 C 1408.71 653.57 1364.98 616.708 1357.63 608.98 C 1370.33 598.924 1384.61 590.475 1397.67 580.757 z"/>
<path transform="translate(0,0)" fill="rgb(254,254,254)" d="M 1329.19 623.796 C 1335.43 624.712 1386.26 665.478 1396.41 672.559 C 1381.42 680.172 1367.43 690.805 1353.44 700.144 L 1350.09 701.619 C 1340.02 699.141 1296.91 660.558 1288.3 651.679 C 1301.42 641.768 1315.71 633.242 1329.19 623.796 z"/>
<path transform="translate(0,0)" fill="rgb(254,254,254)" d="M 1220.84 570.796 C 1229.34 572.995 1272.69 611.964 1282.29 620.661 C 1267.1 629.828 1252.25 639.616 1237.31 649.182 L 1235.64 649.871 C 1228.62 647.298 1182.91 604.952 1176.52 598.279 A 691.143 691.143 0 0 1 1220.84 570.796 z"/>
<path transform="translate(0,0)" fill="rgb(254,254,254)" d="M 1296.73 523.772 C 1304.41 528.845 1311.69 536.791 1318.56 542.99 C 1330.51 553.771 1342.53 564.224 1355.06 574.339 C 1340.84 585.347 1325.41 596.309 1309.82 605.289 C 1290.97 587.614 1269.65 572.119 1249.35 556.161 C 1264.04 544.203 1280.87 534.148 1296.73 523.772 z"/>
<path transform="translate(0,0)" fill="rgb(254,254,254)" d="M 1458.46 786.762 C 1468.09 788.66 1516.79 827.959 1526.18 835.851 C 1513.07 847.228 1496.56 856.573 1482.01 866.161 L 1481.4 866.426 C 1478.14 866.005 1423.25 823.074 1416.65 818.04 A 1332.65 1332.65 0 0 1 1458.46 786.762 z"/>
<path transform="translate(0,0)" fill="rgb(254,254,254)" d="M 1086.43 1333.81 C 1090.73 1338.29 1092.45 1372.29 1093.27 1380.48 C 1083.99 1389.36 1073.28 1397.09 1063.22 1405.09 A 6440.52 6440.52 0 0 0 1009.6 1447.93 L 1007.5 1449.14 C 1005.38 1445.18 1011.73 1397.14 1012.63 1388.2 C 1022.94 1379.55 1034.7 1372.06 1045.63 1364.17 C 1059.39 1354.26 1072.79 1343.88 1086.43 1333.81 z"/>
<path transform="translate(0,0)" fill="rgb(254,254,254)" d="M 1319.43 888.8 C 1325.88 888.91 1379.45 931.709 1388.34 938.747 A 3000.81 3000.81 0 0 1 1343.8 968.665 L 1339.93 970.75 C 1334.24 969.358 1284.83 926.4 1276.97 919.504 C 1291.36 909.632 1305.34 899.092 1319.43 888.8 z"/>
<path transform="translate(0,0)" fill="rgb(254,254,254)" d="M 1344 737.746 C 1350.43 738.262 1402.08 783.26 1408.3 790.276 C 1394.41 801.463 1378.46 810.966 1363.36 820.491 C 1340.95 804.126 1318.6 786 1297.62 767.822 C 1312.93 757.666 1327.97 746.737 1344 737.746 z"/>
<path transform="translate(0,0)" fill="rgb(254,254,254)" d="M 1256.37 668.746 C 1265.21 672.103 1308.7 711.567 1321.95 720.921 C 1304.68 729.832 1289.54 742.653 1272.45 752.035 L 1271.25 752.397 C 1263.76 750.788 1218.3 708.549 1209.8 700.055 C 1225.44 689.568 1241.33 680.188 1256.37 668.746 z"/>
<path transform="translate(0,0)" fill="rgb(254,254,254)" d="M 1147.73 614.785 C 1156.96 616.728 1201.43 659.623 1210.43 668.66 C 1195.18 679.749 1177.67 688.92 1161.4 698.526 C 1161.27 698.583 1161.16 698.684 1161.02 698.696 C 1160.98 698.7 1158.86 698.627 1158.79 698.599 C 1155.18 697.17 1107.43 652.204 1099.92 645.491 C 1116.19 636.08 1131.8 624.835 1147.73 614.785 z"/>
<path transform="translate(0,0)" fill="rgb(254,254,254)" d="M 1396.41 835.407 C 1400.78 842.998 1448.43 875.425 1459.88 887.217 C 1448.05 898.902 1425.35 910.677 1410.81 919.815 C 1393.72 905.023 1360.74 882.967 1347.69 868.016 C 1362.85 855.884 1379.92 845.621 1396.41 835.407 z"/>
<path transform="translate(0,0)" fill="rgb(254,254,254)" d="M 1067.01 660.728 C 1074.48 660.753 1121.16 704.91 1129.61 712.687 C 1113.58 724.402 1095.32 734.465 1078.54 745.245 L 1077.67 745.635 C 1076.98 745.549 1076.21 745.715 1075.59 745.377 C 1071.26 742.978 1065.86 736.638 1062.02 733.231 L 1016.85 693.384 A 2884.71 2884.71 0 0 0 1067.01 660.728 z"/>
<path transform="translate(0,0)" fill="rgb(254,254,254)" d="M 1275.8 786.789 C 1280.51 787.597 1332.11 832.864 1341.07 840.355 C 1325.45 852.676 1307.27 862.191 1291.17 874.091 C 1283.04 871.414 1235.82 827.711 1226.54 818.854 C 1242.66 807.698 1259.94 798.345 1275.8 786.789 z"/>
<path transform="translate(0,0)" fill="rgb(254,254,254)" d="M 970.961 1422.93 C 977.45 1430.27 984.452 1456.53 986.699 1465.98 C 958.759 1490.14 928.724 1512.34 899.684 1535.18 L 890.143 1543.21 C 895.847 1521.98 894.207 1497.28 895.81 1475.34 C 922.13 1460.92 947.338 1441.47 970.961 1422.93 z"/>
<path transform="translate(0,0)" fill="rgb(254,254,254)" d="M 1170.34 994.784 C 1192.97 1011.11 1215.71 1028.3 1236.72 1046.67 C 1224.63 1059.15 1200.46 1071.83 1185.52 1081.31 C 1184.64 1081.87 1183.78 1082.07 1182.79 1082.38 C 1169.37 1075.13 1133.57 1043.29 1121.36 1032.03 A 5124.86 5124.86 0 0 1 1170.34 994.784 z"/>
<path transform="translate(0,0)" fill="rgb(254,254,254)" d="M 1100.97 767.922 C 1112.03 775.248 1122.13 785.024 1132.02 793.845 C 1143.87 804.415 1155.8 814.724 1168.15 824.709 C 1150.3 834.885 1133.31 846.552 1115.5 856.849 L 1114.8 857.335 C 1114.15 857.331 1113.48 857.514 1112.87 857.323 C 1110.55 856.602 1058.58 808.552 1049.63 801.464 C 1067.82 792.988 1084.8 779.689 1100.97 767.922 z"/>
<path transform="translate(0,0)" fill="rgb(254,254,254)" d="M 1247.82 938.71 C 1252.32 938.67 1308.86 984.866 1316.41 990.771 A 5780.77 5780.77 0 0 1 1265.58 1025.3 C 1264.85 1025.61 1263.54 1025.66 1262.74 1025.77 C 1252.8 1020.41 1243.4 1011.09 1234.63 1003.91 A 939.957 939.957 0 0 0 1197.81 974.83 C 1213.99 962.132 1230.89 950.394 1247.82 938.71 z"/>
<path transform="translate(0,0)" fill="rgb(254,254,254)" d="M 1179.35 716.783 C 1189.06 718.159 1236.34 762.4 1246.54 771.82 C 1230.83 783.918 1213.15 794.103 1196.45 804.792 L 1194.59 805.543 C 1186.99 803.136 1139.2 758.477 1130.31 749.659 C 1147.15 739.887 1163.32 727.864 1179.35 716.783 z"/>
<path transform="translate(0,0)" fill="rgb(254,254,254)" d="M 986.363 711.957 C 993.314 714.432 1030.17 748.429 1037.52 756.197 C 1040.34 759.171 1044.73 763.777 1044.6 768.131 C 1035.15 778.257 1005.51 793.065 992.395 800.771 L 991.612 800.871 C 983.948 797.307 942.562 754.094 933.251 744.767 A 3241.7 3241.7 0 0 0 986.363 711.957 z"/>
<path transform="translate(0,0)" fill="rgb(254,254,254)" d="M 1570.27 472.109 C 1581.45 478.151 1619.85 518.455 1630.95 529.301 C 1656.75 554.505 1685.42 577.594 1707.58 606.263 C 1706.23 615.937 1703.94 625.317 1701.66 634.799 L 1689.7 624.865 C 1686.11 621.406 1682.19 618.994 1677.97 616.42 C 1677.39 613.006 1677.16 609.397 1676.22 606.064 C 1673.63 596.775 1617.93 555.286 1606.7 548.197 L 1608.21 537.43 C 1600.63 531.971 1593.6 525.277 1586.39 519.315 A 1110.62 1110.62 0 0 0 1546.31 487.341 C 1553.85 481.609 1562.14 476.95 1570.27 472.109 z"/>
<path transform="translate(0,0)" fill="rgb(254,254,254)" d="M 341.183 1096.61 C 350.888 1104.42 360.754 1120.7 369.017 1130.72 C 379.378 1143.28 390.927 1155.04 402.643 1166.34 L 386.351 1226.9 L 381.065 1220.83 C 357.626 1194.59 335.822 1166.84 312.369 1140.56 C 321.047 1125.42 331.646 1111.25 341.183 1096.61 z"/>
<path transform="translate(0,0)" fill="rgb(254,254,254)" d="M 1198.92 837.119 C 1222.6 854.388 1244.37 874.552 1266.86 893.363 A 979.501 979.501 0 0 1 1213.66 926.85 C 1208.9 924.852 1203.74 919.571 1199.75 916.194 C 1187.42 905.778 1160.13 879.522 1145.73 874.286 C 1162.97 861.324 1181.29 849.569 1198.92 837.119 z"/>
<path transform="translate(0,0)" fill="rgb(254,254,254)" d="M 511.674 1297.84 C 523.157 1318.45 557.852 1358.31 577.298 1370.89 C 573.316 1382.19 564.451 1424.88 558.305 1431.59 L 556.591 1430.5 C 543.203 1413.03 528.57 1396.59 514.328 1379.83 C 504.91 1368.74 496.041 1357.23 486.379 1346.35 C 493.449 1329.24 501.761 1313.46 511.674 1297.84 z"/>
<path transform="translate(0,0)" fill="rgb(254,254,254)" d="M 900.5 760.87 C 903.987 761.397 957.824 811.386 963.726 817.539 C 946.17 829.968 926.816 840.956 908.429 852.134 L 907.054 852.563 C 900.697 848.51 894.919 842.015 889.391 836.817 A 1683.51 1683.51 0 0 1 846.807 795.17 A 2036.23 2036.23 0 0 1 900.5 760.87 z"/>
<path transform="translate(0,0)" fill="rgb(254,254,254)" d="M 430.308 1199.5 C 438.281 1207.71 444.896 1218.47 451.952 1227.56 A 265.994 265.994 0 0 0 493.904 1270.14 C 489.06 1292.35 487.206 1315.86 480.018 1337.43 C 477.259 1334.63 474.777 1331.51 472.226 1328.52 C 459.644 1312.92 446.525 1297.84 433.748 1282.41 C 423.099 1269.55 412.875 1256.34 401.662 1243.96 C 411.017 1229.02 420.938 1214.44 430.308 1199.5 z"/>
<path transform="translate(0,0)" fill="rgb(254,254,254)" d="M 590.323 1399.62 C 598.386 1404.67 621.728 1434.35 631.09 1444.03 C 640.958 1454.24 651.897 1462.54 663.202 1471.05 C 655.233 1492.84 652.573 1513.5 647.781 1535.88 L 647.054 1536.09 L 642.694 1531.11 C 617.136 1500.56 590.783 1470.47 566.031 1439.27 C 572.081 1424.85 581.189 1412.2 590.323 1399.62 z"/>
<path transform="translate(0,0)" fill="rgb(254,254,254)" d="M 1019.66 818.839 C 1029.93 823.986 1076.5 866.155 1086.49 875.61 C 1069.94 889.517 1049.21 900.865 1030.72 912.063 L 1029.77 912.583 C 1023.42 911.799 973.473 862.075 965.507 853.808 C 983.624 842.377 1002.31 831.396 1019.66 818.839 z"/>
<path transform="translate(0,0)" fill="rgb(254,254,254)" d="M 1121.73 891.784 C 1132.11 893.73 1179.02 937.695 1187.21 948.51 L 1185.77 948.744 L 1187.52 949.704 C 1180.47 960.82 1147.41 977.929 1134.65 984.901 C 1126.96 981.085 1114.44 967.892 1107.5 961.789 L 1068.12 927.782 A 1321.41 1321.41 0 0 1 1121.73 891.784 z"/>
<path transform="translate(0,0)" fill="rgb(254,254,254)" d="M 682.918 1504.68 C 690.114 1510.73 696.256 1520.28 702.305 1527.56 C 717.531 1545.88 733.559 1564.41 752.267 1579.26 C 748.803 1603.96 747.123 1628.79 745.342 1653.64 L 739.318 1647.02 C 726.127 1632.76 714.378 1617.23 701.93 1602.33 C 688.498 1586.25 674.056 1570.59 661.895 1553.54 A 1558.13 1558.13 0 0 1 682.918 1504.68 z"/>
<path transform="translate(0,0)" fill="rgb(254,254,254)" d="M 1086.65 1051.8 C 1093.39 1051.91 1147.47 1097.5 1156.6 1105.88 C 1140.91 1120.44 1118.78 1131.78 1100.53 1142.94 C 1098.86 1144 1097.95 1144.5 1095.96 1144.6 C 1075.72 1125.91 1052.44 1109.08 1033.68 1089.04 C 1050.9 1076.36 1068.71 1063.42 1086.65 1051.8 z"/>
<path transform="translate(0,0)" fill="rgb(254,254,254)" d="M 934.895 873.803 C 941.404 876.876 989.327 921.161 996.013 928.746 C 998.329 931.373 998.414 933.505 998.105 936.944 C 992.37 943.61 952.649 964.015 942.362 969.819 L 941.267 969.969 C 931.442 964.104 888.572 921.031 878.628 910.275 L 934.895 873.803 z"/>
<path transform="translate(0,0)" fill="rgb(254,254,254)" d="M 1038.01 944.667 C 1045.93 946.027 1099.84 995.134 1108.32 1003.84 C 1093.54 1017.35 1068.92 1029.57 1051.39 1040.11 L 1048.7 1040.98 C 1041.35 1037.99 993.065 990.819 982.635 981.328 C 1001.65 970.12 1019.66 956.947 1038.01 944.667 z"/>
<path transform="translate(0,0)" fill="rgb(254,254,254)" d="M 812.787 810.76 C 816.977 812.131 866.41 858.753 870.629 864.47 C 872.39 866.857 872.845 869.113 872.189 872.03 C 871.946 873.107 871.177 875.004 870.624 875.882 C 869.017 878.432 821.865 906.936 815.679 911.024 C 809.261 908.17 761.108 856.186 755.132 848.063 C 774.065 835.253 793.609 823.219 812.787 810.76 z"/>
<path transform="translate(0,0)" fill="rgb(254,254,254)" d="M 851.857 1513.84 C 857.606 1519.18 860.913 1555.2 861.624 1564.23 C 850.419 1574.68 837.579 1584.12 825.574 1593.67 L 759.5 1645.75 C 757.468 1647.29 756.833 1648.16 754.203 1648.5 C 753.844 1641.32 755.038 1633.75 755.667 1626.58 C 757.081 1610.47 758.85 1594.26 759.144 1578.1 C 790.84 1558.54 823.423 1537.95 851.857 1513.84 z"/>
<path transform="translate(0,0)" fill="rgb(254,254,254)" d="M 1003.37 1109.76 C 1009.48 1111.39 1066.7 1159.7 1075.33 1167.69 C 1060.1 1181.05 1033.06 1196.67 1015.43 1207.74 C 1013.86 1208.59 1012.57 1209.08 1010.89 1209.62 C 1000.31 1203.93 957.236 1163.75 946.198 1153.06 C 965.067 1138.23 983.764 1123.64 1003.37 1109.76 z"/>
<path transform="translate(0,0)" fill="rgb(254,254,254)" d="M 953.809 1000.78 C 959.865 1004.77 1017.99 1060.13 1018.88 1063.67 C 1015.33 1073.69 971.75 1097.17 960.644 1104.1 C 952.39 1097.44 944.74 1089.53 937.014 1082.26 C 922.361 1068.46 907.566 1054.72 894.21 1039.64 C 914.446 1027.32 933.739 1013.4 953.809 1000.78 z"/>
<path transform="translate(0,0)" fill="rgb(254,254,254)" d="M 718.019 867.703 C 730.408 874.298 774.512 919.331 784.659 931.429 C 763.669 940.705 744.513 956.56 724.557 968.093 L 720.602 969.061 C 710.982 965.291 665.989 917.079 657.258 906.943 C 669.729 895.559 702.371 877.713 718.019 867.703 z"/>
<path transform="translate(0,0)" fill="rgb(254,254,254)" d="M 861.893 1061.62 C 874.06 1068.02 890.736 1086.76 901.364 1096.68 A 1784.85 1784.85 0 0 0 932.771 1124.86 C 923.337 1135.3 888.291 1155.72 874.481 1165.55 L 873.015 1166.46 C 866.699 1165.2 812.172 1108.65 804.892 1099.82 C 824.466 1088 842.338 1073.36 861.893 1061.62 z"/>
<path transform="translate(0,0)" fill="rgb(254,254,254)" d="M 843.545 927.741 C 844.933 927.673 845.813 928.104 847.001 928.892 C 858.696 936.642 870.998 951.65 881.365 961.647 C 888.841 968.857 897.414 975.473 904.228 983.301 C 906.842 986.303 909.219 989.361 909.988 993.323 C 904.509 1001.27 861.705 1025.48 851.383 1031.71 C 851.317 1031.73 851.243 1031.73 851.185 1031.76 C 851.033 1031.86 850.904 1031.99 850.763 1032.1 C 844.702 1029.75 792.365 975.641 784.147 967.305 C 802.226 952.729 824.073 940.665 843.545 927.741 z"/>
<path transform="translate(0,0)" fill="rgb(254,254,254)" d="M 1609.99 806.652 C 1625.01 815.247 1663.79 848.232 1677.4 860.666 C 1669.28 868.149 1625.16 906.79 1618.9 909.825 C 1615.22 909.124 1612.09 908.172 1608.85 906.226 C 1592.99 896.69 1561.89 868.955 1547.88 855.466 C 1565.89 837.248 1588.75 820.928 1609.99 806.652 z"/>
<path transform="translate(0,0)" fill="rgb(254,254,254)" d="M 617.934 925.733 C 618.5 925.716 619.069 925.611 619.631 925.68 C 624.004 926.217 679.468 982.48 688.853 991.419 C 668.34 1004.41 647.966 1018.15 626.385 1029.3 L 619.998 1031.97 A 1630.55 1630.55 0 0 0 584.749 993.228 C 575.856 983.745 566.58 974.586 558.595 964.304 C 576.963 950.213 598.169 937.87 617.934 925.733 z"/>
<path transform="translate(0,0)" fill="rgb(254,254,254)" d="M 909.662 1171.67 C 910.11 1171.72 910.563 1171.74 911.006 1171.82 C 915.164 1172.62 918.824 1175.24 922.153 1177.74 C 930.661 1184.13 981.566 1229.41 985.366 1235.48 C 981.344 1241.44 935.184 1269.03 925.526 1275.66 C 923.333 1276.95 922.846 1277.39 920.343 1277.37 C 908.935 1268.92 898.45 1258.8 887.835 1249.37 C 875.744 1238.63 863.035 1228.13 852.134 1216.17 C 870.943 1200.91 890.404 1186.35 909.662 1171.67 z"/>
<path transform="translate(0,0)" fill="rgb(254,254,254)" d="M 771.237 1120.98 C 781.868 1128.07 791.895 1140.45 801.104 1149.48 C 813.783 1161.9 826.98 1173.77 839.534 1186.31 C 818.153 1201.42 798.026 1217.31 775.536 1230.96 L 773.242 1231.84 C 766.343 1228.42 718.955 1176.67 708.96 1166.41 C 712.159 1163.49 714.814 1160.01 718.156 1157.28 C 733.202 1145.02 754.754 1132.85 771.237 1120.98 z"/>
<path transform="translate(0,0)" fill="rgb(254,254,254)" d="M 1769.99 596.792 C 1776.74 599.216 1868.7 692.777 1877.75 702.824 C 1867.75 715.163 1853.64 725.212 1840.61 734.121 C 1805.55 696.457 1767.4 661.146 1730.08 625.737 C 1741.99 614.335 1757.59 607.6 1769.99 596.792 z"/>
<path transform="translate(0,0)" fill="rgb(254,254,254)" d="M 751.374 987.843 C 758.159 990.517 814.099 1045.33 820.023 1053.73 C 799.802 1070.2 777.429 1083.72 755.425 1097.62 C 753.494 1098.89 754.599 1098.46 752.053 1098.76 C 741.11 1087.36 730.714 1075.43 719.779 1064.02 C 709.138 1052.91 697.547 1042.11 688.083 1029.98 C 694.522 1024.85 701.955 1020.53 708.789 1015.89 C 722.866 1006.35 736.869 996.728 751.374 987.843 z"/>
<path transform="translate(0,0)" fill="rgb(254,254,254)" d="M 653.547 1051.84 C 667.189 1061.18 714.069 1108.19 722.987 1121.98 C 704.124 1135.86 678.079 1150.22 657.327 1161.53 C 655.332 1162.51 653.739 1163.05 651.549 1163.42 C 630.76 1144.01 607.561 1117.4 589.849 1095.04 C 611.239 1080.97 631.759 1065.22 653.547 1051.84 z"/>
<path transform="translate(0,0)" fill="rgb(254,254,254)" d="M 521.87 984.741 C 532.287 991.56 541.728 1003.05 550.493 1011.99 C 564.535 1026.31 578.449 1040.64 593.467 1053.95 A 781.062 781.062 0 0 1 527.553 1092.79 L 516.707 1098.33 C 512.499 1092.27 507.101 1086.8 502.249 1081.24 C 487.01 1063.78 469.909 1046.15 457.877 1026.33 C 477.816 1011.13 500.36 997.664 521.87 984.741 z"/>
<path transform="translate(0,0)" fill="rgb(254,254,254)" d="M 421.441 1044.95 C 433.09 1051.63 474.236 1101.9 486.872 1115.69 C 462.519 1131.3 436.825 1147.19 410.341 1158.82 L 408.165 1158.7 C 391.888 1147.44 360.249 1104.87 346.431 1088.17 C 357.017 1081.32 368.707 1075.57 379.734 1069.42 A 1442.24 1442.24 0 0 0 421.441 1044.95 z"/>
<path transform="translate(0,0)" fill="rgb(254,254,254)" d="M 1614.96 439.693 C 1617.42 439.987 1618.67 440.905 1620.52 442.443 C 1644.72 462.518 1665.85 487.136 1688.23 509.238 C 1708.02 528.777 1735.53 551.965 1752.28 573.232 C 1743.01 583.815 1727.32 593.588 1715.15 600.721 C 1704.22 589.237 1694.1 577.072 1682.89 565.81 C 1648.49 531.24 1611.95 498.363 1576.65 464.674 C 1588.83 455.653 1602.18 447.845 1614.96 439.693 z"/>
<path transform="translate(0,0)" fill="rgb(254,254,254)" d="M 1539.6 493.799 C 1549.48 498.332 1584.33 530.189 1595.29 539.437 C 1581.55 548.008 1490.24 611.683 1484.01 612.711 L 1483.41 610.71 C 1464.34 594.253 1443.19 579.655 1422.43 565.457 C 1438.03 558.443 1452.94 547.119 1467.52 538.058 C 1491.48 523.171 1515.92 509.148 1539.6 493.799 z"/>
<path transform="translate(0,0)" fill="rgb(254,254,254)" d="M 1751.15 704.617 C 1751.41 704.674 1751.69 704.703 1751.94 704.789 C 1764.89 709.139 1799.2 740.693 1808.45 751.511 C 1811.25 754.782 1813.18 758.252 1815.09 762.071 C 1780.74 784.174 1750.9 811.191 1718.37 835.545 C 1695.23 818.766 1675.32 797.723 1652.15 781.13 C 1683.7 753.982 1720.23 732.574 1751.15 704.617 z"/>
<path transform="translate(0,0)" fill="rgb(254,254,254)" d="M 887.146 1344.09 C 890.219 1343.61 892.814 1343.4 895.783 1344.41 C 921.891 1353.3 955.873 1383.87 967.938 1408.92 C 955.479 1430.34 917.023 1452.65 895.671 1465.89 C 894.576 1466.46 893.169 1467.33 891.9 1467.36 C 881.051 1467.58 826.468 1412.33 817.875 1401.73 C 829.258 1384.78 868.442 1354.04 887.146 1344.09 z"/>
<path transform="translate(0,0)" fill="rgb(254,254,254)" d="M 1010.59 1249.69 C 1012.91 1250.41 1014.95 1251.2 1017.11 1252.32 C 1043.68 1266.17 1076.01 1293.97 1084.83 1323.63 C 1071.71 1334.74 1020.83 1374.72 1007.54 1379.2 C 979.516 1362.33 954.625 1341.35 929.719 1320.31 C 942.642 1298.25 989.099 1265.2 1010.59 1249.69 z"/>
<path transform="translate(0,0)" fill="rgb(254,254,254)" d="M 1551.29 377.91 C 1553.88 378.135 1556.72 378.377 1559.06 379.611 C 1570.64 385.738 1590.02 408.488 1600.29 418.9 C 1589.14 426.815 1451.67 515.705 1448.68 516.42 C 1448.1 516.558 1447.51 516.274 1446.92 516.2 C 1430.42 501.665 1412.58 486.295 1394.13 474.42 C 1416.87 457.433 1442.27 443.389 1466.68 428.915 A 5761.05 5761.05 0 0 0 1551.29 377.91 z"/>
<path transform="translate(0,0)" fill="rgb(254,254,254)" d="M 779.012 1424.83 C 779.368 1425 779.737 1425.13 780.08 1425.32 C 789.157 1430.3 834.283 1477.3 841.721 1488.01 C 845.14 1492.94 846.975 1497.61 848.613 1503.3 C 833.218 1522.68 780.099 1556.9 757.382 1569.62 L 755.441 1569.52 C 737.794 1558.99 701.769 1513.92 688.651 1496.17 C 715.479 1470.44 747.116 1443.97 779.012 1424.83 z"/>
<path transform="translate(0,0)" fill="rgb(254,254,254)" d="M 553.696 1118.84 C 562.685 1121.39 608.627 1174.74 621.245 1184.78 C 606.232 1198.05 588.932 1208.87 572.267 1219.94 C 550.074 1234.68 527.635 1249.58 504.345 1262.55 C 503.109 1262.93 501.938 1262.81 500.653 1262.8 C 486.589 1254.63 444.985 1207.57 438.511 1193.17 C 440.057 1188.88 444.474 1185.64 448.029 1182.94 C 463.339 1171.33 480.959 1162.08 497.5 1152.35 C 516.298 1141.29 534.805 1129.73 553.696 1118.84 z"/>
<path transform="translate(0,0)" fill="rgb(254,254,254)" d="M 1609.47 561.899 C 1628.52 575.584 1649.31 591.694 1666.27 607.824 C 1650.47 619.555 1504.86 722.582 1501.25 723.443 C 1499.74 723.804 1498.7 722.575 1497.48 721.796 C 1477.19 706.266 1456.93 690.806 1435.99 676.161 C 1452.42 664.839 1469.51 654.512 1486.23 643.634 A 6522.66 6522.66 0 0 0 1609.47 561.899 z"/>
<path transform="translate(0,0)" fill="rgb(254,254,254)" d="M 1679.37 631.027 C 1700.4 643.593 1722.3 664.803 1740.47 681.57 C 1692.17 719.384 1640.26 753.234 1590.19 788.674 C 1583.88 793.145 1553.9 816.59 1548.97 818.042 C 1548.18 818.274 1547.33 817.876 1546.51 817.793 C 1527.86 805.512 1498.48 782.064 1482.12 766.836 C 1549.89 724.281 1612.56 674.83 1679.37 631.027 z"/>
<path transform="translate(0,0)" fill="rgb(254,254,254)" d="M 674.574 1187.91 C 675.307 1187.87 675.995 1187.77 676.726 1187.95 C 683.642 1189.63 737.334 1246.45 743.538 1255.37 C 723.34 1271.31 700.873 1284.81 679.839 1299.64 C 649.026 1321.37 618.62 1344.84 586.26 1364.22 L 583.597 1364.76 C 568.841 1358.42 524.565 1304.88 518.253 1289.6 C 521.662 1285.58 525.373 1282.04 529.621 1278.93 C 549.838 1264.11 572.532 1251.24 593.64 1237.61 A 4027.6 4027.6 0 0 1 642.666 1206.52 C 653.001 1200.05 663.366 1192.77 674.574 1187.91 z"/>
<path transform="translate(0,0)" fill="rgb(254,254,254)" d="M 1591.65 937.836 L 1592.34 938.486 C 1594.71 946.014 1595.26 968.707 1594.27 977.014 C 1593.72 981.524 1590.64 985.211 1587.43 988.225 C 1573.56 1001.25 1552.52 1015.26 1537.02 1027.8 A 10997.9 10997.9 0 0 1 1387.51 1146.26 C 1354.57 1171.86 1322.57 1198.75 1290.03 1224.87 L 1126.54 1353.52 L 1124.92 1353.86 C 1123.67 1348.79 1127.71 1302.9 1128.27 1293.7 C 1150.69 1279.9 1171.15 1262.45 1191.73 1246.09 L 1266.63 1187.61 L 1447.19 1049.02 A 10244.6 10244.6 0 0 1 1591.65 937.836 z"/>
<path transform="translate(0,0)" fill="rgb(254,254,254)" d="M 815.449 1239.84 C 818.825 1240.2 821.989 1240.9 825.024 1242.49 C 841.163 1250.92 882.441 1287.27 896.883 1300.81 C 887.64 1309.26 876.423 1316.18 866.145 1323.34 A 2739.72 2739.72 0 0 0 821.26 1355.2 L 729.059 1422.15 C 711.607 1434.74 694.305 1448.35 675.748 1459.24 L 667.931 1462.85 C 646.275 1447.35 611.212 1414.04 597.927 1390.53 C 613.412 1375.25 634.475 1363.26 652.419 1350.93 L 768.954 1272.41 C 784.227 1262.1 798.771 1247.71 815.449 1239.84 z"/>
<path transform="translate(0,0)" fill="rgb(254,254,254)" d="M 1521.78 867.032 C 1539 874.891 1576.78 910.707 1593.4 924.682 C 1579.43 938.259 1559.01 951.396 1543.32 963.742 L 1405.06 1070.54 L 1211.43 1220.38 C 1183.96 1241.43 1157.28 1264.65 1128.6 1284.02 C 1122.41 1283.74 1118.05 1282.84 1112.5 1279.94 C 1098.12 1271.87 1043.27 1235.7 1034.94 1225.74 C 1033.41 1223.9 1033.79 1224.22 1033.96 1222.1 C 1040.91 1210.15 1238.22 1069.49 1265.6 1049.37 L 1387.63 959.58 C 1399.44 950.928 1410.86 941.753 1422.83 933.31 C 1455.28 910.424 1488.98 889.423 1521.78 867.032 z"/>
</svg>