<svg version="1.1" xmlns="http://www.w3.org/2000/svg" style="display: block;" viewBox="0 0 2048 2048" width="1024" height="1024">
<defs>
	<linearGradient id="Gradient1" gradientUnits="userSpaceOnUse" x1="925.627" y1="539.801" x2="913.114" y2="512.237">
		<stop class="stop0" offset="0" stop-opacity="1" stop-color="rgb(0,0,0)"/>
		<stop class="stop1" offset="1" stop-opacity="1" stop-color="rgb(35,34,34)"/>
	</linearGradient>
</defs>
<path transform="translate(0,0)" fill="rgb(254,254,254)" d="M 0 0 L 2048 0 L 2048 2048 L 0 2048 L 0 0 z"/>
<path transform="translate(0,0)" fill="rgb(16,16,16)" d="M 1971.5 1015.47 C 1972.34 1015.99 1973.15 1016.89 1973.88 1017.56 C 1977.09 1025.29 1977.02 1033.27 1976.11 1041.44 C 1972.12 1077.22 1949.92 1107.43 1925.69 1132.77 C 1902.1 1157.43 1872.4 1176.45 1842.48 1192.49 C 1707.91 1264.65 1558.69 1263.25 1411.71 1283.89 C 1365.24 1290.42 1319.13 1298.62 1274.43 1313.17 C 1244.19 1323.01 1211.78 1335.37 1186.89 1355.56 C 1173.36 1366.53 1160.53 1380.85 1159.01 1399.03 C 1155.29 1443.84 1226.45 1473.6 1259.4 1488.24 C 1290.79 1502.19 1322.88 1513.76 1355.01 1525.86 C 1382.07 1536.05 1409.45 1546.77 1435.37 1559.64 C 1461.3 1572.51 1486.28 1587.91 1505.08 1610.32 C 1523.12 1631.84 1533.4 1655.54 1530.7 1684 C 1527.71 1715.5 1508.43 1743.09 1484.51 1762.81 C 1444.4 1795.88 1369.93 1821.66 1317.5 1816.42 C 1313.47 1814.31 1309.13 1810.82 1307.25 1806.58 C 1305.47 1802.53 1305.91 1797.88 1307.76 1793.94 C 1315.32 1777.84 1342.79 1772.73 1358.28 1767.8 A 496.466 496.466 0 0 0 1385.71 1758.14 C 1411.95 1748.09 1448.13 1732.53 1459.89 1704.72 C 1465.07 1692.47 1464.62 1678.61 1459.69 1666.37 C 1440.95 1619.72 1371.47 1594.79 1327.95 1577.27 A 5290.15 5290.15 0 0 1 1262.7 1550.78 C 1209.67 1528.56 1124.28 1491.49 1101.68 1435.01 A 80.4119 80.4119 0 0 1 1102.97 1373.1 C 1108.93 1359.32 1118.03 1347.29 1127.99 1336.17 C 1224.3 1228.65 1474.13 1234.99 1610.39 1219.55 C 1679.96 1211.66 1749.83 1199.29 1814.98 1172.85 C 1863.35 1153.21 1929.96 1114.73 1953.76 1067.08 C 1961.86 1050.86 1964.42 1032.27 1971.5 1015.47 z"/>
<path transform="translate(0,0)" fill="rgb(254,254,254)" d="M 1903.75 1137.05 L 1904.17 1137.32 C 1902.64 1142.17 1871.13 1162.6 1864.9 1166.41 A 577.467 577.467 0 0 1 1722.1 1227.73 C 1661.6 1244.3 1598.42 1251.01 1536.22 1257.69 C 1473.01 1264.47 1410.41 1270.95 1347.89 1282.82 C 1297.68 1292.35 1243.02 1305.66 1198.75 1332.16 C 1176.85 1345.27 1153.18 1366.37 1147.29 1392.36 C 1130.42 1466.78 1292.91 1515.49 1342.96 1534.55 C 1376.81 1547.44 1411.64 1560.17 1443.23 1578.1 C 1468.17 1592.25 1491.74 1610.14 1506.62 1635.13 A 80.0917 80.0917 0 0 1 1515.63 1695.69 C 1507.29 1727.78 1480.46 1752.43 1452.73 1768.49 C 1423.57 1785.38 1354.98 1811.01 1322.3 1802.21 L 1323.43 1800.45 L 1321.47 1801.62 L 1322.26 1802.11 C 1323.95 1800.88 1325.1 1799.98 1327.17 1799.51 C 1333.96 1797.96 1341.72 1798.02 1348.68 1797.02 A 311.58 311.58 0 0 0 1398.62 1785.32 C 1438.85 1772.22 1485.4 1747.25 1505.13 1707.77 C 1513.63 1690.78 1514.9 1672.82 1508.89 1654.8 C 1496.89 1618.83 1466.54 1596.21 1433.85 1580.01 C 1425.23 1575.8 1415.21 1571.43 1405.66 1569.88 C 1403.23 1569.49 1404.22 1569.26 1402.37 1570.6 C 1404.47 1574.68 1417.76 1579.58 1422 1581.88 C 1437.88 1590.51 1453.79 1600.6 1467.17 1612.78 C 1485.09 1629.1 1501.52 1650.31 1502.29 1675.57 C 1502.91 1695.84 1492.03 1713.79 1478.66 1728.19 C 1445.36 1764.06 1378.17 1788.42 1329.39 1790.32 C 1366.12 1778.96 1407.09 1767.79 1438.99 1745.63 C 1457.03 1733.1 1471.86 1717.55 1475.69 1695.22 C 1488 1623.63 1376.47 1582.8 1324.5 1562.33 C 1298.67 1552.16 1272.54 1542.35 1247.14 1531.17 C 1204.71 1512.49 1148.25 1484.14 1121.43 1445.62 C 1110.96 1430.58 1105.75 1413.3 1109.12 1395.04 C 1112.89 1374.6 1124.89 1356.02 1139.02 1341.17 C 1225.26 1250.5 1439.65 1246.08 1559.18 1236.15 C 1607.3 1232.16 1654.96 1226.93 1702.42 1217.7 C 1776.22 1203.33 1841.61 1179.77 1903.75 1137.05 z"/>
<path transform="translate(0,0)" fill="rgb(16,16,16)" d="M 1293.41 1277.19 L 1298.8 1277.12 L 1298.95 1278.18 C 1288.35 1286.28 1271.5 1289.31 1258.98 1293.94 C 1217.12 1309.41 1181.17 1334.91 1150.78 1367.28 C 1149.85 1368.01 1148.52 1368.7 1147.5 1369.32 L 1145.62 1368.75 C 1145.5 1365.8 1147.66 1362.8 1149.23 1360.28 C 1176.58 1316.35 1244.67 1288.13 1293.41 1277.19 z"/>
<path transform="translate(0,0)" fill="rgb(16,16,16)" d="M 1125.2 184.435 C 1143.59 183.069 1162.69 183.936 1181.1 184.711 C 1287.02 189.174 1400.54 214.961 1495.78 262.407 C 1605.19 316.908 1716.58 397.983 1756.65 519.105 A 317.504 317.504 0 0 1 1737.48 760.849 C 1729.53 776.688 1720.38 792.232 1709.3 806.094 C 1645.23 886.235 1520.63 959.259 1430.4 1007.23 C 1414.54 1015.66 1398.87 1024.53 1382.78 1032.52 C 1356.23 1045.69 1329.14 1058.76 1302.14 1070.99 C 1288.78 1077.05 1275.12 1082.43 1261.82 1088.63 C 1229.52 1103.68 1197 1117.93 1164.49 1132.47 C 1101.85 1160.51 1038.75 1187.74 973.509 1209.26 C 818.056 1260.53 691.081 1284.06 527.889 1252.43 C 449.056 1237.14 390.202 1216.9 318.443 1180.69 C 305.881 1190.1 291.848 1198.02 278.89 1206.95 C 234.361 1237.64 188.398 1275.59 162.332 1323.84 C 150.126 1346.43 142.212 1372.2 150.035 1397.61 C 154.57 1412.34 164.27 1423.9 175.363 1434.27 C 270.559 1523.27 555.884 1541.65 687.268 1554.87 C 742.257 1560.4 798.377 1565.75 852.625 1576.55 C 906.819 1587.34 958.78 1608.09 1007.49 1633.84 L 1029.06 1645.67 C 1043.79 1640.5 1058.35 1637.28 1074.06 1638.48 C 1086.15 1639.41 1096.2 1642.98 1107.21 1647.94 C 1126.24 1656.52 1206.48 1705.01 1218.72 1720.12 C 1221.16 1723.13 1222.7 1727.32 1222.17 1731.23 C 1221.41 1736.76 1217.03 1740.02 1213.01 1743.32 C 1225.66 1763.66 1251.94 1778.14 1271.42 1791.31 C 1274.05 1803.14 1274.5 1815.25 1274.95 1827.31 A 3934.61 3934.61 0 0 0 1218.64 1851.98 C 1206.69 1857.28 1194.8 1863.2 1182.34 1867.15 C 1158.1 1856.92 1136.55 1839.43 1114.91 1824.75 C 1109.02 1827.17 1103.43 1828.99 1097.22 1830.38 C 1082.38 1824.18 989.775 1757.9 982.261 1746.2 C 978.131 1739.77 974.973 1692.68 976.387 1684.52 C 907.703 1644.23 830.969 1632.89 753.162 1624.72 A 6304.54 6304.54 0 0 0 606.699 1612.14 A 3461.7 3461.7 0 0 1 410.291 1591.08 C 382.254 1587.02 354.178 1582.93 326.513 1576.75 C 250.188 1559.71 133.675 1526.42 89.7766 1456.38 C 67.6763 1421.12 65.5927 1376.69 74.9034 1337 C 95.2567 1250.25 177.532 1185.29 249.728 1140.59 A 432.134 432.134 0 0 1 216.987 1113.68 C 163.908 1065.81 114.749 1011.63 111.236 936.325 C 109.935 908.423 116.298 880.384 124.427 853.871 C 150.748 768.019 200.691 695.42 260.825 629.472 C 286.725 601.068 316.14 574.755 344.938 549.338 C 506.508 406.737 730.843 270.866 939.261 213.354 A 862.035 862.035 0 0 1 1125.2 184.435 z"/>
<path transform="translate(0,0)" fill="rgb(254,254,254)" d="M 1114.98 1778.2 L 1116.31 1778.31 C 1116.56 1779.35 1116.67 1779.57 1116.63 1780.8 C 1116.46 1785.64 1111.04 1809.84 1108.39 1813.46 C 1107.7 1814.4 1106.03 1815.44 1105.1 1816.23 L 1103.66 1815.71 C 1101.39 1808.62 1103.89 1789 1103.99 1780.66 C 1107.67 1779.96 1111.33 1779.04 1114.98 1778.2 z"/>
<path transform="translate(0,0)" fill="rgb(254,254,254)" d="M 341.581 1088.26 A 28.4567 28.4567 0 0 1 361.297 1095.26 C 368.442 1101.39 372.053 1111.04 372.435 1120.28 C 373.028 1134.59 366.808 1150.38 357.007 1160.77 C 353.032 1164.99 348.657 1167.28 342.835 1167.48 L 341.913 1166.34 C 343.575 1163.45 347.65 1162.08 350.582 1160.64 A 81.5394 81.5394 0 0 0 353.821 1157.77 C 362.694 1149.39 367.929 1136.5 367.872 1124.33 C 367.831 1115.46 364.652 1107.16 358.165 1101.02 C 346.984 1090.43 338.733 1098.18 325.839 1098.22 L 325.999 1096.81 C 331.316 1091.68 334.38 1089.88 341.581 1088.26 z"/>
<path transform="translate(0,0)" fill="rgb(254,254,254)" d="M 1122.69 1794.02 C 1131.42 1797.52 1146.01 1810.45 1154.45 1816.37 C 1163.65 1822.83 1173.26 1828.57 1183.02 1834.15 C 1182.67 1841.87 1182.67 1849.39 1184.03 1857.02 C 1174.93 1850.74 1164.96 1845.61 1155.51 1839.84 C 1144.56 1833.16 1134.15 1825.67 1123.72 1818.21 L 1120.55 1814.96 C 1119.9 1812.62 1118.83 1810.72 1119.65 1808.38 C 1122.32 1808.47 1123.04 1809.13 1125.28 1810.54 C 1129.36 1813.09 1132.92 1816.67 1136.76 1819.59 C 1147.87 1828.01 1161.9 1838.03 1174.97 1842.82 C 1177.05 1843.58 1178.78 1844.3 1180.88 1843.4 C 1181.63 1830.88 1127.24 1810.57 1122.69 1794.02 z"/>
<path transform="translate(0,0)" fill="rgb(254,254,254)" d="M 1261.56 1804.02 C 1263.76 1807.87 1264.21 1814.15 1265.12 1818.56 C 1248.79 1829.1 1213.1 1843.21 1194.09 1851.04 C 1192.6 1851.01 1193.46 1851.15 1191.6 1850.28 C 1190.28 1844.62 1190.92 1838.47 1191.06 1832.69 C 1215.14 1824 1238.25 1814.57 1261.56 1804.02 z"/>
<path transform="translate(0,0)" fill="rgb(254,254,254)" d="M 985.806 1704.45 C 997.868 1710.5 1008.78 1722.74 1019.76 1730.87 A 549.312 549.312 0 0 0 1095.15 1778.26 C 1094.83 1791.01 1094.12 1803.96 1095.65 1816.64 C 1079.12 1812.75 1007.11 1755 991.461 1739.82 C 989.259 1728.12 987.662 1716.22 985.806 1704.45 z"/>
<path transform="translate(0,0)" fill="rgb(254,254,254)" d="M 1202.84 1746.16 C 1202.93 1746.25 1203.03 1746.32 1203.1 1746.42 C 1212.82 1761.47 1223.61 1771.23 1238.44 1781.16 C 1244.99 1785.54 1251.29 1789.56 1256.95 1795.09 A 1190.25 1190.25 0 0 1 1241.62 1802.31 C 1234.04 1805.85 1192.08 1824.2 1186.38 1823.87 C 1185.38 1823.82 1184.49 1823.18 1183.54 1822.84 C 1169.06 1815.52 1138.96 1795.4 1127.13 1784.59 C 1127.22 1781.45 1127.69 1779.57 1128.85 1776.65 C 1146.89 1765.8 1181.79 1754.33 1202.84 1746.16 z"/>
<path transform="translate(0,0)" fill="rgb(16,16,16)" d="M 1216.99 1783 C 1220.54 1782.76 1224.26 1782.36 1227.29 1784.63 C 1229.54 1786.31 1229.65 1787.32 1230.04 1789.88 C 1229.13 1792.99 1227.88 1794.09 1225.49 1796.07 C 1222.91 1796.67 1220.11 1797.34 1217.5 1796.38 C 1214.73 1795.35 1214.43 1794.08 1213.45 1791.59 C 1213.6 1787.95 1215.02 1785.99 1216.99 1783 z"/>
<path transform="translate(0,0)" fill="rgb(16,16,16)" d="M 1179.37 1772.97 C 1181.21 1773.07 1182.9 1773.25 1184.7 1773.68 C 1188.6 1774.64 1193.62 1777.57 1195.5 1781.29 C 1196.67 1783.62 1197.16 1786.07 1196.16 1788.58 C 1194.57 1792.56 1190.6 1793.88 1186.97 1795.36 C 1185.64 1795.34 1184.33 1795.31 1183 1795.19 C 1178.15 1794.74 1172.84 1793.07 1169.94 1788.83 C 1168.56 1786.82 1167.82 1784.7 1168.47 1782.26 C 1169.9 1776.92 1174.84 1774.99 1179.37 1772.97 z"/>
<path transform="translate(0,0)" fill="rgb(254,254,254)" d="M 1065.14 1648.39 C 1083 1648.41 1097.72 1655.02 1113.16 1663.44 C 1127.13 1671.06 1209.38 1720.44 1211.96 1729.22 C 1211.45 1729.88 1211.12 1730.73 1210.44 1731.2 C 1206.22 1734.12 1172.17 1745.26 1164.55 1748.17 C 1152.68 1752.69 1141.06 1757.9 1129.44 1763.02 C 1120.7 1766.51 1112.42 1768.61 1103.1 1769.85 C 1083.06 1760.75 993.373 1706.43 986.766 1690.32 C 986.737 1687.05 987.654 1685.13 989.768 1682.73 C 1005.79 1664.56 1041.32 1650.45 1065.14 1648.39 z"/>
<path transform="translate(0,0)" fill="rgb(16,16,16)" d="M 1064.73 1656.38 C 1072.2 1655.71 1078.69 1657.66 1085.57 1660.34 C 1105.15 1667.95 1153.06 1694.41 1161.22 1714.54 C 1162.49 1717.65 1162.69 1720.59 1161.18 1723.69 C 1156.22 1733.85 1109.98 1755.22 1098.4 1757.87 C 1097.29 1757.66 1096.19 1757.38 1095.11 1757.04 C 1079.19 1751.93 1005.78 1702.31 999.49 1690.47 C 999.43 1686.77 999.916 1684.56 1002.3 1681.63 C 1013.45 1667.91 1047.6 1658.23 1064.73 1656.38 z"/>
<path transform="translate(0,0)" fill="rgb(254,254,254)" d="M 1068.07 1664.36 C 1069.1 1664.34 1069.45 1664.29 1070.41 1664.39 C 1090.48 1666.39 1138.67 1697.6 1150.75 1713.54 C 1152.54 1715.9 1153.2 1717.57 1152.78 1720.5 C 1147.2 1727.34 1105.21 1748.67 1096.44 1750.58 C 1069.28 1737.26 1032.09 1706.88 1007.23 1687.68 C 1025.08 1675.65 1046.65 1666.93 1068.07 1664.36 z"/>
<path transform="translate(0,0)" fill="rgb(254,254,254)" d="M 342.821 1106.99 C 345.17 1106.95 347.707 1106.77 349.843 1107.93 C 353.221 1109.76 355.471 1113.75 356.38 1117.36 A 21.7968 21.7968 0 0 1 350.237 1138.71 C 339.278 1148.95 310.659 1165 296.477 1174.15 C 243.597 1208.26 184.942 1251.91 151.456 1306.38 C 135.193 1332.83 123.892 1367.37 131.656 1398.43 C 142.916 1443.48 191.106 1470.97 230.317 1488.4 C 361.233 1546.57 518.954 1555.66 660.154 1570.16 C 725.168 1576.84 790.902 1582.55 854.988 1595.76 C 908.207 1606.72 963.585 1627.27 1010.1 1655.53 C 1003.59 1659.55 996.954 1664.6 990.1 1667.9 C 987.613 1669.09 987.398 1668.96 984.889 1668.15 C 967.206 1658.1 947.906 1649.93 928.849 1642.89 C 849.616 1613.63 779.081 1613.04 696.39 1604.56 C 558.022 1590.37 414.62 1586.03 280.042 1548.41 C 221.778 1532.12 133.932 1501.41 103.183 1446.04 C 84.4699 1412.35 82.0278 1374.85 92.6668 1338 C 97.7083 1320.55 104.889 1302.72 114.365 1287.22 C 162.35 1208.72 264.253 1149.99 342.821 1106.99 z"/>
<path transform="translate(0,0)" fill="rgb(16,16,16)" d="M 232.242 1192.86 L 233.403 1193.31 C 230.988 1199.69 199.201 1222.82 191.641 1229.61 C 170.651 1248.47 148.358 1269.72 131.935 1292.71 C 109.964 1323.47 98.0123 1360.2 104.52 1398.07 C 118.53 1479.59 230.105 1520.43 300.285 1538.84 C 368.035 1556.62 450.234 1566.13 520.239 1574.07 L 708.036 1594.15 C 720.844 1595.65 775.75 1600.55 782.861 1605.59 L 780.237 1606.19 A 7178.62 7178.62 0 0 1 556.539 1586.55 C 499.772 1580.86 443.689 1574.01 387.391 1564.75 C 353.394 1559.16 319.313 1553.28 286.05 1544.17 C 242.906 1532.35 179.839 1506.53 145.453 1478.74 A 149.766 149.766 0 0 1 109.134 1436.15 C 91.9503 1405.59 89.6758 1370.85 99.2976 1337.36 C 116.726 1276.71 178.643 1222.72 232.242 1192.86 z"/>
<path transform="translate(0,0)" fill="rgb(254,254,254)" d="M 1133.92 202.5 C 1162.34 200.623 1191.93 202.893 1220.23 205.673 C 1346.82 218.108 1473.55 259.71 1579.14 331.414 C 1641.79 373.963 1701.26 433.516 1730.69 504.23 C 1740.45 527.679 1746.24 551.18 1751.02 576.054 C 1730.74 549.183 1706.02 529.535 1675.39 515.525 C 1611.64 486.361 1541.48 494.055 1477.61 517.989 C 1450.59 527.803 1425.76 543.393 1400.23 556.405 A 377.837 377.837 0 0 0 1382.31 531.688 C 1360.16 504.145 1333.38 479.488 1306.24 456.96 A 747.999 747.999 0 0 0 1166.77 365.99 C 1063 314.876 937.374 286.067 822.654 273.918 C 840.487 264.519 860.813 257.856 879.817 251.209 A 839.266 839.266 0 0 1 1133.92 202.5 z"/>
<path transform="translate(0,0)" fill="rgb(16,16,16)" d="M 1531.62 471.409 C 1547.89 469.348 1566.42 470.641 1582.75 471.967 C 1554.28 476.737 1526.17 477.172 1497.78 483.802 L 1452.79 495.217 C 1473.69 479.831 1506.27 473.569 1531.62 471.409 z"/>
<path transform="translate(0,0)" fill="rgb(16,16,16)" d="M 1539.55 481.392 C 1552.46 479.539 1567.25 481.005 1580.23 481.935 C 1565.59 486.178 1548.97 486.679 1533.88 489.036 C 1517.37 491.615 1501.62 496.481 1485.76 501.584 C 1473.59 505.706 1461.28 509.744 1448.8 512.759 C 1472.8 493.123 1509.4 484.689 1539.55 481.392 z"/>
<path transform="translate(0,0)" fill="rgb(16,16,16)" d="M 1431.03 276.121 C 1446.19 276.641 1474.61 289.641 1489.26 296.248 C 1546.76 322.173 1599.47 352.875 1643.87 398.265 C 1652.47 407.056 1663.76 418.195 1668.18 429.889 C 1662.48 425.221 1657.22 419.284 1651.88 414.167 C 1640.83 403.588 1629.72 393.268 1617.89 383.571 C 1576.77 349.888 1530.95 324.069 1482.74 301.984 C 1469.59 295.962 1456.08 290.788 1442.89 284.881 C 1438.28 282.816 1432.97 281.177 1431.03 276.121 z"/>
<path transform="translate(0,0)" fill="rgb(16,16,16)" d="M 1167.17 217.452 A 677.552 677.552 0 0 1 1371.22 239.747 C 1387.78 244.14 1405.11 248.518 1420.47 256.219 C 1406.85 255.497 1393.46 251.365 1380.25 248.214 A 823.567 823.567 0 0 0 1333.12 238.2 C 1266.3 226.283 1199.46 223.512 1131.76 227.24 C 1105.87 229.346 1079.67 231.654 1053.95 235.245 C 1025.76 239.183 928.078 255.65 908.619 272.236 C 907.484 273.204 906.552 274.218 905.184 274.86 C 903.198 275.792 902.884 275.484 901.014 274.669 L 900.362 272.014 C 901.109 268.692 902.087 266.484 904.461 263.979 C 911.35 256.707 926.325 254.027 935.63 251.243 C 1010.39 228.871 1089.41 219.816 1167.17 217.452 z"/>
<path transform="translate(0,0)" fill="rgb(254,254,254)" d="M 1608.8 576.451 C 1642.62 575.576 1675.94 584.309 1702 606.751 C 1711.61 615.023 1730.8 637.857 1731.77 650.616 C 1725.95 641.138 1719.13 631.763 1711.53 623.64 C 1699.81 611.117 1677.81 592.671 1659.69 592.109 L 1658.72 593.127 C 1665.28 600.456 1677.11 603.773 1684.92 610.063 C 1702.75 624.429 1719.88 646.514 1727.76 668.115 C 1731.92 679.523 1734.51 691.892 1737.94 703.575 C 1735.74 715.288 1731.52 726.632 1727.27 737.736 A 164.835 164.835 0 0 0 1726.96 717.838 C 1725.98 705.848 1721 672.279 1711.76 664.405 C 1711.06 665.292 1710.42 665.713 1710.36 666.899 C 1709.98 674.552 1716.66 698.658 1717.46 709.806 C 1718.2 719.944 1718.05 730.077 1717.54 740.22 C 1716.15 767.567 1708.44 776.23 1690.96 796.119 C 1697.21 768.628 1697.96 740.456 1694.88 712.482 C 1691.39 680.737 1678.67 632.988 1651.1 613.021 C 1649.23 611.668 1648.25 611.074 1645.92 611.538 C 1645.26 613.583 1645.23 614.101 1646.18 616.178 C 1648.33 620.827 1652.58 625.15 1655.39 629.511 A 168.961 168.961 0 0 1 1672.86 665.261 C 1689.3 712.146 1684.67 762.095 1678.74 810.342 C 1671.76 819.229 1663.43 827.015 1655.33 834.855 A 470.351 470.351 0 0 0 1659.04 815.414 C 1666.72 767.77 1661.37 696.481 1632.7 656.764 C 1634.52 672.249 1640.63 687.142 1643.64 702.452 A 340.412 340.412 0 0 1 1640.31 849.264 C 1632.52 854.967 1625.16 861.06 1617.8 867.301 C 1620.03 855.784 1622.04 844.216 1622.86 832.5 C 1625.23 798.538 1618.76 707.845 1597.33 683.335 L 1596.07 683.561 C 1595.51 693.631 1603.09 719.046 1605.09 730.995 A 396.453 396.453 0 0 1 1603.42 877.837 C 1595.35 884.264 1586.03 889.632 1577.39 895.297 C 1583.84 852.829 1587.98 774.664 1571.48 735.591 C 1569.78 756.99 1571.9 779.428 1571.92 800.938 C 1571.96 836.082 1569.08 869.938 1563.82 904.669 C 1553.14 912.527 1541.8 919.462 1530.61 926.566 C 1542.41 883.895 1539.04 834.257 1522.39 793.184 C 1521.27 790.414 1520.58 789.503 1517.82 788.451 L 1516.22 789.433 C 1515.29 792.167 1515.33 794.251 1515.65 797.114 C 1516.53 804.836 1518.89 812.513 1520.09 820.219 A 378.327 378.327 0 0 1 1523.91 864.757 C 1524.59 889.728 1520.97 912.218 1516.47 936.618 C 1505.26 942.606 1494.35 949.142 1483.36 955.527 C 1491.84 922.489 1491.44 888.285 1484.03 855.111 C 1482.62 848.833 1481.68 841.116 1478.75 835.349 C 1477.61 833.097 1476.92 832.217 1474.51 831.552 C 1472.53 833.021 1471.75 833.314 1471.4 835.946 C 1470.83 840.204 1476.29 865.607 1476.9 872.18 C 1479.86 904.42 1476.61 930.529 1470.85 962.15 C 1458.38 969.874 1445.39 976.983 1432.52 984.014 C 1442.59 954.552 1444.8 925.131 1440.99 894.268 C 1440.09 886.947 1439.25 872.934 1432.68 868.292 C 1431.03 867.125 1431.8 867.37 1429.79 867.695 C 1428.81 869.424 1428.61 870.75 1428.61 872.7 C 1428.6 879.566 1430.41 886.455 1431.01 893.293 C 1431.81 902.463 1431.38 912.114 1430.85 921.294 C 1429.42 946.023 1423.89 968.666 1417.14 992.338 A 373.595 373.595 0 0 1 1377.93 1012.7 C 1385.11 984.754 1390.14 959.205 1386.74 930.177 C 1386.03 924.155 1385.26 916.904 1382.65 911.366 C 1381.6 909.128 1380.83 908.181 1378.56 907.259 C 1373.3 909.885 1374.23 914.868 1374.6 920.063 C 1377.48 960.273 1373.82 984.341 1360.76 1022.83 A 2768.8 2768.8 0 0 0 1330.79 1035.92 C 1334.42 1023.11 1337.45 1010.34 1338.38 997.017 C 1339.51 980.778 1337.76 944.408 1326.85 931.897 C 1324.41 930.846 1324.46 930.821 1321.92 931.591 C 1318.94 936.976 1324.04 961.646 1324.62 969.015 A 227.31 227.31 0 0 1 1325.11 990.075 C 1324.73 1008.13 1320.9 1025 1316.72 1042.46 C 1303.91 1049.6 1289.66 1056.14 1276.12 1061.75 C 1282.52 1040.51 1289 990.641 1278.06 971.057 C 1276.89 968.968 1276 967.715 1273.69 966.928 C 1269.63 969.682 1271.45 982.497 1271.68 987.127 C 1273.04 1015.08 1269.23 1041.23 1261.7 1068.07 A 423.952 423.952 0 0 1 1221.05 1086.58 C 1226.88 1067.07 1230.14 1049.29 1229.81 1028.87 C 1229.67 1020.66 1227.82 990.388 1221.44 985.178 C 1220.2 984.163 1219.35 984.802 1217.91 985.081 C 1213.61 989.069 1216.7 1003.11 1217.24 1009.19 C 1219.81 1038.22 1214.31 1066.29 1205.68 1093.84 C 1193.02 1099.36 1180.88 1105.87 1168.02 1111.01 C 1175.3 1084.96 1179.06 1058.68 1173.36 1031.85 C 1172.48 1027.72 1170.89 1018.55 1167.48 1016.34 C 1165.51 1017.44 1164.75 1018.24 1164.41 1020.58 C 1163.22 1028.86 1164.61 1038.99 1164.52 1047.5 C 1164.26 1071.03 1161.25 1094.74 1153.69 1117.08 C 1141.44 1123.59 1128.19 1128.93 1115.26 1133.93 C 1118.86 1118.02 1122.36 1102.02 1122.92 1085.66 C 1123.22 1076.64 1123.46 1057.68 1117.01 1050.85 L 1115.23 1051.23 C 1111.37 1057.64 1110.84 1092.37 1108.86 1103.49 A 195.328 195.328 0 0 1 1098.25 1140.89 C 1087.68 1145.98 1076.56 1150.77 1065.33 1154.19 C 1073.44 1136.63 1076.8 1097.91 1070.5 1079.58 C 1069.7 1077.26 1069.24 1075.83 1066.95 1074.73 C 1059.99 1082.96 1061.96 1116.33 1060.03 1128.3 C 1058.33 1138.85 1055.32 1149.62 1051.79 1159.67 C 1040.55 1164.52 1028.96 1168.72 1017.55 1173.14 C 1020.52 1153.17 1024.46 1127.53 1018.06 1108.09 C 1016.84 1104.37 1015.66 1101.17 1012.07 1099.37 C 1010.09 1100.78 1010.25 1100.8 1009.95 1103.11 C 1009.09 1109.9 1010.1 1117.45 1009.92 1124.34 C 1009.43 1142.81 1007.18 1160.5 1001.97 1178.25 C 989.491 1183.21 977.039 1188.55 964.203 1192.49 C 969.677 1178.23 975.686 1154.85 971.778 1139.69 C 970.955 1136.49 969.671 1133.84 966.874 1132.14 C 965.039 1133.68 964.598 1134.37 963.874 1136.75 C 961.757 1143.71 961.387 1151.75 960.191 1158.95 C 958.487 1169.2 955.638 1178.93 952.271 1188.75 C 951.012 1191.62 949.495 1194.42 948.088 1197.23 A 622.419 622.419 0 0 1 924.601 1205.05 C 927.294 1197.38 931.631 1185.5 930.764 1177.38 C 930.409 1174.06 929.323 1171.19 926.738 1169.11 L 924.924 1169.52 C 920.573 1173.16 913.955 1200.29 910.436 1208.11 C 892.374 1214.48 873.527 1218.81 854.957 1223.4 C 859.958 1213.07 863.937 1199.07 864.868 1187.56 C 865.165 1183.9 865.248 1181.97 862.859 1179.11 L 860.883 1179.03 C 852.027 1185.75 846.382 1214.05 841.158 1225.36 L 840.439 1226.89 L 828.547 1229.66 C 834.934 1218.41 839.424 1202.08 838.525 1189.1 C 838.322 1186.16 838.048 1183.35 835.718 1181.42 C 829.223 1185.62 825.051 1207.33 821.962 1214.81 C 819.451 1220.89 816.376 1226.67 813.235 1232.44 C 794.326 1235.39 775.554 1239.61 756.602 1242.61 C 760.641 1233.35 764.005 1223.96 766.346 1214.12 C 767.605 1208.82 769.427 1198.27 766.532 1193.53 L 765.171 1193.35 C 763.407 1194.51 762.066 1195.57 761.123 1197.52 C 754.78 1210.63 750.423 1230.04 745.21 1244.29 C 740.442 1244.91 735.567 1244.95 730.764 1245.16 C 734.86 1236.05 739.049 1226.9 742.086 1217.37 C 744.435 1210 747.402 1200.25 743.646 1192.98 C 742.291 1192.31 742.361 1191.93 741.192 1192.34 C 738.472 1193.29 736.184 1196.68 735.031 1199.21 C 732.733 1204.26 732.084 1210.46 730.242 1215.79 C 726.68 1226.09 721.904 1236.16 717.811 1246.27 A 546.671 546.671 0 0 1 651.57 1248.55 C 656.67 1234.45 663.355 1213.16 662.371 1198.25 C 662.207 1195.76 662.053 1194.54 660.133 1192.84 C 653.073 1193.94 646.321 1238.14 638.095 1246.16 C 636.166 1248.04 635.158 1248.21 632.566 1248.03 C 630.688 1245.8 630.144 1244.01 630.352 1241.06 C 630.752 1235.36 633.917 1229.9 635.401 1224.41 C 637.877 1215.25 639.595 1203.76 639.98 1194.26 C 640.129 1190.59 640.551 1185.76 637.893 1182.88 L 636.178 1182.92 C 632.234 1192.09 630.673 1202.86 628.135 1212.53 C 625.242 1223.56 621.581 1234.39 617.9 1245.17 C 594.701 1243.99 570.797 1241.83 548.107 1236.76 C 551.942 1218.64 557.399 1198.58 557.482 1180.06 C 557.496 1177.03 557.589 1174.86 555.396 1172.63 L 553.41 1172.81 C 551.998 1174.07 551.443 1174.96 550.839 1176.76 C 547.792 1185.83 546.414 1195.83 544.243 1205.17 C 541.917 1215.18 538.857 1224.93 535.772 1234.72 L 525.853 1232.49 C 528.841 1219.55 531.894 1206.59 533.915 1193.45 C 534.702 1188.33 536.731 1178.82 533.553 1174.46 L 532.191 1174.57 C 525.395 1182.74 516.108 1219.2 513.221 1230.45 C 494.193 1225.7 475.204 1221.13 456.289 1215.91 C 459.624 1202.87 461.825 1188.73 462.771 1175.33 C 463.246 1168.61 465.237 1148.23 461.031 1143.43 L 458.865 1143.58 C 458.117 1144.39 457.235 1145.1 456.622 1146.02 C 455.124 1148.28 450.413 1196.49 446.488 1207.12 C 445.526 1209.72 444.954 1210.45 442.497 1211.7 L 440.101 1210.78 C 438.607 1208.96 437.616 1207.52 437.535 1205.08 C 437.409 1201.26 439.3 1196.31 440.137 1192.53 C 443.531 1177.2 448.231 1157.2 444.227 1141.74 L 442.21 1140.61 L 439.969 1141.4 C 438.174 1143.77 437.358 1145.85 436.617 1148.73 C 434.379 1157.43 433.864 1166.94 432.278 1175.81 C 430.455 1186.02 427.735 1196.19 425.286 1206.26 C 406.786 1199.91 389.143 1192.69 371.306 1184.66 C 379.077 1175.12 384.887 1164.89 388.914 1153.24 C 394.816 1136.17 397.593 1114.11 389.335 1097.37 C 387.086 1095.54 386.056 1094.65 383.073 1094.26 C 379.976 1096.57 382.615 1101.86 383.514 1105.09 C 388.449 1122.87 385.364 1137.56 377.942 1154.13 C 374.891 1160.94 367.952 1175.48 360.98 1178.19 C 358.777 1177.23 356.878 1176.59 355.385 1174.6 C 364.258 1168.75 370.474 1160.78 374.659 1151.08 C 380.82 1136.8 384.961 1117.88 378.637 1103.08 C 374.2 1092.69 364.813 1084.09 354.23 1080.22 C 346.173 1077.28 337.59 1077.73 329.951 1081.67 C 321.453 1086.06 314.979 1094.59 312.092 1103.59 C 299.636 1111.94 286.485 1119.33 273.252 1126.37 C 275.426 1114.28 283.849 1076.34 280.287 1066.52 C 279.632 1064.72 280.017 1065.41 277.942 1064.43 L 275.85 1065.32 C 271.206 1073.5 265.548 1112.44 263.379 1123.92 L 252.684 1116.7 A 95.2127 95.2127 0 0 0 253.587 1113.09 C 255.845 1103.26 264.312 1058.72 260.171 1052.27 L 257.776 1052.49 C 250.503 1059.92 244.651 1097.6 242.535 1109.21 C 234.831 1103.21 226.927 1097.37 220.072 1090.39 C 218.27 1073.14 217.165 1055.82 218.653 1038.51 C 219.175 1032.44 220.768 1026.54 221.183 1020.46 C 221.421 1016.96 221.839 1013.31 219.465 1010.54 C 218.233 1011.16 218.081 1011.05 217.291 1012.02 C 206.32 1025.57 206.657 1062.98 207.974 1079.45 L 200.126 1071.22 C 199.823 1063.52 199.66 1055.73 200.116 1048.03 C 200.508 1041.41 201.781 1034.64 201.351 1028 C 201.15 1024.89 200.732 1022.69 198.361 1020.61 L 196.325 1021.7 C 190.277 1032.01 190.28 1050.01 189.956 1061.9 C 180.337 1050.97 169.75 1038.79 163.298 1025.7 C 163.849 1019.52 171.851 970.834 171.483 969.661 C 171.289 969.043 170.845 968.532 170.527 967.968 C 169.125 967.818 168.345 967.386 167.112 968.256 C 159.569 973.577 155.117 1002.48 153.665 1011.83 C 149.847 1005.9 145.347 1000.8 142.653 994.196 C 145.513 981.939 149.486 969.798 152.919 957.683 C 146.41 965.393 142.387 974.202 138.009 983.189 C 119.872 936.592 131.552 881.91 148.686 836.613 C 147.5 844.966 146.603 853.382 146.889 861.831 C 148.186 900.155 177.502 931.149 203.968 955.79 C 265.612 1013.18 342.502 1053.05 418.815 1086.98 C 438.884 1095.9 458.925 1105.01 479.397 1112.97 C 620.666 1167.94 767.828 1184.93 900.805 1097.48 C 957.221 1060.39 1004.47 1012.48 1052.93 965.938 C 1111.63 909.568 1169.38 852.32 1228.83 796.729 C 1333.38 698.966 1457.48 582.055 1608.8 576.451 z"/>
<path transform="translate(0,0)" fill="rgb(16,16,16)" d="M 1276.32 816.598 C 1277.58 816.699 1279.18 816.72 1280.4 817.141 C 1282.91 818.001 1283.83 819.423 1284.99 821.635 C 1285.02 823.792 1284.77 825.376 1283.82 827.304 C 1277.13 840.969 1227.2 890.44 1212.86 904.75 C 1167.31 950.206 1122.8 996.571 1074.13 1038.8 C 1044.96 1064.12 1013.84 1087.49 982.359 1109.85 C 960.733 1125.21 938.785 1142.03 913.23 1150.2 C 910.878 1150.11 908.54 1150.14 906.74 1148.31 C 905.779 1147.33 904.9 1145.98 904.928 1144.57 C 904.991 1141.44 906.94 1139.26 909.146 1137.28 C 918.807 1128.61 931.12 1122.02 942.063 1115.11 A 2033.85 2033.85 0 0 0 987.042 1085.75 C 1020.54 1062.9 1051.38 1035.96 1081.8 1009.23 C 1128.14 968.503 1172.29 923.423 1215.31 879.225 C 1235.46 858.526 1254.59 835.592 1276.32 816.598 z"/>
<path transform="translate(0,0)" fill="rgb(16,16,16)" d="M 1463.74 660.38 C 1479.25 658.464 1498.79 661.113 1511.91 670.068 C 1520.07 675.633 1525.58 683.799 1527.32 693.555 C 1532.24 721.19 1504.63 760.575 1488.62 782.382 C 1457.67 824.525 1417.7 856.206 1364.94 864.297 C 1349.06 865.607 1331.33 863.375 1318.13 853.736 C 1307.92 846.284 1301.26 833.534 1299.48 821.163 C 1295.81 795.793 1310.27 767.684 1325.42 748.363 C 1355.59 709.905 1414.9 666.16 1463.74 660.38 z"/>
<path transform="translate(0,0)" fill="rgb(254,254,254)" d="M 1463.53 675.258 C 1475.83 673.837 1491.26 673.843 1501.65 681.437 C 1507.26 685.537 1510.6 691.61 1511.41 698.481 C 1514.19 722.06 1486.45 763.092 1472.24 781.368 C 1444.22 817.402 1407.3 844.925 1361.25 850.591 C 1350.28 851.579 1336.01 849.326 1326.87 843.126 C 1319.7 838.271 1315.33 829.306 1313.93 820.95 C 1310.52 800.602 1321.17 778.577 1332.51 762.358 C 1358.26 725.527 1419.1 682.971 1463.53 675.258 z"/>
<path transform="translate(0,0)" fill="rgb(16,16,16)" d="M 1346.4 784.665 C 1348.79 790.769 1342.86 796.146 1347.75 803.385 C 1354.65 813.597 1372.82 808.089 1382.69 810.388 L 1382.52 811.451 L 1379.16 813.646 C 1368.53 816.28 1357.16 817.966 1347.28 811.887 C 1343.52 809.573 1340.79 806.308 1340.06 801.874 C 1339.12 796.134 1342.96 788.931 1346.4 784.665 z"/>
<path transform="translate(0,0)" fill="rgb(16,16,16)" d="M 1362.06 745.005 L 1362.32 745.288 C 1362.38 745.815 1362.58 746.344 1362.5 746.868 C 1362.4 747.528 1337.07 778.178 1333.45 797.53 C 1332.22 804.136 1331.59 812.354 1335.89 818.058 C 1339.81 823.253 1346.36 824.758 1352.46 825.568 C 1385.62 829.97 1422.46 807.441 1447.03 787.251 C 1456.71 779.294 1465.37 770.07 1475.25 762.398 L 1476.43 763.031 C 1476.2 766.62 1474.05 769.395 1472.24 772.386 A 178.372 178.372 0 0 1 1446.3 798.363 C 1421.89 818.532 1385.44 839.89 1352.34 836.196 C 1343.31 835.189 1335.21 831.511 1329.51 824.272 C 1324.02 817.31 1323.39 807.934 1324.72 799.468 C 1327.94 778.998 1345.61 756.853 1362.06 745.005 z"/>
<path transform="translate(0,0)" fill="rgb(254,254,254)" d="M 787.122 288.936 C 803.954 285.67 879.554 297.988 900.695 301.92 C 1054.75 330.576 1193.06 380.135 1311.71 485.598 C 1338.69 509.573 1365.88 535.723 1386.38 565.587 C 1365.91 579.394 1345.35 593.019 1326.03 608.423 C 1243.02 674.624 1134.49 776.153 1076.58 864.331 C 1067.23 878.566 1057.46 893.183 1052.7 909.666 C 1069.95 895.807 1093.76 863.237 1109.39 845.327 C 1148.84 800.118 1188.51 755.66 1232.08 714.349 C 1312.84 637.778 1425.02 541.797 1536.3 519.228 C 1555.95 515.243 1575.67 514.19 1595.67 514.787 C 1642.43 516.18 1689 535.168 1721.19 569.637 C 1735.85 585.332 1753.23 612.696 1753.38 634.909 C 1753.45 644.508 1751 654.557 1750.68 664.355 C 1747.52 652.529 1742.83 640.82 1737.17 629.975 C 1721.6 600.138 1696.19 583.661 1664.51 573.975 C 1643.54 567.566 1621.81 565.281 1599.96 565.026 C 1534.78 564.267 1483.58 584.468 1427.31 614.672 C 1402.06 630.293 1377.35 646.252 1353.58 664.115 C 1301.25 703.45 1253.82 748.453 1206.29 793.288 L 1074.4 919.45 C 1045.81 947.001 1017.48 974.695 988.386 1001.72 C 944.533 1042.46 900.292 1080.78 845.368 1106.03 C 730.338 1158.9 613.43 1143.37 498.094 1100.93 C 456.52 1085.64 414.162 1068.1 374.633 1048.03 C 319.286 1019.93 198.732 946.865 172.908 889.85 C 157.824 856.546 167.383 815.574 180.032 783.002 C 204.29 720.535 251.143 667.988 297.294 620.621 C 309.403 608.193 321.372 595.491 334.173 583.769 C 361.695 558.57 390.724 535.446 419.87 512.209 A 1717.43 1717.43 0 0 1 528.083 431.347 A 2112.25 2112.25 0 0 1 658.877 350.949 C 700.376 327.73 743.66 308.127 787.122 288.936 z"/>
<path transform="translate(0,0)" fill="rgb(16,16,16)" d="M 553.909 1033.24 C 558.65 1035.59 560.505 1042.92 570.377 1047.7 C 586.465 1055.5 605.803 1057.69 621.106 1066.64 L 621.4 1068.48 C 605.174 1065.26 588.669 1062.09 573.045 1056.55 C 566.004 1054.06 556.067 1050.08 552.963 1042.71 C 551.485 1039.2 552.606 1036.52 553.909 1033.24 z"/>
<path transform="translate(0,0)" fill="rgb(16,16,16)" d="M 590.38 423.09 L 590.494 423.748 C 589.722 426.442 587.398 428.293 585.345 430.081 C 573.363 440.512 560.323 449.902 548.04 460.002 L 449.975 540.246 C 449.805 539.563 449.717 539.532 449.917 538.771 C 453.414 525.447 539.223 458.016 557.252 444.898 C 567.928 437.129 579.298 430.262 590.38 423.09 z"/>
<path transform="translate(0,0)" fill="rgb(16,16,16)" d="M 316.244 959.158 A 688.946 688.946 0 0 1 323.131 938.588 C 325.52 931.747 330.475 911.609 336.869 908.525 C 338.642 910.002 339.025 910.25 339.083 912.633 C 339.221 918.292 322.594 960.819 318.815 964.347 C 317.779 965.314 315.918 965.456 314.545 965.412 C 301.871 965.009 260.958 939.745 251.656 930.371 C 248.868 927.563 246.662 924.576 246.663 920.455 C 261.374 932.072 275.905 939.481 292.846 947.084 C 293.135 946.865 293.426 946.648 293.712 946.426 C 301.691 940.223 310.727 925.484 316.601 921.945 C 317.545 924.074 316.499 926.424 315.712 928.576 C 312.213 938.136 305.627 945.715 297.602 951.754 C 303.54 954.858 309.947 956.913 316.244 959.158 z"/>
<path transform="translate(0,0)" fill="rgb(16,16,16)" d="M 870.95 708.718 C 873.35 709.017 873.843 708.959 875.676 710.477 C 874.339 715.572 769.294 812.023 756.04 824.337 L 754.138 825.485 L 753.477 823.869 C 761.46 805.388 850.698 722.131 870.95 708.718 z"/>
<path transform="translate(0,0)" fill="rgb(16,16,16)" d="M 281.756 683.002 L 282.461 683.625 C 276.327 694.204 267.647 703.862 260.437 713.776 C 235.891 747.526 211.294 786.412 208.138 829.05 C 207.354 839.643 207.242 851.726 210.071 862.059 C 211.44 867.061 216.535 876.934 215.194 881.758 L 212.563 881.56 C 202.159 869.688 199.874 853.623 199.923 838.388 C 200.118 778.302 240.937 723.579 281.756 683.002 z"/>
<path transform="translate(0,0)" fill="rgb(16,16,16)" d="M 577.548 976.834 C 578.546 978.337 578.712 978.658 577.725 980.331 C 575.64 983.864 571.371 987.293 568.663 990.51 C 560.005 1000.79 527.074 1039.07 527.239 1049.4 C 537.055 1063.39 613.165 1080.1 632.193 1083.9 C 644.545 1086.37 667.203 1088.22 677.614 1094.37 C 675.247 1095.19 672.665 1095.2 670.176 1095.42 C 664.887 1095.34 659.648 1095.12 654.387 1094.54 C 628.344 1091.66 533.31 1072.72 519.022 1053.21 C 517.337 1050.91 517.157 1049.08 517.746 1046.38 C 520.912 1031.91 564.773 985.115 577.548 976.834 z"/>
<path transform="translate(0,0)" fill="rgb(16,16,16)" d="M 650.823 365.945 L 652.724 365.855 L 653.168 367.139 C 647.824 374.612 631.982 384.257 623.977 389.98 C 594.571 411.001 563.801 430.241 534.752 451.743 A 5972.65 5972.65 0 0 0 475.524 496.374 C 461.904 506.926 448.693 518.113 434.539 527.944 L 432.504 527.289 C 432.58 526.985 432.621 526.671 432.73 526.377 C 440.769 504.615 588.063 402.504 615.325 385.237 C 626.812 377.961 638.146 371.002 650.823 365.945 z"/>
<path transform="translate(0,0)" fill="rgb(16,16,16)" d="M 1334.53 582.855 L 1336.5 584.813 L 1336.5 586.908 C 1325.32 598.725 1310.76 608.988 1298.34 619.631 C 1271.76 642.418 1245.1 665.705 1219.97 690.084 C 1200.91 708.584 1181.39 726.911 1162.9 745.975 C 1111.8 798.646 1062.49 853.572 1009.68 904.525 L 1008.59 904.746 L 1008.33 903.406 C 1020.15 883.453 1043.11 861.274 1059.12 843.738 A 2612.6 2612.6 0 0 1 1269.06 634.709 C 1288.67 617.395 1311.52 595.049 1334.53 582.855 z"/>
<path transform="translate(0,0)" fill="rgb(16,16,16)" d="M 1013.61 402.416 C 1030.88 401.635 1048.5 401.928 1063.5 411.734 C 1071.63 417.05 1077.11 424.19 1078.9 433.853 C 1081.47 447.763 1076.28 463.017 1069.86 475.241 C 1059.95 494.091 1045.94 511.317 1032.57 527.809 C 988.263 582.443 936.668 632.879 884.839 680.333 C 873.88 690.368 862.289 699.71 851.302 709.725 A 6190.49 6190.49 0 0 1 679.65 861.177 C 635.472 898.321 589.641 933.801 546.408 972.063 C 536.749 980.611 527.79 989.934 518.347 998.72 C 500.104 1015.69 480.508 1031.98 465.879 1052.31 C 469.41 1054.42 473.152 1056.22 476.809 1058.1 C 485.896 1047.5 494.216 1036.29 503.552 1025.86 C 517.814 1009.92 578.489 946.22 596.023 945.249 L 597.018 946.338 C 594.768 952.796 583.307 960.929 578.008 965.813 C 559.843 982.557 541.824 999.88 524.824 1017.82 C 511.221 1032.17 498.4 1047.24 484.451 1061.27 C 525.409 1080.84 574.111 1091.22 618.43 1099.65 A 418.836 418.836 0 0 0 685.75 1107.47 C 736.378 1108.75 798.245 1099.41 844.565 1078.84 C 863.668 1070.36 880.492 1059.17 897.687 1047.46 L 898.792 1048.67 C 898.586 1049.73 898.605 1049.9 898.08 1051.03 C 890.617 1067.1 850.593 1087.31 834.478 1093.67 C 775.317 1117.04 703.887 1123.29 641.148 1115.31 C 620.26 1112.66 598.997 1107.52 578.449 1102.9 C 546.029 1095.62 513.264 1087.01 482.701 1073.78 C 474.086 1070.06 455.208 1062.9 451.518 1053.57 C 453.541 1039.6 506.441 992.403 518.684 980.636 L 518.172 979.345 C 501.472 985.902 486.824 989.958 468.808 987.022 C 445.512 983.225 416.288 970.227 402.533 950.214 C 386.043 926.223 394.845 891.992 399.277 865.437 C 387.352 886.211 376.177 908.334 365.942 930.001 C 359.542 943.549 340.948 990.382 333.664 998.794 C 332.358 1000.3 330.628 1000.41 328.757 1000.06 C 323.876 999.143 318.504 993.162 313.993 990.736 C 274.401 969.449 218.383 935.226 194.263 896.824 C 177.223 869.694 175.8 838.75 183.042 808.065 A 226.667 226.667 0 0 1 205.007 751.609 C 227.718 710.795 294.214 631.156 332.571 607.675 C 321.466 622.707 302.443 640.264 289.324 654.5 C 254.841 691.918 220.108 736.69 200.583 784.039 C 189.082 811.926 183.015 848.314 195.149 876.976 C 199.864 888.114 206.765 898.114 214.854 907.06 C 238.796 933.538 288.773 968.593 321.522 982.078 C 326.111 974.488 329.624 965.981 333.482 957.986 C 341.685 940.989 349.671 923.793 358.377 907.05 C 391.685 842.994 429.555 782.556 476.637 727.634 C 511.622 686.822 550.649 646.445 591.96 612.022 C 641.603 570.656 694.493 536.917 750.222 504.509 C 830.513 457.816 919.205 409.638 1013.61 402.416 z"/>
<path transform="translate(0,0)" fill="rgb(254,254,254)" d="M 1018.75 417.438 C 1027.4 416.99 1036.27 416.702 1044.79 418.62 C 1051.43 420.117 1058.28 423.154 1061.79 429.331 C 1065.43 435.75 1064.26 443.22 1062.26 449.952 C 1049.58 492.595 956.527 586.032 922.982 618.486 C 904.757 636.119 885.698 652.849 867.173 670.16 C 846.684 689.307 826.536 708.888 805.538 727.478 A 6483.12 6483.12 0 0 1 632.945 874.059 A 4167.18 4167.18 0 0 0 580.35 918.526 C 561.44 934.665 542.154 952.262 520.199 964.169 C 500.374 974.922 483.961 978.909 461.755 972.29 C 448.881 967.448 435.107 962.128 424.334 953.329 C 414.78 945.526 409.846 936.417 408.81 924.103 C 407.783 911.891 408.799 899.061 410.414 886.942 C 416.572 840.741 435.374 810.955 463.405 774.853 A 1192.34 1192.34 0 0 1 498.93 730.816 C 527.001 698.082 563.046 661.132 595.963 633.25 C 623.736 609.725 652.938 587.089 682.941 566.509 C 705.195 551.245 728.751 537.968 751.955 524.226 C 831.528 477.098 924.756 424.569 1018.75 417.438 z"/>
<path transform="translate(0,0)" fill="rgb(16,16,16)" d="M 472.166 859.661 C 473.527 863.962 473.842 869.019 474.925 873.497 C 479.933 894.196 488.251 895.43 504.32 905.205 L 504.555 907.168 C 501.6 907.129 498.513 907.238 495.637 906.465 C 486.694 904.061 478.564 897.189 474.299 889.047 C 469.597 880.071 469.292 869.253 472.166 859.661 z"/>
<path transform="translate(0,0)" fill="rgb(16,16,16)" d="M 474.584 820.792 C 475.14 825.109 463.02 858.922 462.215 870.683 C 461.236 884.996 465.714 897.893 476.904 907.203 C 480.134 909.891 483.814 911.772 486.594 914.99 C 484.389 916.16 482.349 915.277 479.931 914.894 C 477.148 913.933 474.422 912.917 471.87 911.426 C 462.622 906.024 456.923 896.711 454.602 886.436 C 449.22 862.614 462.03 839.955 474.584 820.792 z"/>
<path transform="translate(0,0)" fill="rgb(16,16,16)" d="M 916.098 462.321 C 929.801 461.171 943.161 462.53 955.089 470.087 C 965.874 476.921 973.856 488.071 976.32 500.65 C 978.765 513.137 974.689 526.027 967.321 536.152 C 956.577 550.917 940.596 557.029 923.24 559.685 C 909.273 560.84 894.673 559.555 882.914 551.154 C 872.856 543.968 864.587 531.425 862.637 519.164 C 860.743 507.253 864.827 495.528 871.718 485.897 C 882.559 470.746 898.503 465.038 916.098 462.321 z"/>
<path transform="translate(0,0)" fill="rgb(254,254,254)" d="M 919.909 472.356 C 930.125 471.64 940.876 473.587 949.596 479.179 C 957.12 484.004 962.559 491.445 964.356 500.252 C 966.309 509.824 963.577 519.524 958.153 527.497 C 949.013 540.93 935.722 545.61 920.497 548.185 C 908.338 548.281 896.826 547.253 886.643 539.711 C 879.455 534.387 874.952 526.709 873.695 517.859 A 35.3886 35.3886 0 0 1 880.623 491.292 C 889.936 479.174 905.321 474.171 919.909 472.356 z"/>
<path transform="translate(0,0)" fill="url(#Gradient1)" d="M 905.279 483.888 L 906.011 484.219 L 906.126 485.392 A 126.129 126.129 0 0 0 900.112 489.445 C 892.898 494.637 884.602 504.032 883.554 513.282 C 883.096 517.328 884.368 521.109 887.03 524.167 C 893.185 531.239 904.395 534.342 913.417 534.838 C 937.938 536.185 938.251 528.05 953.954 514.488 L 954.957 515.095 L 954.626 519.412 C 951.17 527.724 945.941 533.35 937.808 537.442 C 927.04 542.861 912.569 543.803 901.145 539.99 C 892.907 537.24 885.974 531.836 882.311 523.852 C 879.317 517.326 878.65 509.561 881.522 502.882 C 885.782 492.975 895.654 487.463 905.279 483.888 z"/>
<path transform="translate(0,0)" fill="rgb(16,16,16)" d="M 782.959 533.386 C 788.595 532.959 794.077 532.889 799.713 533.373 C 826.692 535.692 853.032 547.562 870.564 568.571 C 879.876 579.73 885.45 593.062 884.101 607.837 C 882.061 630.173 869.97 653.962 852.628 668.182 C 861.706 643.123 879.849 620.754 870.84 592.414 C 865.603 575.939 851.184 561.965 836.196 553.992 C 814.078 542.225 786.543 539.357 762.594 546.721 C 722.722 558.98 674.955 591.747 643.31 618.648 C 613.736 643.789 587.379 673.984 561.683 702.99 C 540.927 726.419 520.871 749.933 501.513 774.544 C 485.69 794.662 470.643 814.008 458.517 836.671 C 449.804 854.638 443.16 876.754 448.869 896.645 C 451.63 906.266 457.181 914.938 466.145 919.795 C 491.852 933.721 528.963 921.096 554.792 913.64 C 542.293 927.35 524.994 934.208 506.818 936.477 C 488.684 938.741 465.501 937.444 450.779 925.489 C 439.491 916.322 434.523 902.548 433.015 888.493 C 427.498 837.115 469.067 786.759 499.199 749.219 C 530.51 710.21 567.461 670.319 604.738 637.017 C 618.477 624.743 633.402 614.269 648.307 603.487 C 684.111 577.587 738.372 538.243 782.959 533.386 z"/>
<path transform="translate(0,0)" fill="rgb(16,16,16)" d="M 758.066 568.376 C 774.81 567.249 791.937 572.754 805.27 582.888 C 818.96 593.291 826.256 607.679 828.388 624.558 C 831.363 648.098 826.707 686.973 811.128 705.9 C 802.489 716.396 790.319 725.855 780.246 735.037 C 749.276 763.27 706.365 804.663 668.703 823.271 C 654.141 830.466 639.211 833.662 623.136 834.94 A 82.3372 82.3372 0 0 1 570.775 816.81 C 559.012 807.432 551.649 795.822 550.123 780.625 C 546.744 746.978 568.199 703.134 588.795 677.771 C 619.095 640.457 659.116 612.025 701.135 589.438 C 718.939 579.867 737.702 570.409 758.066 568.376 z"/>
<path transform="translate(0,0)" fill="rgb(254,254,254)" d="M 738.643 696.01 L 740.177 696.23 C 739.847 697.104 716.066 715.904 712.491 719.203 C 686.149 743.507 670.42 768.701 669.009 804.968 L 658.353 810.58 C 658.109 810.28 657.812 810.017 657.621 809.681 C 653.204 801.907 660.489 781.593 663.617 773.739 C 676.835 740.545 705.741 710.06 738.643 696.01 z"/>
<path transform="translate(0,0)" fill="rgb(254,254,254)" d="M 741.978 619.025 C 749.55 618.866 756.914 621.934 763.441 625.52 C 777.589 633.292 797.917 650.52 802.647 666.499 L 801.7 667.904 C 791.124 667.766 780.793 668.811 770.316 670.154 C 766.705 656.814 759.758 645.292 751.779 634.155 C 748.34 629.355 744.144 624.532 741.978 619.025 z"/>
<path transform="translate(0,0)" fill="rgb(254,254,254)" d="M 757.078 577.239 C 770.514 575.451 784.919 578.889 795.812 587.065 C 809.172 597.094 812.744 611.045 815.195 626.61 C 812.921 622.422 810.638 618.199 807.952 614.258 C 794.445 594.445 777.85 585.153 754.593 580.679 C 764.573 585.942 774.835 590.902 783.651 598.025 C 801.51 612.455 808.53 630.255 810.824 652.632 L 805.076 636.37 C 803.977 633.728 802.859 631.08 801.545 628.536 C 791.192 608.495 773.81 597.057 752.856 590.289 C 768.145 603.568 781.645 609.695 793.361 627.217 A 146.058 146.058 0 0 0 767.951 608.728 C 763.927 606.448 756.308 603.819 753.128 600.89 C 749.828 597.851 750.478 593.173 745.613 590.825 L 744.468 591.513 L 744.591 595.595 C 741.384 596.443 736.637 594.66 733.18 594.493 C 727.906 594.238 721.022 595.799 716.057 594.318 C 724.808 584.667 744.845 579.842 757.078 577.239 z"/>
<path transform="translate(0,0)" fill="rgb(254,254,254)" d="M 793.926 688.977 L 797.737 689.431 L 798.473 690.932 C 790.378 707.081 710.766 773.145 692.572 788.591 C 690.803 789.651 691.76 789.419 689.705 789.293 C 688.881 784.397 692.77 776.858 694.866 772.448 C 712.788 734.741 755.151 702.612 793.926 688.977 z"/>
<path transform="translate(0,0)" fill="rgb(254,254,254)" d="M 730.135 617.562 C 736.561 620.107 760.966 663.042 765.482 671.272 C 736.441 680.994 710.684 694.783 689.154 716.893 C 659.997 746.836 645.475 775.009 646.1 816.94 C 638.651 819.254 631.434 820.99 623.595 821.161 C 608.759 821.485 592.636 815.432 581.963 804.954 C 571.928 795.103 569.812 784.562 569.501 771.135 C 574.412 782.132 580.312 795.366 589.955 803.108 C 593.715 802.654 591.067 800.943 593.535 798.725 L 597.724 801.451 L 598.272 801.039 C 593.822 795.876 589.044 790.988 585.308 785.262 C 580.352 777.666 576.761 769.38 571.553 761.891 C 573.167 745.169 579.166 731.125 586.912 716.405 C 606.112 728.823 622.322 742.939 639.329 758.086 C 628.414 740.645 614.37 728.835 599.922 714.723 C 601.222 713.02 600.696 713.98 601.437 711.809 L 599.476 709.849 C 595.876 709.454 596.909 711.8 593.838 713.178 L 591.258 710.776 C 591.112 708.266 592.215 706.96 593.333 704.769 C 597.533 697.577 603.243 691.278 608.851 685.177 C 630.076 695.632 644.423 712.757 659.474 730.386 C 647.74 709.707 634.638 689.572 612.457 678.97 C 617.269 672.593 622.938 667.008 629.034 661.876 C 651.918 667.209 667.405 685.368 685.754 698.51 L 686.665 699.152 C 671.653 680.843 657.03 665.285 635.523 654.559 C 643.037 648.672 650.589 643.212 658.559 637.952 C 677.756 649.526 692.555 661.47 707.459 678.085 C 699.387 657.102 684.967 645.533 666.967 632.944 C 674.945 629.185 683.28 626.932 691.734 624.554 C 712.392 637.007 726.83 656.14 743.874 672.591 L 744.541 673.227 C 734.883 652.966 720.272 634.419 701.298 622.169 C 710.878 620.017 720.354 618.447 730.135 617.562 z"/>
<path transform="translate(0,0)" fill="rgb(16,16,16)" d="M 594.972 723.916 C 594.529 732.813 587.379 741.762 586.02 750.906 C 581.995 777.991 616.084 787.6 627.233 803.467 L 626.644 803.746 L 622.531 801.998 C 610.766 796.611 600.571 790.417 591.29 781.265 C 583.958 774.036 577.602 765.044 577.785 754.31 C 578.001 741.633 586.579 732.368 594.972 723.916 z"/>
</svg>