<svg version="1.1" xmlns="http://www.w3.org/2000/svg" style="display: block;" viewBox="0 0 2048 2048" width="1024" height="1024">
<path transform="translate(0,0)" fill="rgb(254,254,254)" d="M 0 0 L 2048 0 L 2048 2048 L 0 2048 L 0 0 z"/>
<path transform="translate(0,0)" fill="rgb(0,0,0)" d="M 1661.42 970.274 C 1670.85 969.518 1678.93 972.167 1686.61 977.635 C 1712.57 996.125 1726.32 1031.63 1731.55 1061.81 C 1743.92 1053.53 1758.67 1050.08 1773.35 1048.82 C 1799.17 1046.59 1833.91 1052.02 1854.09 1069.64 C 1859.35 1074.23 1864.06 1080.81 1864.35 1088.02 C 1864.89 1101.46 1853.36 1116.02 1844.55 1125.3 C 1833.64 1136.8 1816.49 1151.02 1800.77 1154.73 C 1794.53 1156.2 1787.26 1155.79 1780.86 1155.92 C 1785.15 1160.36 1789.5 1164.81 1793.48 1169.54 C 1809.71 1188.83 1820.32 1210.17 1817.81 1235.97 C 1816.93 1245.1 1814.55 1258.46 1806.85 1264.25 C 1800.29 1269.19 1790.52 1269.39 1782.74 1268.3 C 1754.34 1264.35 1722.59 1246.97 1705.12 1224.13 C 1696.76 1246.58 1686.62 1259.18 1669.21 1275.21 C 1668 1295.32 1664.04 1315.71 1661.21 1335.67 C 1657.06 1365.02 1653.44 1394.56 1648.2 1423.74 C 1676.31 1377.05 1703.46 1321.5 1744.79 1284.73 C 1748.39 1281.53 1752.03 1278.79 1757.04 1279.07 C 1758.5 1280.02 1759.26 1280.18 1760.02 1281.86 C 1761.68 1285.54 1760.79 1289.31 1759.75 1293.02 C 1755.99 1306.36 1749.13 1319.79 1744.37 1332.93 C 1734.97 1358.85 1726.81 1385.08 1718.84 1411.46 C 1731.36 1404.08 1745.22 1398.16 1759.09 1393.88 C 1797.04 1382.17 1840.76 1385.53 1875.95 1404.12 C 1912.93 1423.64 1940.87 1454.36 1961.84 1490 C 1965.96 1496.99 1971.17 1504.7 1973.34 1512.54 C 1974.24 1515.83 1974.37 1518.21 1972.67 1521.29 C 1969.3 1523.06 1967.1 1523.16 1963.47 1521.97 C 1952.78 1518.47 1942.35 1510.84 1931.89 1506.22 A 284.064 284.064 0 0 0 1814.47 1481.5 C 1833.31 1493.98 1852.2 1507.43 1868.05 1523.62 C 1915.36 1571.96 1939.41 1629.69 1951.12 1695.35 C 1953.34 1707.82 1957.1 1722.17 1956.67 1734.83 C 1956.55 1738.44 1956.05 1741.22 1953.39 1743.74 C 1950.88 1743.79 1949.16 1742.49 1947.35 1740.89 C 1940.58 1734.92 1935.91 1725.64 1930.67 1718.31 A 232.14 232.14 0 0 0 1909.45 1692.89 C 1897.78 1680.95 1885.85 1668.83 1872.9 1658.27 C 1853.22 1642.22 1832.18 1627.91 1812.52 1611.71 C 1817.08 1625.57 1821.72 1639.46 1825 1653.69 C 1839.2 1715.1 1835.2 1779.84 1822.29 1840.96 C 1820.17 1850.98 1818.88 1864.85 1813.44 1873.61 C 1811.3 1874.92 1809.3 1875.64 1806.73 1875.2 C 1803.85 1874.72 1803.02 1872.52 1802.12 1870.05 C 1798.11 1859 1795.78 1846.92 1792.32 1835.61 C 1782.27 1802.79 1771.39 1772.2 1755.77 1741.56 A 436.769 436.769 0 0 0 1744.52 1790.1 C 1739.53 1819.43 1738.22 1865.73 1713.9 1885.99 C 1686.8 1908.58 1615.52 1910.17 1580.97 1907.33 C 1578.22 1915.4 1575.94 1924.7 1571.96 1932.24 C 1570.18 1935.6 1568.54 1937.77 1564.86 1938.93 L 1562.58 1937.74 C 1556.17 1928.78 1555.63 1912.49 1554.35 1901.69 C 1539.5 1894.4 1525.56 1891.55 1513.5 1879.18 C 1498.68 1859.57 1490.61 1801.68 1485.43 1776.52 C 1473.15 1794.21 1462.43 1811.85 1453.53 1831.51 C 1448.63 1842.33 1445.06 1854.92 1438.93 1865.03 C 1437.28 1867.75 1436.21 1868.46 1433.15 1869.16 C 1430.74 1867.73 1429.74 1866.84 1428.6 1864.23 C 1424.37 1854.6 1426.55 1837.95 1426.67 1827.2 C 1427.38 1764.6 1433.79 1711.06 1458.72 1653.11 C 1433.93 1675.75 1413.3 1703.19 1396.29 1732.05 C 1390.14 1742.48 1384.55 1757.71 1376.61 1766.57 C 1374.87 1768.52 1373.13 1769.3 1370.52 1769.37 C 1368.47 1768.18 1368.22 1767.7 1367.41 1765.41 C 1365.03 1758.7 1367.91 1746.84 1369.16 1739.94 C 1377.64 1693.33 1393.52 1647.41 1413.42 1604.5 C 1398.07 1611 1381.96 1615.61 1366.6 1622.21 C 1337.43 1634.73 1309.52 1651.23 1282.41 1667.67 C 1267.08 1676.97 1242.25 1700.26 1229.62 1705.57 C 1227.24 1704.98 1227.18 1704.92 1225.61 1703.03 C 1223.65 1693.69 1230.49 1682.55 1234.81 1674.55 C 1269.64 1610.03 1317.02 1542.67 1382.54 1506.39 C 1399.87 1496.8 1418.24 1490.08 1437.15 1484.39 C 1403.59 1476.84 1367.5 1474.81 1333.84 1482.99 C 1323.31 1485.55 1312.03 1489.01 1302.09 1493.28 C 1292.46 1497.41 1274.6 1512.68 1264.59 1511.07 C 1262.72 1510.77 1262.99 1510.48 1261.97 1509.06 C 1261.99 1507.77 1261.93 1507.81 1262.29 1506.32 C 1267.07 1486.72 1322.87 1441.36 1341.19 1428.91 C 1390.3 1395.54 1445.04 1379.69 1503.88 1391.08 C 1494.12 1378.96 1485.12 1366.24 1475.23 1354.21 A 856.303 856.303 0 0 0 1418.54 1292.94 C 1413.67 1288.14 1374.63 1253.92 1374.43 1253.53 C 1373.16 1251.17 1373.88 1249.7 1374.56 1247.36 C 1375.58 1246.29 1376.53 1245.35 1377.94 1244.8 C 1396.74 1237.49 1471.19 1263.78 1488.44 1271.88 C 1550.15 1300.85 1600.38 1353.56 1623.41 1418.01 A 6326.73 6326.73 0 0 0 1640.47 1292.77 C 1635.9 1294.63 1631.14 1296.3 1626.22 1296.86 C 1618.24 1297.78 1610.94 1295.71 1604.77 1290.55 C 1590.43 1278.55 1582.39 1253.73 1580.62 1235.66 C 1578.21 1211.15 1583.65 1188.23 1599.3 1169.03 A 151.879 151.879 0 0 1 1550.78 1160.54 C 1533.93 1154.48 1514.36 1142.45 1506.77 1125.52 A 41.2244 41.2244 0 0 1 1505.97 1094.22 C 1510.72 1081.79 1531.45 1072.6 1543.16 1067.71 C 1573.34 1055.1 1602.29 1061.41 1631.43 1073.23 C 1626.33 1046.43 1625.29 1011.49 1639.55 987.04 C 1644.82 977.996 1651.38 972.95 1661.42 970.274 z"/>
<path transform="translate(0,0)" fill="rgb(254,254,254)" d="M 1679.93 1108.56 C 1687.55 1113.6 1696.1 1123.08 1699.82 1131.49 C 1701.53 1135.37 1700.68 1137.62 1699.18 1141.29 C 1697.34 1142.07 1696.17 1142.43 1694.12 1142.38 C 1690.8 1142.29 1687.8 1140.38 1685.72 1137.91 C 1679.1 1130.08 1679.47 1118.18 1679.93 1108.56 z"/>
<path transform="translate(0,0)" fill="rgb(254,254,254)" d="M 1618.38 1556.9 C 1623.29 1559.33 1631.99 1571.83 1636.64 1576.66 C 1626.32 1574.65 1615.71 1574.13 1605.24 1573.29 C 1598.27 1572.85 1591.13 1573.11 1584.13 1573.09 C 1595.71 1567.97 1607.9 1564.17 1618.38 1556.9 z"/>
<path transform="translate(0,0)" fill="rgb(254,254,254)" d="M 1720.54 1359.93 C 1720.56 1366.52 1703.24 1419.87 1699.24 1427.35 C 1696.7 1432.12 1691.64 1436.43 1687.86 1440.28 C 1685.62 1430.41 1713.92 1371.17 1720.54 1359.93 z"/>
<path transform="translate(0,0)" fill="rgb(254,254,254)" d="M 1531.7 1725.92 C 1533.78 1728.96 1533.66 1753.79 1534.07 1759.01 C 1526.61 1758.44 1519.49 1757.66 1512.18 1756.04 C 1509.84 1755.46 1507.86 1754.73 1505.68 1753.71 C 1506.98 1748.24 1526.93 1730.66 1531.7 1725.92 z"/>
<path transform="translate(0,0)" fill="rgb(254,254,254)" d="M 1736.57 1313 C 1736.51 1321.45 1714.69 1354.92 1709.7 1364.98 C 1698.14 1388.25 1688.02 1411.21 1680.03 1435.97 C 1676.58 1446.68 1674.48 1457.91 1670.84 1468.5 C 1667.83 1477.25 1662.35 1485.16 1659.12 1494.02 C 1649.71 1498.19 1640.68 1503.27 1631.6 1508.1 C 1631.55 1507.61 1631.45 1507.12 1631.45 1506.63 C 1631.43 1498.87 1638.52 1485.31 1641.52 1478.03 C 1664.16 1423.15 1698.25 1358.4 1736.57 1313 z"/>
<path transform="translate(0,0)" fill="rgb(254,254,254)" d="M 1498.59 1765.79 C 1510.21 1768.85 1522.79 1770.14 1534.66 1772.11 C 1539.46 1809.84 1543.67 1846.93 1550.53 1884.38 C 1542.7 1881.45 1533.15 1878.18 1526.69 1872.75 C 1523.04 1869.69 1521.1 1865.54 1519.45 1861.17 C 1514.29 1847.52 1512.12 1832.14 1509.02 1817.91 C 1505.3 1800.78 1500.56 1783.22 1498.59 1765.79 z"/>
<path transform="translate(0,0)" fill="rgb(254,254,254)" d="M 1411.37 1262.12 C 1418.96 1262.3 1427.22 1265.63 1434.46 1267.89 C 1466.56 1277.94 1497 1290.24 1524.29 1310.36 C 1569.12 1343.42 1611.96 1401.34 1620.19 1457.37 C 1615.14 1452.21 1608.54 1436.25 1604.25 1429.08 A 390.124 390.124 0 0 0 1580.12 1393.88 C 1546.6 1350.77 1495.18 1310.77 1448.79 1282.52 C 1437 1275.33 1424.15 1269.99 1412.4 1262.76 L 1411.37 1262.12 z"/>
<path transform="translate(0,0)" fill="rgb(254,254,254)" d="M 1541.04 1630.98 C 1542.32 1632.86 1540.86 1636.63 1540.42 1638.92 C 1536.17 1661.16 1534.07 1683.59 1533.04 1706.2 C 1500.02 1730.5 1471.26 1770.51 1450.05 1805.28 L 1449.46 1805.11 C 1449.43 1804.49 1449.28 1803.86 1449.36 1803.24 C 1450.18 1797.08 1456.88 1780.35 1459.14 1773.21 C 1476.4 1718.86 1498.01 1670.31 1541.04 1630.98 z"/>
<path transform="translate(0,0)" fill="rgb(254,254,254)" d="M 1789.61 1402.35 C 1800.7 1401.09 1812.37 1401.49 1823.43 1402.9 C 1862.5 1407.86 1896 1430.1 1921.66 1459.19 C 1930.76 1469.5 1938.81 1480.98 1947.27 1491.83 C 1924.52 1472.03 1900.68 1454.27 1873.48 1440.99 A 206.178 206.178 0 0 0 1836.02 1427.76 C 1782.2 1414.49 1740.35 1427.71 1694.16 1455.75 C 1717.72 1424.58 1751.49 1407.71 1789.61 1402.35 z"/>
<path transform="translate(0,0)" fill="rgb(254,254,254)" d="M 1457.08 1537.16 L 1458.75 1536.99 L 1459.52 1537.75 C 1446.7 1553.31 1437.04 1570.68 1424.66 1586.39 C 1405.29 1592.75 1385.97 1598.55 1367.02 1606.17 C 1334.65 1619.17 1302.69 1637.43 1273.92 1657.07 L 1272.43 1657.86 C 1272.7 1657.32 1272.91 1656.74 1273.25 1656.23 C 1277.51 1649.78 1293.24 1636.85 1299.36 1631.14 C 1346.46 1587.13 1394.03 1553.89 1457.08 1537.16 z"/>
<path transform="translate(0,0)" fill="rgb(254,254,254)" d="M 1423.11 1276.75 C 1432.67 1279.26 1442.97 1288.34 1451.52 1293.55 C 1499.59 1322.87 1545.75 1362.03 1579.76 1407.11 C 1589.39 1419.88 1597.79 1433.78 1606.46 1447.21 C 1600.06 1442.84 1595.12 1435.71 1588.99 1430.79 C 1570.3 1415.79 1548.45 1405.29 1526.26 1396.64 C 1518.86 1385.8 1510.27 1375.58 1502.16 1365.26 C 1477.67 1334.08 1451.99 1303.96 1423.11 1276.75 z"/>
<path transform="translate(0,0)" fill="rgb(254,254,254)" d="M 1543.07 1498.09 A 51.7126 51.7126 0 0 1 1549.49 1498.14 C 1567.64 1499.49 1586.53 1503.44 1598.75 1517.94 C 1589.21 1518.07 1580.06 1518.61 1570.67 1520.44 C 1510.39 1532.17 1460.29 1581.41 1426.96 1630.57 C 1418.4 1643.48 1410.09 1656.44 1402.24 1669.79 A 309.349 309.349 0 0 1 1425.38 1615.66 C 1450.2 1570.27 1491.58 1513.23 1543.07 1498.09 z"/>
<path transform="translate(0,0)" fill="rgb(254,254,254)" d="M 1415.66 1443.39 C 1415.98 1443.33 1416.29 1443.26 1416.61 1443.22 C 1464.55 1437.65 1535.55 1459.77 1572.1 1491.05 C 1548.48 1484.28 1532.73 1483.31 1510.45 1495.23 A 1611.21 1611.21 0 0 0 1488.34 1485.18 C 1437.89 1462.54 1377.31 1455.62 1323.95 1471.15 C 1349.97 1454.44 1385.32 1446.74 1415.66 1443.39 z"/>
<path transform="translate(0,0)" fill="rgb(254,254,254)" d="M 1585.19 1580.47 L 1587.2 1580.41 L 1586.79 1581.48 A 107.413 107.413 0 0 0 1584.04 1583.06 C 1564.15 1594.78 1547.17 1611.52 1531.71 1628.47 C 1482.46 1682.47 1461.04 1730.17 1443.19 1800.12 L 1442.57 1801.62 L 1442.04 1801.11 C 1441.63 1750.63 1454.09 1693.43 1477.18 1648.69 C 1480.97 1641.34 1485.22 1632.65 1490.77 1626.45 C 1502.6 1613.25 1552.22 1588.22 1570.09 1582.72 C 1575.06 1581.19 1580.04 1580.84 1585.19 1580.47 z"/>
<path transform="translate(0,0)" fill="rgb(254,254,254)" d="M 1750.63 1523.79 C 1758.03 1524.47 1764.95 1526.35 1771.82 1529.09 C 1784.93 1534.31 1797.02 1542.04 1808.72 1549.85 A 334.795 334.795 0 0 1 1928.84 1692.19 C 1923.09 1688.47 1917.93 1680.06 1912.97 1675.03 C 1904.22 1666.17 1894.61 1657.71 1885.02 1649.78 C 1872.84 1639.71 1859.91 1630.54 1847.44 1620.83 C 1837.37 1613 1827.73 1604.62 1817.73 1596.7 C 1810.7 1591.13 1802.57 1586.39 1796.34 1579.92 C 1789.49 1572.82 1784.46 1563.47 1778.58 1555.52 C 1770.13 1544.13 1760.59 1533.85 1750.63 1523.79 z"/>
<path transform="translate(0,0)" fill="rgb(254,254,254)" d="M 1780.58 1430.36 C 1817.55 1425.84 1862.95 1440.89 1893.47 1461.08 C 1908.62 1471.11 1922.46 1483.44 1938.31 1492.34 L 1939.9 1493.21 C 1927.54 1489.14 1915.55 1483.99 1903.14 1480.01 C 1877.91 1471.93 1852.46 1467.94 1826.11 1466.1 C 1813.81 1465.72 1800.95 1468.33 1788.89 1467.04 C 1783.08 1466.43 1777.31 1464.44 1771.7 1462.85 C 1753.08 1457.6 1738.84 1458.23 1721.21 1465.89 C 1704.27 1473.26 1690.94 1485 1672.56 1489.03 C 1674.92 1484.47 1677.4 1480.11 1680.58 1476.08 C 1699.6 1452 1750.85 1434.08 1780.58 1430.36 z"/>
<path transform="translate(0,0)" fill="rgb(254,254,254)" d="M 1460.75 1495.33 C 1473.84 1493.23 1486.33 1500.12 1497.82 1505.48 C 1489.37 1510.86 1482.14 1519.05 1473.33 1523.57 C 1457.83 1531.52 1435.72 1534.26 1418.38 1541.64 C 1362.03 1565.63 1330.26 1591.3 1286.37 1632.33 C 1278.67 1639.46 1271.32 1647 1263.86 1654.39 C 1272.95 1636.92 1285.53 1620.48 1297.06 1604.56 C 1336.91 1549.55 1392.21 1506.24 1460.75 1495.33 z"/>
<path transform="translate(0,0)" fill="rgb(254,254,254)" d="M 1581.67 1526.25 C 1588.85 1525.41 1595.46 1525.9 1602.58 1526.91 C 1607.76 1533.4 1608.87 1537.94 1610.07 1545.94 C 1596.59 1551.97 1582.58 1556.8 1569.21 1563.05 C 1504.17 1593.44 1446.54 1633.11 1405.2 1692.64 C 1400.24 1699.59 1395.46 1706.67 1390.6 1713.68 C 1399.45 1686.57 1415.51 1659.81 1431.59 1636.32 C 1467.44 1583.96 1517.61 1538.21 1581.67 1526.25 z"/>
<path transform="translate(0,0)" fill="rgb(254,254,254)" d="M 1663.28 983.942 C 1670.62 983.684 1676.77 987.583 1682.17 992.275 C 1705.08 1012.15 1715.06 1041.39 1717.55 1070.72 C 1710.97 1078.9 1703.46 1088.32 1700.4 1098.49 C 1699.77 1100.58 1699.41 1102.07 1698.07 1103.83 C 1685.25 1096.68 1671.56 1095.8 1658.35 1090.36 C 1653.81 1088.48 1649.5 1085.27 1645.42 1082.53 C 1644.92 1054.12 1637.29 1032.64 1647.29 1003.16 C 1650.47 993.78 1654.37 988.306 1663.28 983.942 z"/>
<path transform="translate(0,0)" fill="rgb(0,0,0)" d="M 1672.48 1054.49 C 1675.67 1057.29 1677.76 1060.75 1679.64 1064.52 C 1682.41 1070.05 1683.92 1075.27 1681.88 1081.2 C 1679.73 1080.17 1677.84 1078.86 1676.42 1076.92 C 1671.71 1070.5 1671.47 1062.05 1672.48 1054.49 z"/>
<path transform="translate(0,0)" fill="rgb(254,254,254)" d="M 1678.73 1635.44 C 1685.74 1641.03 1692.27 1650.85 1697.85 1657.9 C 1714.91 1679.44 1731.96 1701.06 1746.23 1724.59 A 881.661 881.661 0 0 1 1740.48 1746.47 C 1728.19 1748.25 1715.95 1751.03 1703.76 1753.45 A 739.577 739.577 0 0 1 1641.92 1761.07 C 1657.36 1719.51 1672.25 1679.61 1678.73 1635.44 z"/>
<path transform="translate(0,0)" fill="rgb(254,254,254)" d="M 1602.47 1592.84 C 1603.7 1592.94 1602.92 1592.81 1604.71 1593.6 C 1601.31 1605.44 1597.58 1617.14 1595.09 1629.22 C 1586.66 1670.19 1584.28 1713.05 1579.32 1754.6 C 1577.02 1773.89 1573.43 1792.94 1570.68 1812.16 C 1567.61 1833.68 1565.35 1855.31 1562.55 1876.86 C 1561.39 1873.33 1561.28 1869.44 1560.89 1865.75 C 1558.48 1845.26 1554.52 1824.94 1552.14 1804.41 C 1546.85 1758.88 1541.62 1672.62 1559.62 1630.77 C 1568.32 1610.51 1582.64 1600.62 1602.47 1592.84 z"/>
<path transform="translate(0,0)" fill="rgb(254,254,254)" d="M 1709.59 1147.22 A 296.163 296.163 0 0 1 1719.55 1146.84 C 1740.79 1146.5 1762.46 1157.34 1777.36 1172.03 C 1793.44 1187.88 1803.67 1209.16 1803.81 1231.85 C 1803.85 1238.74 1803.36 1247.8 1797.5 1252.57 C 1795.03 1254.59 1791.73 1253.96 1788.76 1253.75 C 1778.85 1252.27 1769.65 1249.82 1760.32 1246.12 C 1741.46 1238.64 1718.71 1225.94 1710.36 1206.36 C 1707.03 1198.54 1705.81 1189.95 1702.73 1182.02 C 1700.41 1176.02 1696.42 1170.75 1694.01 1164.76 C 1692.85 1161.86 1692.33 1158.59 1694.02 1155.75 C 1697.03 1150.67 1704.28 1148.83 1709.59 1147.22 z"/>
<path transform="translate(0,0)" fill="rgb(0,0,0)" d="M 1738.73 1175.06 C 1744.52 1176.17 1751.35 1180.57 1754.75 1185.34 C 1757.23 1188.82 1756.61 1190.9 1755.91 1194.82 C 1754.69 1194.94 1753.4 1195 1752.18 1194.82 C 1747.76 1194.17 1743.41 1190.77 1741 1187.11 C 1738.45 1183.23 1737.73 1179.54 1738.73 1175.06 z"/>
<path transform="translate(0,0)" fill="rgb(254,254,254)" d="M 1736.95 1475.22 C 1762.37 1472.74 1784.23 1483.7 1805.9 1495.75 C 1858.15 1524.77 1896.94 1576.45 1918.9 1631.36 C 1925.98 1649.08 1930.85 1667.92 1936.12 1686.23 A 519.785 519.785 0 0 0 1923.77 1663.49 A 379.68 379.68 0 0 0 1899.39 1624.39 C 1863.12 1574.18 1802.82 1523.58 1740.71 1513.67 C 1728.85 1503.33 1718.14 1494.46 1703.87 1487.69 C 1714.4 1481.87 1725.24 1477.86 1736.95 1475.22 z"/>
<path transform="translate(0,0)" fill="rgb(254,254,254)" d="M 1772.63 1063.35 C 1794.92 1061.47 1821.04 1065.77 1840.49 1077.28 C 1844.43 1079.62 1848.1 1082.51 1849 1087.26 C 1850.27 1094.03 1844.97 1102.13 1841.06 1107.19 C 1827.01 1125.41 1808.61 1139.63 1785.42 1142.69 C 1762.47 1145.23 1741.05 1135.65 1718.07 1136.6 C 1716.75 1125.57 1713.37 1117.99 1708.49 1108.06 C 1710.02 1102.44 1711.76 1097.43 1715.33 1092.73 C 1729.32 1074.3 1750.42 1066.36 1772.63 1063.35 z"/>
<path transform="translate(0,0)" fill="rgb(0,0,0)" d="M 1750.97 1101 C 1753.83 1100.98 1755.3 1100.82 1757.79 1102.44 C 1758.12 1104.24 1758.42 1103.99 1757.66 1105.44 C 1754.39 1111.62 1746.6 1114.4 1740.36 1116.31 C 1739.64 1116.27 1739.06 1116.26 1738.33 1116.07 C 1735.63 1115.35 1735.1 1115.08 1733.64 1112.87 C 1733.82 1111.98 1733.85 1111.47 1734.41 1110.64 C 1737.88 1105.57 1745.39 1102.95 1750.97 1101 z"/>
<path transform="translate(0,0)" fill="rgb(254,254,254)" d="M 1568.71 1075.22 C 1595.36 1072.68 1624.32 1084.14 1645.7 1099.43 C 1665.5 1113.59 1655.84 1124.74 1659.48 1145.92 C 1642.61 1146.44 1627.51 1153.24 1610.84 1154.6 C 1588.26 1157.19 1560.94 1152.04 1541.34 1140.35 C 1531.36 1134.4 1520.86 1125.32 1518.17 1113.57 C 1516.96 1108.33 1517.76 1102.87 1520.78 1098.37 C 1529.58 1085.33 1554.03 1078.1 1568.71 1075.22 z"/>
<path transform="translate(0,0)" fill="rgb(0,0,0)" d="M 1601.86 1118.84 C 1603.4 1118.75 1604.96 1118.63 1606.5 1118.73 C 1611.9 1119.11 1619.76 1121.26 1623.03 1125.88 C 1624.17 1127.48 1623.43 1128.82 1623.16 1130.64 C 1622.76 1130.7 1622.37 1130.79 1621.97 1130.83 C 1616.57 1131.32 1607.98 1130.04 1603.96 1126.01 C 1601.52 1123.56 1601.82 1122.01 1601.86 1118.84 z"/>
<path transform="translate(0,0)" fill="rgb(254,254,254)" d="M 1449.36 1402.38 C 1478.75 1398.98 1508.05 1405.34 1535.17 1416.47 C 1574.18 1432.46 1598.83 1457.32 1614.84 1495.98 C 1613.03 1502.62 1611.62 1509.12 1610.55 1515.91 C 1605.29 1507.6 1598.42 1502.84 1590.98 1496.69 C 1570.85 1480.02 1552.57 1466.37 1528.23 1456.03 C 1520.54 1452.68 1512.5 1449.71 1504.54 1447.07 C 1442.14 1426.36 1380.85 1433.31 1322.56 1462.62 C 1330.49 1454.95 1339.72 1448.64 1348.81 1442.44 C 1380.04 1421.19 1411.54 1406.48 1449.36 1402.38 z"/>
<path transform="translate(0,0)" fill="rgb(254,254,254)" d="M 1651.14 1155.3 C 1657.05 1154.66 1663.31 1154.91 1669 1156.73 C 1678.65 1159.82 1685.66 1166.69 1690.09 1175.69 C 1697.37 1190.49 1696.1 1207.45 1690.95 1222.69 C 1681.86 1249.56 1659.33 1266.07 1634.9 1278.23 C 1631.96 1279.74 1628.62 1281.79 1625.42 1282.56 C 1621.77 1283.45 1619.65 1282.73 1616.61 1280.73 C 1605.01 1273.08 1597.95 1254.49 1595.57 1241.23 C 1591.88 1220.66 1595.82 1196.76 1608.17 1179.62 C 1618.81 1164.85 1633.65 1158.07 1651.14 1155.3 z"/>
<path transform="translate(0,0)" fill="rgb(0,0,0)" d="M 1655.32 1185.54 C 1656.93 1185.8 1657.71 1186.16 1659.13 1186.88 C 1659.94 1188.85 1660.32 1189.66 1659.98 1191.84 C 1659.09 1197.61 1654.5 1203.06 1649.85 1206.25 C 1649.17 1205.88 1648.2 1205.38 1647.62 1204.89 C 1645.87 1203.42 1645.05 1201.91 1645.12 1199.56 C 1645.29 1194.1 1651.57 1188.94 1655.32 1185.54 z"/>
<path transform="translate(0,0)" fill="rgb(254,254,254)" d="M 1628.98 1524.12 C 1633.15 1523.93 1637.03 1523.93 1641.12 1524.89 C 1682.55 1534.62 1720.1 1585.52 1741.67 1620.35 A 421.446 421.446 0 0 1 1804.29 1799 C 1805.23 1808.31 1807.63 1820.96 1805.51 1829.93 L 1803.97 1826.79 C 1779.81 1722.93 1716.83 1661.52 1655.68 1579.35 C 1643.78 1563.36 1630.5 1548.53 1620.58 1531.15 C 1623.1 1528.5 1626.08 1526.35 1628.98 1524.12 z"/>
<path transform="translate(0,0)" fill="rgb(254,254,254)" d="M 1679.84 1501.21 C 1684.36 1500.79 1688.97 1500.27 1693.46 1501.2 C 1721.76 1507.06 1757.67 1553.9 1773.37 1577.87 C 1783.72 1593.67 1794.05 1610.18 1800.94 1627.82 C 1821.73 1681.08 1823.64 1760.35 1812.06 1815.98 L 1811.45 1815.7 C 1811.19 1806.66 1810.58 1797.76 1809.67 1788.76 C 1804.59 1740.55 1788.81 1691.46 1766.57 1648.47 C 1746.23 1609.18 1714.11 1560.15 1677.91 1534.15 C 1666.35 1525.86 1654 1520.14 1640.49 1515.85 C 1652.35 1509.25 1666.67 1504.3 1679.84 1501.21 z"/>
<path transform="translate(0,0)" fill="rgb(254,254,254)" d="M 1615.47 1586.69 C 1622.93 1587.88 1630.85 1588.75 1637.97 1591.34 A 41.6483 41.6483 0 0 1 1662.24 1614.02 C 1679.23 1652.39 1600.32 1817.05 1584.04 1859.5 C 1579.12 1872.39 1574.38 1885.39 1568.77 1898.01 C 1573.33 1850.84 1580.74 1803.99 1586.65 1756.99 C 1592.05 1714.03 1595.08 1662.91 1604.71 1621.45 C 1607.45 1609.66 1611.62 1598.15 1615.47 1586.69 z"/>
<path transform="translate(0,0)" fill="rgb(254,254,254)" d="M 1732.67 1761.24 C 1734.62 1761.05 1733.61 1760.91 1735.66 1761.91 C 1735.73 1762.5 1735.86 1763.51 1735.86 1764.16 C 1735.81 1773.38 1732.3 1784.82 1730.57 1793.93 C 1726.64 1814.63 1722.24 1859.01 1706.6 1873.37 C 1685.98 1892.3 1620.86 1895.28 1592.25 1893.29 C 1590.47 1893.21 1589.32 1892.91 1587.68 1892.21 C 1586.16 1884.76 1616.87 1822.52 1621.91 1811 A 1051.43 1051.43 0 0 0 1636.98 1774.09 C 1669.42 1771.43 1700.76 1767.69 1732.67 1761.24 z"/>
<path transform="translate(0,0)" fill="rgb(0,0,0)" d="M 431.96 64.4175 C 448.797 63.1465 466.652 64.6953 482.965 69.0966 C 506.969 75.5728 524.558 91.5209 536.567 112.996 C 560.462 155.724 542.672 208.178 530.038 251.889 C 557.492 228.145 585.21 208.007 622.007 202.317 C 649.69 198.037 685.084 203.658 707.914 220.667 C 727.275 235.092 738.079 256.661 741.318 280.3 C 746.129 315.417 737.297 350.214 721.987 381.698 C 718.807 388.239 715.613 395.517 711.07 401.223 C 708.666 404.243 706.758 405.275 702.939 405.597 C 700.744 404.565 699.206 403.542 697.85 401.47 C 694.29 396.034 691.696 389.315 688.834 383.46 C 680.633 366.689 671.953 348.915 659.053 335.234 C 645.455 320.812 615.845 304.709 595.694 304.829 C 592.575 304.847 591.142 305.437 589.048 307.7 C 588.902 309.06 588.8 309.276 589.056 310.792 C 591.388 324.643 638.057 351.045 650.577 360.443 C 672.147 376.636 697.626 397.952 701.218 426.555 C 705.197 458.236 679.424 486.228 661.193 509.139 C 671.941 547.885 684.491 586.192 695.06 624.992 C 714.019 694.596 730.246 770.333 740.402 841.721 C 755.82 950.102 762.599 1059.34 772.17 1168.31 C 775.35 1204.52 777.106 1241.33 781.998 1277.33 C 783.971 1257.02 787.339 1236.77 790.292 1216.57 C 793.853 1192.22 797.195 1167.79 801.855 1143.62 C 822.972 1034.08 855.823 926.037 889.416 819.768 L 913.702 742.887 C 919.007 726.115 923.88 709.059 930.501 692.75 C 911.778 651.183 948.303 605.432 973.903 575.14 C 980.843 566.929 994.266 554.25 996.59 543.359 C 996.975 541.551 996.614 541.647 995.723 540.187 C 994.335 539.814 994.276 539.724 992.602 539.702 C 985.011 539.604 974.141 545.765 968.201 550.03 C 935.397 573.582 925.875 613.743 916.827 650.789 C 915.31 657 913.95 666.865 909.581 671.536 C 907.373 671.813 906.588 671.888 904.502 670.87 C 890.934 664.249 862.901 614.932 855.648 600.007 A 254.407 254.407 0 0 1 843.498 569.917 C 833.025 538.376 836.965 501.473 851.796 472.024 C 864.886 446.029 887.727 424.463 915.681 415.452 C 956.705 402.229 990.758 421.074 1026.45 439.162 C 1022.39 427.904 1018.32 416.261 1015.79 404.545 C 1008.89 372.522 1013.69 342.526 1031.65 315.013 C 1048.86 288.643 1077.92 267.114 1108.96 260.682 C 1148.97 252.392 1184.91 261.133 1222.07 275.867 C 1231.09 279.442 1242.01 282.799 1250 288.38 C 1252.76 290.307 1254.5 292.034 1255.11 295.478 C 1253.91 298.247 1252.55 299.6 1249.82 300.956 C 1244.3 303.693 1237.1 304.681 1231.08 306.182 C 1221.25 308.632 1211.31 311.6 1202.12 315.903 C 1190.02 321.563 1179.21 329.878 1169.99 339.488 C 1162.24 347.564 1148.04 363.687 1149.71 375.76 C 1150.08 378.443 1150.44 378.839 1152.42 380.404 C 1154.67 380.121 1155.59 379.714 1157.45 378.256 C 1163.43 373.574 1168.55 367.013 1174.04 361.703 C 1184.59 351.51 1196.4 342.764 1208.8 334.965 C 1227.19 323.393 1249.53 311.425 1271.96 316.9 C 1302.26 324.295 1326.22 355.843 1341.61 380.948 C 1349.14 393.219 1373.4 439.542 1369.89 454.061 C 1361.5 460.616 1324.86 451.589 1313.43 450.261 C 1302.78 449.024 1291.96 448.179 1281.24 448.257 C 1263.03 448.391 1243.18 451.657 1226.47 459.195 C 1220.93 461.697 1213.46 466.528 1211.99 472.989 C 1211.38 475.679 1211.57 476.117 1213.01 478.227 C 1216.24 479.672 1219.8 479.124 1223.08 478.078 C 1231.38 475.441 1239.18 470.251 1247.19 466.741 C 1266.24 458.395 1291.59 454.31 1312.26 455.151 C 1332.09 455.957 1356.74 459.81 1370.61 475.464 C 1391.44 498.984 1393.06 554.897 1391.66 585.364 C 1391.12 596.961 1391.74 631.838 1383.97 638.931 C 1381.71 639.669 1380.79 640.35 1378.58 638.973 C 1371.82 634.772 1364.92 626.482 1358.68 621.271 C 1341.51 606.922 1322.49 593.949 1302.43 584.043 C 1294.57 580.159 1281.87 573.257 1273.06 576.21 C 1272.26 577.288 1271.56 577.612 1271.82 579.068 C 1274.07 591.744 1323.35 611.764 1335.02 617.92 C 1342.19 621.697 1348.8 625.837 1355.14 630.873 C 1375.46 646.996 1383.54 665.96 1386.24 691.404 A 108.818 108.818 0 0 1 1385.98 717.785 C 1383.47 737.91 1359.52 855.244 1349.59 864.209 C 1347.79 865.836 1345.48 866.364 1343.13 865.9 C 1338.43 864.972 1330.68 856.435 1325.99 853.526 A 251.111 251.111 0 0 0 1288.82 834.304 C 1268.15 825.763 1238.69 823.652 1220.59 812.454 C 1196.46 797.53 1192.38 744.242 1189.39 718.185 C 1188.69 712.06 1188.78 700.342 1185.12 695.374 C 1182.07 698.437 1182.72 705.964 1182.7 710.08 A 277.008 277.008 0 0 0 1184.81 744.928 C 1186.56 759.592 1195.21 792.041 1191.15 804.853 C 1188.57 805.565 1186.35 805.51 1183.68 805.335 C 1151.84 803.247 1103.56 795.253 1081.7 770.215 C 1048.81 732.542 1075.48 645.698 1078.91 599.969 C 1055.74 638.193 1056.61 687.67 1058.67 730.947 C 1059.26 743.338 1060.8 755.949 1060.4 768.342 C 1058.99 770.131 1058 770.799 1055.68 771.125 C 1035.48 773.959 975.646 734.146 957.736 720.852 C 951.678 740.896 944.377 760.605 938.161 780.613 C 927.084 816.266 917.023 852.759 907.51 888.85 A 2625 2625 0 0 0 831.685 1345.91 C 840.716 1323.35 851.613 1301.64 861.924 1279.66 C 894.915 1209.31 930.189 1139.43 979.887 1079.23 C 1029.83 1018.73 1098.76 958.67 1179.86 950.855 C 1179.97 941.048 1179.94 931.13 1185.64 922.628 C 1191.26 914.243 1200.88 910.291 1210.53 908.717 C 1233.33 904.999 1253.93 914.779 1271.99 927.86 C 1316.19 959.888 1346.95 1022.83 1364.63 1073.55 C 1369.17 1086.56 1374.23 1100.51 1376.16 1114.16 C 1376.89 1119.37 1377.33 1124.69 1374.06 1129.13 C 1372.75 1129.69 1371.64 1129.97 1370.2 1129.93 C 1355.32 1129.48 1326.76 1121.75 1311.65 1117.93 C 1260.42 1105 1192.64 1089.81 1154.68 1051.31 C 1137.35 1033.72 1127.49 1015.99 1127.68 991.02 L 1126.33 991.634 C 1053.04 1025.26 989.846 1100.77 950.364 1169.64 C 941.381 1185.31 934.115 1201.66 926.352 1217.95 C 919.203 1232.95 911.647 1247.64 905.879 1263.25 C 946.494 1226.89 991.287 1196.33 1047.95 1195.77 C 1053.99 1183.17 1060.14 1170.68 1071.74 1162.23 C 1084.47 1152.96 1099.63 1151.93 1114.64 1154.55 C 1140.88 1159.13 1162.6 1177.42 1177.41 1198.88 C 1213.63 1251.35 1213.22 1344.53 1201.39 1405.74 C 1200.63 1409.69 1199.82 1415.42 1196.3 1417.81 C 1179.98 1412.37 1164.31 1403.65 1148.65 1396.46 C 1109.48 1378.47 1060.42 1358.97 1027.44 1331.32 C 999.655 1308.02 981.504 1282.56 978.356 1245.97 C 978.074 1246.1 977.791 1246.23 977.51 1246.36 C 950.093 1259.49 901.176 1306.46 883.79 1332.13 C 879.548 1338.39 876.987 1344.61 874.451 1351.67 C 914.631 1354.03 965.203 1364.06 1000.22 1384.28 C 1018.63 1394.91 1032.76 1407.01 1038.52 1428.15 C 1040.83 1455.52 1037.55 1485.28 1036 1512.79 C 1029.74 1624.19 1016.08 1735.02 988.257 1843.2 C 985.054 1855.66 981.138 1878.41 973.939 1888.62 C 957.193 1912.38 894.105 1932.93 865.679 1938.71 C 793.942 1953.28 709.468 1949.48 640.96 1922.26 C 621.844 1914.67 603.308 1904.23 586.157 1892.87 C 581.593 1884.13 579.006 1873.93 576.172 1864.49 C 557.187 1801.31 547.996 1733.17 541.503 1667.65 C 535.122 1603.27 534.894 1538.88 537.291 1474.28 C 537.732 1462.37 535.823 1449.33 537.885 1437.69 C 539.32 1429.59 543.046 1422.62 548.266 1416.35 C 578.244 1380.36 658.332 1360.88 704.04 1356.4 A 205.826 205.826 0 0 0 700.682 1345.33 C 689.194 1309.92 667.006 1273.22 632.723 1255.99 C 596.753 1237.91 553.287 1238.8 515.765 1251.26 C 520.564 1253.95 525.348 1257.05 529.726 1260.38 C 542.018 1269.74 551.967 1281.78 553.759 1297.7 C 555.34 1311.74 549.709 1323.87 541.043 1334.51 C 522.184 1357.65 495.963 1374.46 472.043 1391.8 C 446.127 1410.57 419.777 1429.42 395.092 1449.78 C 384.742 1458.31 373.924 1466.55 365.161 1476.75 C 360.278 1482.44 351.919 1495.26 344.131 1496.02 C 343.253 1495.55 343.118 1495.56 342.34 1494.7 C 334.386 1485.96 329.812 1416.44 330.416 1402.61 C 332.247 1360.68 349.993 1319.5 381.158 1291.04 C 405.899 1268.45 447.292 1246.48 481.728 1247.95 C 486.507 1244.38 491.326 1240.9 496.444 1237.83 C 531.659 1216.7 574.707 1206.06 615.081 1216.56 C 682.104 1233.98 704.792 1280.48 736.925 1334.69 C 734.92 1318.41 734.089 1301.81 732.771 1285.46 A 3098.75 3098.75 0 0 1 725.56 1179.76 L 713.828 971.57 C 710.895 925.825 708.083 879.984 702.661 834.454 A 1646.14 1646.14 0 0 0 663.842 630.651 C 655.882 599.29 645.417 568.399 638.427 536.837 C 635.227 539.355 630.002 543.37 625.746 543.175 C 620.698 542.943 618.797 533.141 617.767 529.213 C 607.348 489.469 595.508 437.229 563.77 408.995 C 560.527 406.11 554.868 401.003 550.362 401.277 L 549.92 403.372 C 552.185 410.963 556.831 417.536 561.165 424.07 C 583.202 457.293 614.995 511.206 606.343 552.008 C 601.238 576.079 585.758 598.668 565.121 612.006 C 554.176 619.08 503.372 643.65 491.231 640.185 C 487.007 638.98 488.309 630.216 488.654 626.871 C 492.233 592.18 503.459 558.845 486.125 525.07 C 484.375 521.66 481.387 516.511 477.607 515.362 C 467.08 528.081 495.2 623.102 472.206 657.231 C 453.311 685.276 408.654 687.581 378.17 693.07 C 391.152 695.463 404.005 698.213 416.173 703.478 C 435.486 711.833 453.972 726.596 461.475 746.84 C 469.351 768.09 462.119 789.603 453.149 809.126 C 463.824 801.566 475.698 795.942 486.902 789.239 C 510.958 774.848 532.028 758.384 559.637 750.634 C 581.804 744.411 605.109 745.889 625.353 757.391 C 643.092 767.47 655.373 784.485 660.501 804.123 C 666.406 826.738 661.653 873.93 649.583 893.111 C 647.877 895.823 646.334 897.2 643.102 897.869 C 632.922 895.418 619.488 864.288 610.369 854.902 C 605.038 849.415 597.107 845.234 589.318 845.425 C 586.766 845.488 585.852 846.029 584.164 847.842 C 583.917 850.937 585.061 853.044 586.697 855.579 C 591.212 862.578 597.49 868.473 603.082 874.602 C 614.195 886.783 625.767 899.23 634.8 913.066 C 640.011 921.049 643.889 929.643 645.918 938.98 C 652.889 971.055 641.356 1008.24 623.939 1035.12 C 618.745 1043.14 611.357 1056.66 601.329 1058.84 C 591.221 1056.4 590.603 1043.55 585.563 1035.9 L 585.148 1036.37 C 589.061 1047.42 593.132 1058.69 590.252 1070.5 C 582.978 1100.35 533.88 1140.52 508.008 1155.96 C 503.309 1158.77 498.448 1161.3 492.888 1159.92 C 485.665 1153.77 489.005 1134.67 488.763 1125.74 C 487.712 1086.86 474.564 1047.38 454.986 1014.05 C 451.421 1007.98 446.212 996.635 439.223 994.812 C 426.586 1007.76 455.794 1066.81 460.768 1082.55 C 465.798 1098.46 470.072 1116.01 469.343 1132.82 C 468.477 1152.79 458.564 1170.24 444.039 1183.58 C 436.146 1190.83 426.585 1197.58 417.113 1202.54 C 400.724 1211.12 352.919 1228.02 334.074 1226.53 C 330.833 1226.28 328.585 1225.55 326.415 1222.99 C 325.725 1220.8 325.858 1219.26 326.642 1217.09 C 328.429 1212.14 331.385 1207.45 333.497 1202.59 C 340.48 1186.51 347.566 1169.57 351.721 1152.51 C 359.391 1121 357.568 1075.9 340.147 1047.67 L 339.295 1046.3 C 337.374 1069.14 343.403 1091.52 341.779 1115.11 C 339.554 1147.41 332.14 1191.77 306.032 1214.09 C 283.712 1233.18 252.319 1235.62 225.429 1244.68 C 210.178 1249.83 196.013 1257.13 182.116 1265.16 C 175.176 1269.16 150.026 1286.18 143.031 1284.94 C 141.729 1284.71 141.134 1283.66 140.395 1282.67 C 134.953 1275.41 135.073 1259.29 132.343 1250.36 C 125.282 1227.27 115.887 1204.91 109.026 1181.74 C 99.6319 1150.01 96.1291 1111.93 101.284 1079.27 C 103.666 1064.18 109.069 1037.7 120.858 1027.05 C 124.031 1024.19 164.693 1008.56 173.285 1004.34 C 198.068 992.148 223.364 978.455 245.698 962.165 C 251.701 957.786 263.326 949.304 264.005 941.466 C 264.152 939.772 263.344 939.336 262.394 938.069 C 240.818 929.91 175.292 968.534 158.138 982.946 A 191.842 191.842 0 0 0 137.923 1002.94 C 134.36 1007.03 129.743 1014.97 125.493 1018 C 124.169 1018.94 123.966 1018.9 122.621 1019.3 C 120.047 1018.82 119.638 1018.7 117.674 1016.99 C 113.343 1006.99 118.105 988.911 119.973 978.085 C 125.877 943.879 139.293 897.651 168.952 876.793 C 168.223 873.309 167.913 870.053 168.373 866.495 C 170.094 853.188 196.968 799.878 204.985 788.43 A 98.2222 98.2222 0 0 1 225.524 767.063 C 263.353 737.661 316.083 749.246 359.919 754.578 C 344.716 744.929 329.207 737.166 311.517 733.301 C 302.682 731.371 293.57 730.205 284.888 727.675 L 284.002 727.408 C 275.465 729.849 267.481 733.115 259.612 737.241 C 250.394 742.075 241.619 748.582 231.387 751.027 C 230.424 750.241 229.798 749.956 229.316 748.757 C 227.505 744.248 227.259 738.699 226.074 733.943 C 224.055 725.84 221.538 717.771 219.232 709.742 C 209.649 676.372 198.525 643.304 187.266 610.467 C 177.011 580.56 165.746 552.726 161.841 521.009 C 156.003 473.591 164.836 448.056 207.495 424.106 C 230.462 411.211 255.302 402.405 279.894 393.224 C 290.932 389.103 307.97 383.184 314.927 372.989 C 316.388 370.849 316.475 369.88 315.859 367.443 C 314.822 366.597 314.755 366.449 313.328 365.826 C 306.404 362.803 295.608 364.28 288.322 365.745 C 257.322 371.978 229.292 389.934 203.903 408.045 C 193.952 415.143 182.815 424.375 171.281 428.485 C 167.838 429.711 164.535 430.539 161.077 428.922 C 155.202 419.981 157.619 400.357 158.184 389.63 C 160.112 353.037 164.67 301.325 193.704 275.695 C 235.41 238.879 346.995 265.207 398.643 268.287 C 386.386 259.139 371.551 253.758 356.89 249.887 A 198.783 198.783 0 0 0 285.297 244.166 C 271.876 245.546 257.666 247.497 244.627 251.022 C 237.048 253.071 229.614 256.273 221.86 257.601 C 219.118 258.07 215.385 258.471 212.708 257.45 C 210.385 256.563 208.569 255.31 207.798 252.832 C 205.814 246.457 210.019 238.496 212.842 232.953 C 229.355 200.534 265.106 145.261 300.906 134.399 C 346.712 120.501 409.018 175.726 447.159 196.089 L 448.726 196.917 C 446.771 190.076 444.295 183.65 440.619 177.55 C 425.367 152.238 390.036 134.302 361.974 128.412 C 352.706 126.466 342.476 127.111 333.486 124.657 C 329.653 123.61 327.253 122.249 325.179 118.778 C 324.949 115.811 325.33 114.819 327.264 112.507 C 336.582 101.372 380.033 77.2852 394.026 72.2071 C 406.253 67.7697 419.05 65.5183 431.96 64.4175 z"/>
<path transform="translate(0,0)" fill="rgb(254,254,254)" d="M 891.632 1473.39 C 894.902 1473.9 898.449 1474.25 901.584 1475.32 C 903.571 1476.01 904.082 1475.98 904.971 1477.95 L 903.63 1479.31 C 900.197 1480.22 895.072 1482.38 891.72 1480.97 C 890.493 1477.98 891.118 1476.53 891.632 1473.39 z"/>
<path transform="translate(0,0)" fill="rgb(254,254,254)" d="M 522.808 943.639 C 534.917 950.663 570.52 1005.59 577.541 1020.34 C 572.286 1016.07 567.69 1009.16 563.174 1003.97 C 546.904 985.246 529.221 968.355 522.808 943.639 z"/>
<path transform="translate(0,0)" fill="rgb(254,254,254)" d="M 854.29 1462.28 C 857.468 1462.28 861.513 1461.85 864.266 1463.76 C 866.664 1465.42 867.92 1468.85 868.199 1471.67 C 868.643 1476.15 866.327 1481.14 863.33 1484.37 C 861.007 1486.87 859.414 1486.76 856.25 1487.05 C 853.598 1487.24 849.139 1487.99 846.706 1487.13 C 844.637 1486.39 842.234 1483.6 841.346 1481.68 C 840.114 1479.01 840.485 1476.14 841.57 1473.5 C 844.177 1467.15 848.269 1464.9 854.29 1462.28 z"/>
<path transform="translate(0,0)" fill="rgb(254,254,254)" d="M 471.078 1257.42 C 472.627 1257.21 474.193 1257.35 475.752 1257.4 C 474.5 1260.2 467.445 1264.16 464.743 1266.28 C 457.265 1272.18 450.868 1279.39 444.693 1286.6 C 427.601 1287.62 410.721 1291.8 394.211 1296.12 C 393.257 1296.41 392.171 1296.37 391.176 1296.43 C 391.441 1295.84 391.617 1295.2 391.97 1294.66 C 394.033 1291.5 399.846 1287.76 402.874 1285.47 C 423.751 1269.69 444.828 1259.98 471.078 1257.42 z"/>
<path transform="translate(0,0)" fill="rgb(254,254,254)" d="M 1253.55 1026.57 C 1259.8 1030.46 1265.34 1035.67 1270.93 1040.44 C 1270.99 1056.21 1274.52 1073.8 1280.49 1088.36 C 1281.71 1091.32 1282.77 1092.63 1281.61 1095.64 C 1271.63 1092.42 1261.76 1089.2 1252.07 1085.16 C 1248.37 1065.43 1251.15 1046.3 1253.55 1026.57 z"/>
<path transform="translate(0,0)" fill="rgb(254,254,254)" d="M 1094.94 1167.19 C 1110.45 1165.86 1123.57 1169.15 1136.06 1178.6 C 1117.92 1180.97 1104.5 1185.06 1089.02 1194.94 C 1082.84 1199.2 1076.84 1203.77 1070.79 1208.22 C 1067.05 1205.42 1064 1202.21 1060.78 1198.85 C 1062.41 1195.66 1064.03 1192.46 1065.8 1189.35 C 1072.94 1176.75 1081.21 1170.98 1094.94 1167.19 z"/>
<path transform="translate(0,0)" fill="rgb(254,254,254)" d="M 1217.8 922.359 A 66.6038 66.6038 0 0 1 1261.74 938.433 C 1246.33 941.052 1227.93 946.314 1217.72 959.002 L 1212.95 964.865 L 1210.61 964.797 C 1208.71 952.944 1208.92 942.089 1204.03 930.807 C 1202.16 941.453 1202.23 949.808 1204.65 960.253 L 1192.19 952.457 C 1192.91 945.631 1193.34 938.713 1195.41 932.133 C 1202.33 926.361 1209.03 923.777 1217.8 922.359 z"/>
<path transform="translate(0,0)" fill="rgb(254,254,254)" d="M 1277.69 1045.58 C 1290.89 1053.44 1302.65 1066.89 1313.53 1077.66 C 1324.78 1088.81 1336.07 1099.81 1347.97 1110.26 C 1329.77 1106.45 1311.52 1102.53 1293.62 1097.46 C 1282.76 1081.81 1280.93 1063.89 1277.69 1045.58 z"/>
<path transform="translate(0,0)" fill="rgb(254,254,254)" d="M 1142.24 1307.84 C 1164.76 1309.88 1177.48 1322.7 1193.03 1337.57 C 1193.16 1353.13 1191.42 1368.41 1189.15 1383.78 L 1188.37 1386.42 C 1183.32 1382.26 1149.11 1319.73 1142.24 1307.84 z"/>
<path transform="translate(0,0)" fill="rgb(254,254,254)" d="M 1263.14 946.331 C 1264.68 946.149 1266.19 946.002 1267.74 946.129 C 1276.77 946.869 1289.22 964.387 1294.43 970.831 C 1275.2 970.602 1261.19 972.379 1244.35 981.991 C 1242.2 983.58 1240.2 985.536 1238.19 987.298 C 1230.73 981.315 1223.33 975.318 1216.17 968.972 C 1229.74 956.157 1244.64 948.746 1263.14 946.331 z"/>
<path transform="translate(0,0)" fill="rgb(254,254,254)" d="M 1129.31 1317.5 C 1134.94 1322.88 1170.92 1383.48 1174.76 1392.84 C 1171.98 1392.63 1169.47 1391.1 1166.95 1389.95 C 1151.21 1381.98 1135.04 1374.93 1119.17 1367.24 C 1118.04 1348.29 1120.26 1334.24 1129.31 1317.5 z"/>
<path transform="translate(0,0)" fill="rgb(254,254,254)" d="M 1109.2 1285.59 C 1115.04 1293.38 1120.44 1301.31 1125.34 1309.74 C 1116.82 1333.9 1111.9 1335.75 1112.67 1363.46 C 1109.8 1363.64 1107.77 1362.2 1105.24 1360.98 C 1098.61 1357.94 1092.23 1354.63 1085.85 1351.11 C 1086.22 1326.39 1095.85 1305.82 1109.2 1285.59 z"/>
<path transform="translate(0,0)" fill="rgb(254,254,254)" d="M 1172.09 967.986 C 1179 968.085 1186.64 972.824 1192.13 976.749 L 1191.95 977.422 L 1192.64 977.164 L 1194.03 978.142 C 1174.81 997.284 1170.47 1009.97 1163.62 1035.69 L 1162.5 1036.43 C 1154.95 1032.57 1148.17 1020.36 1145.14 1012.53 C 1142 1004.41 1140.99 995.822 1144.96 987.793 C 1150.32 976.951 1161.12 971.525 1172.09 967.986 z"/>
<path transform="translate(0,0)" fill="rgb(254,254,254)" d="M 1228.96 1006.42 C 1235.98 1009.39 1243 1016.43 1248.93 1021.34 C 1243.4 1042.2 1242.34 1060.68 1244.87 1082.05 L 1244.01 1082.84 L 1239.22 1081.51 A 573.615 573.615 0 0 1 1213.09 1071.35 C 1212.08 1047.93 1218.99 1027.38 1228.96 1006.42 z"/>
<path transform="translate(0,0)" fill="rgb(254,254,254)" d="M 1275.15 1019.04 C 1290.19 1018.05 1306.27 1018.32 1319.93 1025.56 C 1339.52 1035.93 1350.83 1078.29 1357.3 1099.21 C 1350.11 1094.56 1341.78 1083.46 1335.42 1076.99 C 1315.83 1057.12 1296.53 1037 1275.15 1019.04 z"/>
<path transform="translate(0,0)" fill="rgb(254,254,254)" d="M 1276.54 978.211 C 1284.94 977.552 1292.23 977.844 1300.47 979.682 C 1310.79 991.212 1319.07 1006.69 1325.73 1020.61 C 1317.79 1017.64 1309.99 1014.98 1301.77 1012.9 C 1290.21 1011.37 1279.38 1012.28 1267.83 1013.39 C 1259.94 1005.33 1251.45 998.074 1242.9 990.74 C 1253.78 984.525 1264.22 980.522 1276.54 978.211 z"/>
<path transform="translate(0,0)" fill="rgb(254,254,254)" d="M 396.023 1349.14 L 396.573 1349.64 C 396.481 1355.15 382.883 1372.79 379.64 1379.45 C 372.01 1395.13 365.643 1411.64 359.522 1427.95 C 356.099 1437.07 353.267 1448.09 348.272 1456.3 C 344.537 1430.68 342.186 1403.71 347.564 1378.18 C 362.41 1365.44 377.35 1355.35 396.023 1349.14 z"/>
<path transform="translate(0,0)" fill="rgb(254,254,254)" d="M 1125.23 1272.37 C 1151.31 1270.19 1170.74 1272.96 1191.66 1289.16 C 1192.35 1300.12 1195.02 1315.83 1192.62 1326.35 L 1191.41 1325.93 C 1175 1311.32 1160.7 1300.83 1137.73 1301.94 C 1132.02 1292.68 1125.91 1283.48 1120.97 1273.77 L 1125.23 1272.37 z"/>
<path transform="translate(0,0)" fill="rgb(254,254,254)" d="M 270.007 824.419 C 288.301 822.677 308.251 824.047 324.815 832.369 C 292.231 839.708 258.779 843.24 226.242 850.816 C 211.044 854.835 196.981 859.867 182.6 866.135 C 184.051 861.614 185.277 856.893 188.434 853.226 C 206.624 832.098 243.912 826.353 270.007 824.419 z"/>
<path transform="translate(0,0)" fill="rgb(254,254,254)" d="M 430.805 1295.39 C 432.608 1295.05 433.555 1295.09 435.313 1295.62 C 425.503 1309.29 414.996 1322.38 405.344 1336.2 C 385.289 1346.11 371.025 1351.94 352.64 1365.98 C 351.705 1366.77 352.321 1366.38 350.635 1366.88 C 350.566 1366.57 350.46 1366.26 350.429 1365.93 C 349.564 1356.73 365.45 1327.58 371.423 1319.77 C 384.977 1302.03 410.078 1298.25 430.805 1295.39 z"/>
<path transform="translate(0,0)" fill="rgb(254,254,254)" d="M 1132.72 1236.4 C 1150.28 1234.3 1166.73 1237.35 1182.41 1245.22 C 1186.62 1255.78 1188.72 1267.31 1189.72 1278.58 C 1182.47 1273.61 1175.95 1269.96 1167.39 1267.61 C 1151.07 1263.45 1133.41 1263.02 1117.26 1268 L 1099.97 1244.49 C 1111.24 1240.11 1120.63 1237.47 1132.72 1236.4 z"/>
<path transform="translate(0,0)" fill="rgb(254,254,254)" d="M 1034.71 1216.26 C 1041.92 1215.31 1048.85 1216.89 1055.88 1218.33 C 1033.04 1238.81 1017.44 1263.08 1012.19 1293.68 L 1011.69 1294.26 C 1007.94 1292.55 1003.93 1285.4 1001.94 1281.84 C 991.536 1263.25 990.858 1247.72 996.475 1227.43 A 191.81 191.81 0 0 1 1034.71 1216.26 z"/>
<path transform="translate(0,0)" fill="rgb(254,254,254)" d="M 499.47 1257 C 509.873 1259.56 518.57 1264.78 526.103 1272.32 C 534.13 1280.36 541.204 1291.31 540.918 1303.04 C 540.542 1318.46 528.029 1328.88 517.671 1338.58 L 515.578 1339.82 C 513.541 1337.33 513.31 1330.97 512.735 1327.64 C 508.363 1302.4 496.56 1286.33 476.808 1270.71 C 483.881 1265.28 491.582 1261.1 499.47 1257 z"/>
<path transform="translate(0,0)" fill="rgb(254,254,254)" d="M 1197.91 982.436 C 1207.47 986.429 1216.99 995.255 1224.39 1002.33 C 1215.95 1016.82 1209.57 1034.1 1207.43 1050.78 C 1206.72 1056.33 1206.77 1061.91 1205.99 1067.47 C 1203.59 1067.81 1201.15 1065.99 1198.98 1064.93 C 1187.7 1059.23 1178.74 1052.6 1170.03 1043.48 C 1173.94 1019.16 1181.61 1000.99 1197.91 982.436 z"/>
<path transform="translate(0,0)" fill="rgb(254,254,254)" d="M 1083.44 1253.05 C 1091.65 1260.25 1098.55 1270.84 1105.36 1279.4 C 1097.44 1291.25 1090.04 1303.33 1085.45 1316.9 C 1083.14 1323.73 1081.17 1344.91 1078.57 1347.57 L 1075.47 1346.06 C 1066.74 1340.91 1057.36 1336.09 1049.54 1329.61 A 100.947 100.947 0 0 1 1050.04 1320.2 C 1052.48 1295.67 1064.09 1268.87 1083.44 1253.05 z"/>
<path transform="translate(0,0)" fill="rgb(254,254,254)" d="M 1058.08 1219.82 C 1063.33 1223.3 1074.82 1241.18 1079.24 1247.12 C 1064.18 1261.67 1049.94 1281.06 1045.68 1302.07 C 1044.23 1309.22 1044.63 1317.29 1042.36 1324.15 L 1040.45 1323.3 C 1030.55 1315.19 1022.57 1307.44 1015.06 1297.05 C 1017.63 1289.57 1019.06 1281.69 1021.76 1274.2 C 1029.4 1252.98 1043.49 1236.56 1058.08 1219.82 z"/>
<path transform="translate(0,0)" fill="rgb(254,254,254)" d="M 471.259 1275.15 C 472.817 1275.9 473.825 1276.61 475.176 1277.69 C 495.734 1294.14 507.036 1319.77 510.063 1345.42 C 502.306 1352.35 494.174 1358.58 485.861 1364.81 L 472.976 1373.98 C 472.043 1346.51 467.419 1317.01 452.643 1293.29 C 458.912 1287.31 465.062 1281.2 471.259 1275.15 z"/>
<path transform="translate(0,0)" fill="rgb(254,254,254)" d="M 561.143 1225.34 A 137.056 137.056 0 0 1 659.549 1252.95 C 710.375 1292.22 736.889 1365.57 749.872 1426.56 C 754.353 1447.62 757.097 1469.63 759.76 1490.99 C 754.803 1490.99 749.89 1490.54 744.953 1490.15 A 875.214 875.214 0 0 0 741.716 1464.99 C 733.751 1409.46 719.096 1327.17 684.278 1282.3 C 652.351 1241.15 602.779 1225.71 552.111 1230.27 C 546.018 1230.82 529.246 1236.49 524.953 1235.53 C 524.605 1235.46 524.287 1235.28 523.954 1235.15 L 525.29 1235.97 L 523.825 1235.58 C 535.359 1229.5 548.362 1227.21 561.143 1225.34 z"/>
<path transform="translate(0,0)" fill="rgb(254,254,254)" d="M 446.98 1299.64 C 447.451 1299.93 447.966 1300.16 448.393 1300.51 C 450.317 1302.1 451.982 1306.21 453.083 1308.53 C 463.148 1329.69 466.885 1354.57 467.09 1377.81 L 435.756 1400.37 C 433.674 1401.97 432.18 1402.94 429.655 1403.82 C 428.484 1400.28 429.391 1394.21 429.436 1390.28 C 429.671 1369.58 427.127 1355.14 417.416 1336.88 C 426.362 1323.41 436.004 1311.51 446.98 1299.64 z"/>
<path transform="translate(0,0)" fill="rgb(254,254,254)" d="M 412.448 1343.8 C 424.982 1360.85 423.073 1390.09 421.705 1410.03 C 413.269 1418.14 402.68 1425.05 393.46 1432.35 C 382.339 1441.17 371.815 1450.67 361.275 1460.16 L 355.527 1466.08 C 363.256 1430.38 389.012 1371.8 412.448 1343.8 z"/>
<path transform="translate(0,0)" fill="rgb(254,254,254)" d="M 1135.52 1185.41 C 1138.87 1185.03 1142.51 1185.31 1145.89 1185.3 C 1161.69 1196.58 1171.17 1216.77 1178.26 1234.22 C 1156.64 1228.18 1137.94 1226.86 1115.92 1231.59 C 1108.8 1233.8 1101.84 1236.61 1094.87 1239.24 C 1087.31 1230.24 1080.12 1221.12 1073.42 1211.46 C 1090.48 1196.06 1112.87 1187.32 1135.52 1185.41 z"/>
<path transform="translate(0,0)" fill="rgb(254,254,254)" d="M 981.573 1097.99 C 981.534 1103.19 958.106 1133.19 953.83 1139.89 C 933.344 1171.98 917.026 1206.49 901.141 1241.03 C 877.484 1292.47 862.444 1345.63 847.529 1400.07 C 839.355 1429.9 830.312 1457.65 828.064 1488.84 L 815.229 1489.06 C 814.229 1480.12 819.204 1459.64 820.702 1449.8 C 825.635 1417.38 832.701 1384.34 843.483 1353.34 C 851.088 1331.47 862.07 1311.08 871.822 1290.13 C 889.631 1251.88 907.747 1212.83 928.919 1176.32 C 944.648 1149.19 962.77 1123.08 981.573 1097.99 z"/>
<path transform="translate(0,0)" fill="rgb(254,254,254)" d="M 708.118 1388.33 C 709.713 1388.01 710.869 1387.99 712.477 1388.04 C 717.72 1396.82 722.199 1429.78 724.442 1441.15 C 687.329 1444.25 652.782 1454.16 617.91 1466.73 C 611.355 1465.2 605.239 1463.38 598.957 1460.95 C 594.416 1458.71 589.867 1456.46 585.686 1453.58 C 581.853 1450.94 578.102 1447.04 577.4 1442.24 C 576.899 1438.81 578.121 1435.73 580.106 1433.01 C 596.851 1410.02 680.294 1393.12 708.118 1388.33 z"/>
<path transform="translate(0,0)" fill="rgb(254,254,254)" d="M 865.301 1383.93 C 887.99 1387.46 910.399 1388.95 932.802 1394.63 C 950.153 1399.03 992.52 1412.52 1001.66 1429.3 C 1003.22 1432.16 1003.61 1435.32 1002.52 1438.42 C 999.355 1447.44 988.32 1452.68 980.391 1456.79 C 974.166 1459.85 967.844 1462.23 961.314 1464.55 C 925.223 1446.44 891.085 1438.17 850.891 1436.49 C 856.03 1419.08 860.534 1401.44 865.301 1383.93 z"/>
<path transform="translate(0,0)" fill="rgb(254,254,254)" d="M 235.75 1065.03 L 236.647 1066.03 C 230.823 1077.78 223.319 1088.94 217.147 1100.6 C 192.007 1148.09 165.398 1198.13 145.812 1248.18 A 2143.05 2143.05 0 0 0 138.033 1224.6 C 129.055 1199.27 120.612 1174.71 115.176 1148.36 C 147.609 1108.53 188.612 1083.78 235.75 1065.03 z"/>
<path transform="translate(0,0)" fill="rgb(254,254,254)" d="M 320.028 523.033 C 321.118 523.17 320.559 522.956 321.569 523.954 C 286.48 582.567 256.248 643.719 234.163 708.409 C 231.926 700.832 229.185 693.363 226.645 685.881 A 3905.21 3905.21 0 0 0 200.463 604.407 C 225.699 562.36 275.133 538.146 320.028 523.033 z"/>
<path transform="translate(0,0)" fill="rgb(254,254,254)" d="M 870.93 1364.63 C 909.33 1366.8 953.815 1376 988.133 1393.63 C 1001.79 1400.65 1018.82 1412.54 1023.35 1427.99 C 1026.07 1437.24 1023.42 1447.01 1018.67 1455.14 C 1004.24 1479.8 960.105 1495.47 934.211 1502.76 A 484.658 484.658 0 0 1 862.188 1517.32 C 785.898 1526.2 651.688 1523.2 583.504 1484.62 C 570.833 1477.45 554.824 1465.38 551.252 1450.53 C 549.524 1443.35 551.305 1436.46 555.107 1430.26 C 575.677 1396.73 641.678 1381.92 677.782 1373.02 C 686.168 1371.11 697.162 1367.42 705.754 1368.26 C 706.9 1370.17 707.613 1371.04 707.931 1373.26 C 701.634 1377.9 689.279 1378.16 681.54 1379.71 C 648.824 1386.27 590.404 1399.82 568.295 1424.64 C 564.332 1429.09 560.55 1434.94 561.305 1441.18 C 562.427 1450.46 570.187 1459.24 577.245 1464.74 C 594.284 1478 617.494 1483.22 638.073 1488.13 A 664.833 664.833 0 0 0 867.309 1500.95 C 902.785 1496.47 989.268 1479.94 1010.32 1451.37 C 1014.57 1445.61 1016.65 1438.82 1015.31 1431.69 C 1008.31 1394.46 930.637 1378.81 899.534 1374.14 C 891.574 1372.94 876.813 1374.11 870.511 1369.95 L 870.93 1364.63 z"/>
<path transform="translate(0,0)" fill="rgb(254,254,254)" d="M 366.985 447.375 C 367.996 447.414 367.478 447.26 368.453 448.058 C 354.456 470.31 341.444 493.154 327.053 515.156 C 274.402 527.79 231.11 554.136 197.347 596.566 L 192.613 584.242 C 188.178 571.382 182.546 557.911 180.113 544.511 C 179.545 541.384 178.806 536.723 180.745 534.04 C 188.051 523.928 199.582 513.673 209.131 505.666 C 257.553 465.063 306.973 456.573 366.985 447.375 z"/>
<path transform="translate(0,0)" fill="rgb(254,254,254)" d="M 650.554 523.606 C 651.671 524.576 652.306 525.542 652.934 526.921 C 659.569 541.493 662.347 560.147 666.913 575.685 A 1948.66 1948.66 0 0 1 723.872 823.629 C 741.202 933.977 746.82 1045.75 756.361 1156.89 C 758.764 1184.87 762.022 1212.78 764.337 1240.77 A 3143.88 3143.88 0 0 1 774.805 1433 C 775.116 1445.99 777.284 1475.29 773.783 1486.48 C 768.215 1475.83 767.669 1459.38 765.591 1447.54 C 761.673 1425.21 756.905 1402.96 754.299 1380.43 C 752.463 1364.55 751.976 1348.45 750.918 1332.51 L 745.752 1259.17 C 742.69 1214.97 738.772 1170.9 736.526 1126.64 A 5750.41 5750.41 0 0 0 724.78 928.942 C 722.487 897.949 720.713 866.776 716.879 835.932 A 1738.81 1738.81 0 0 0 677.588 630.35 C 669.072 597.801 658.22 565.96 649.401 533.547 C 648.146 528.931 648.212 527.672 650.554 523.606 z"/>
<path transform="translate(0,0)" fill="rgb(254,254,254)" d="M 338.189 519.604 C 340.695 523.552 342.538 527.842 344.194 532.199 C 358.565 570.002 365.623 652.336 348.929 689.974 C 336.903 694.474 324.163 697.739 311.918 701.674 C 291.872 708.116 272.65 715.311 253.452 723.944 C 248.957 725.931 244.654 728.288 240.315 730.588 C 261.469 654.393 299.136 587.695 338.189 519.604 z"/>
<path transform="translate(0,0)" fill="rgb(254,254,254)" d="M 940.084 705.327 L 944.247 708.845 C 944.745 709.765 944.919 709.927 945.077 711.12 C 946.284 720.242 928.053 768.009 923.681 781.494 C 906.945 833.112 893.453 886.075 880.97 938.869 C 860.061 1027.3 842.596 1118.02 831.295 1208.22 C 823.754 1268.41 819.515 1328.88 814.442 1389.3 C 811.607 1423.07 806.807 1456.84 804.804 1490.64 C 797.141 1490.95 789.42 1490.79 781.75 1490.82 C 780.506 1490.49 779.272 1490.64 778.702 1489.34 C 776.086 1483.39 783.234 1409.44 784.459 1396.49 C 792.515 1311.34 800.352 1225.77 816.403 1141.67 C 824.713 1098.14 836.556 1054.81 847.804 1011.96 A 5241.02 5241.02 0 0 1 940.084 705.327 z"/>
<path transform="translate(0,0)" fill="rgb(254,254,254)" d="M 1021.92 1473.95 C 1024.67 1477.12 1019.23 1548.06 1018.65 1557.28 C 987.885 1578.35 950.533 1589.3 914.396 1597.31 C 876.001 1605.82 836.713 1607.02 797.529 1606.89 C 725.601 1606.64 652.67 1601.54 585.271 1574.41 C 574.897 1570.24 562.823 1565.84 553.678 1559.46 C 550.807 1557.46 550.478 1556.67 549.77 1553.25 C 549.671 1527.66 550.222 1502.03 550.517 1476.44 C 590.899 1516.71 665.981 1527.92 721.066 1532.12 C 810.059 1538.91 950.492 1535.35 1021.92 1473.95 z"/>
<path transform="translate(0,0)" fill="rgb(254,254,254)" d="M 572.961 1788.76 C 579.438 1792.36 585.967 1795.95 592.674 1799.1 C 678.705 1839.52 806.897 1843.83 898.955 1824.93 C 927.743 1819.02 955.813 1809.12 983.388 1799.12 C 977.497 1825.58 970.632 1851.51 963.187 1877.56 C 962.644 1878.81 962.389 1879.5 961.621 1880.72 C 951.149 1897.31 892.285 1917.61 874.176 1922.09 C 802.978 1939.68 713.21 1935.01 644.78 1908.05 C 628.256 1901.54 613.114 1892.76 597.956 1883.62 C 586.928 1852.37 578.44 1821.48 572.961 1788.76 z"/>
<path transform="translate(0,0)" fill="rgb(254,254,254)" d="M 1015.62 1569.85 L 1016.42 1570.56 C 1018.52 1577.36 1008.34 1655.76 1006.63 1668.05 C 981.185 1682.94 947.894 1691.12 919.119 1697.13 C 811.212 1719.63 652.262 1723.95 556.107 1660.87 C 549.713 1634.57 550.508 1597.86 550.077 1570.52 C 577.863 1584.2 605.85 1594.66 636.066 1601.53 C 707.704 1617.84 817.224 1623.64 889.985 1612.75 C 929.692 1606.81 981.842 1591.16 1015.62 1569.85 z"/>
<path transform="translate(0,0)" fill="rgb(254,254,254)" d="M 556.773 1674 C 570.484 1682.2 585.759 1688.81 600.741 1694.35 C 717.224 1737.41 892.394 1730.91 1005.29 1678.95 C 1000.36 1709.28 995.934 1739.51 990.344 1769.75 L 986.374 1787.26 A 327.261 327.261 0 0 1 920.443 1810 C 817.846 1834.48 663.188 1832.81 571.142 1776.07 C 563.548 1742.38 560.056 1708.31 556.773 1674 z"/>
<path transform="translate(0,0)" fill="rgb(254,254,254)" d="M 359.864 707.401 C 380.716 705.866 402.57 710.773 420.525 721.554 C 433.806 729.529 444.912 740.987 448.564 756.506 C 453.176 776.101 446.437 791.516 436.559 807.777 C 419.3 782.404 399.623 755.953 369.392 745.929 C 375.34 752.342 382.729 757.559 389.349 763.286 C 407.01 778.565 424.558 797.627 433.622 819.447 C 421.674 813.297 411.871 804.401 399.323 798.791 C 348.018 775.852 284.391 766.929 230.833 787.452 C 243.024 786.738 255.302 783.957 267.482 782.673 C 318.801 777.264 386.058 791.336 426.772 823.977 C 408.387 840.843 388.674 858.207 372.889 877.563 C 356.46 876.434 340.065 875.403 323.589 876.039 C 285.505 877.508 194.441 888.979 165.928 912.79 C 228.682 890.567 299.79 875.988 366.55 884.514 C 325.454 931.203 285.91 983.228 254.092 1036.77 L 244.225 1053.74 C 189.75 1075.69 153.803 1094.73 115.43 1141.38 C 111.225 1109.31 109.534 1069.62 127.353 1041.01 C 140.853 1033.19 156.014 1027.66 170.199 1021.12 C 200.345 1007.21 233.022 989.721 258.877 968.92 C 267.794 961.745 279.182 951.226 280.016 939.137 C 280.283 935.266 279.279 931.893 276.531 929.071 C 271.739 924.15 263.895 923.049 257.359 923.216 C 216.601 924.258 159.961 958.717 132.576 987.66 C 138.033 961.564 144.221 932.319 157.61 909.101 C 186.132 859.635 268.282 858.96 319.203 847.411 C 325.643 845.95 337.829 844.442 341.363 838.306 C 342.701 835.983 342.498 833.755 341.68 831.307 C 339.613 825.124 332.115 820.308 326.56 817.714 C 289.676 800.492 235.735 812.724 199.656 826.453 C 205.907 812.569 212.795 799.731 223.142 788.427 C 251.968 756.933 288.079 760.099 326.948 765.144 C 336.336 766.362 346.504 768.559 355.935 767.96 C 360.527 767.668 365.181 766.264 368.182 762.574 C 372.157 757.689 371.11 751.369 370.515 745.591 C 353.502 731.763 331.105 722.165 309.611 718.192 C 326.495 714.064 342.433 709.071 359.864 707.401 z"/>
<path transform="translate(0,0)" fill="rgb(254,254,254)" d="M 427.501 78.3445 C 443.055 76.352 462.454 78.0316 477.604 82.1712 C 498.081 87.7666 512.996 100.191 523.302 118.631 C 528.329 127.625 531.998 137.344 533.363 147.589 C 537.039 175.188 526.953 214.353 519.252 241.124 C 510.118 214.089 504.964 187.648 490.7 162.301 C 477.711 139.22 459.7 115.44 433.186 108.037 C 438.233 111.69 443.411 115.322 448.166 119.351 C 489.641 154.501 508.325 214.349 512.882 266.68 C 511.18 268.832 509.184 270.849 507.343 272.89 C 496.364 265.41 483.94 260.105 473.096 252.473 C 460.892 243.885 449.511 234.064 437.411 225.292 C 410.071 205.472 371.769 182.304 337.554 180.674 C 316.862 179.689 302.327 189.139 287.733 202.459 C 297.199 197.837 306.03 191.122 316.31 188.34 C 351.627 178.784 400.803 208.319 428.721 228.036 C 441.756 237.241 453.845 247.758 467.03 256.75 C 478.395 264.5 491.298 269.876 503.19 276.787 C 491.166 292.339 475.919 306.633 462.637 321.276 C 423.578 305.751 376.393 296.433 334.511 298.187 C 296.817 299.766 237.992 308.337 211.8 336.974 C 217.838 333.332 223.873 329.812 230.292 326.873 C 270.485 308.469 330.816 300.85 374.485 305.373 C 402.189 308.242 431.88 316.171 458.012 325.84 C 432.104 356.588 409.98 390.352 386.23 422.714 L 373.207 440.295 C 354.91 443.755 336.273 445.159 317.975 448.607 C 262.353 459.09 213.434 484.07 177.692 528.678 C 174.964 512.769 172.016 494.456 176.097 478.527 C 189.733 425.303 269.609 419.166 309.451 395.549 C 320.559 388.964 326.255 382.149 329.453 369.843 C 328.797 366.894 328.061 363.981 326.709 361.26 C 324.057 355.921 318.815 351.705 313.164 349.934 C 287.519 341.894 236.906 368.86 216.063 382.503 C 201.526 392.019 187.838 404.37 172.561 412.531 C 172.321 412.659 172.078 412.781 171.836 412.906 C 171.879 377.606 172.375 322.647 195.026 294.146 C 223.097 258.824 305.994 270.576 346.11 276.193 C 361.817 278.393 380.507 283.231 396.197 281.154 C 400.951 280.525 407.13 278.846 409.756 274.401 C 411.332 271.733 411.108 268.415 410.075 265.603 C 405.961 254.402 397.319 250.639 387.512 245.574 C 386.375 244.986 385.257 244.361 384.105 243.802 C 377.11 240.411 368.861 238.327 361.377 236.196 C 315.059 223.005 268.022 227.873 223.012 243.349 C 235.848 214.061 268.088 167.799 295.119 151.493 C 300.846 148.038 307.055 145.463 313.8 145.099 C 339.777 143.696 378.542 166.111 399.152 180.454 C 413.181 190.218 429.251 205.682 446.118 209.299 C 449.722 210.072 454.054 210.259 457.126 207.845 C 460.386 205.283 461.033 201.18 461.168 197.311 C 461.676 182.725 453.689 168.308 444.113 157.762 C 421.683 133.059 381.276 114.221 348.106 112.657 C 373.466 95.6625 396.754 82.2664 427.501 78.3445 z"/>
<path transform="translate(0,0)" fill="rgb(254,254,254)" d="M 1128.85 272.371 C 1160.26 267.945 1196.66 279.001 1224 293.858 C 1193.47 302.896 1166.62 316.09 1147.84 342.953 C 1139.94 354.258 1133.8 368.119 1136.76 382.168 C 1137.85 387.38 1140.48 392.598 1145.24 395.348 C 1150.51 398.387 1156.51 396.478 1161.31 393.502 C 1169.05 388.706 1175.51 380.969 1181.92 374.56 C 1199.95 356.538 1221.05 339.456 1246 332.328 C 1258.47 328.764 1269.39 329.76 1280.74 336.216 C 1314.55 355.44 1342.2 405.789 1352.25 442.139 C 1312.5 432.136 1260.88 428.835 1223.02 446.02 C 1212.49 450.799 1202.24 457.198 1198.27 468.702 C 1196.44 474.021 1196.84 478.925 1199.35 483.953 C 1202.7 490.675 1209 492.823 1215.76 494.898 C 1226.46 492.783 1236.52 487.647 1246.52 483.447 C 1270.01 473.579 1294.5 468.311 1320.03 470.526 C 1334.88 471.815 1351.02 474.721 1360.9 487.008 C 1381.77 512.953 1378.16 584.869 1374.85 617.411 C 1351.08 595.742 1319.31 572.473 1288.32 562.861 C 1280.44 560.414 1269.85 558.366 1262.31 562.777 C 1259.47 564.438 1257.51 566.988 1256.69 570.189 C 1248.9 600.582 1321.45 623.863 1342.08 638.22 C 1350.97 644.407 1358.24 651.826 1363.36 661.435 C 1370.47 674.762 1372.65 690.635 1372.46 705.562 C 1372 741.406 1355.59 798.514 1344.74 833.803 C 1334.42 799.757 1324.14 766.773 1307.54 735.083 C 1295.6 712.276 1280.91 690.791 1266.98 669.166 C 1299.25 677.383 1321.45 693.37 1340.86 720.438 C 1346.63 728.492 1351.18 737.587 1357.81 744.979 C 1358.08 745.279 1358.36 745.571 1358.63 745.867 C 1356.37 735.493 1352.4 727.964 1346.87 718.943 C 1346.72 718.703 1346.57 718.46 1346.41 718.224 C 1325.13 686.35 1298.56 669.2 1261.4 661.263 C 1248.05 644.754 1235.98 627.33 1222.2 611.139 C 1203.3 588.943 1182.63 568.53 1162.95 547.075 C 1203.5 530.604 1258.21 518.169 1302.03 521.399 C 1316.78 522.487 1331.71 529.027 1346.13 528.961 C 1346.46 528.96 1346.78 528.944 1347.11 528.935 C 1338.41 524.195 1329.32 521.187 1319.67 519.052 A 159.772 159.772 0 0 0 1285.14 515.168 C 1251.34 515.267 1186.88 526.165 1158.97 543.912 C 1140.84 526.481 1121.07 511.258 1102.66 494.249 C 1132.29 455.619 1189.59 402.623 1237.39 391.319 C 1247.47 388.935 1258.21 387.67 1268.55 387.18 C 1273.92 386.926 1282.76 388.479 1287.62 387.018 L 1288.19 385.788 C 1278.52 383.081 1269.17 382.258 1259.14 382.693 C 1190.66 385.66 1140.49 443.273 1097.54 490.212 C 1081.97 478.669 1066.48 467.308 1052.11 454.261 C 1053.44 442.479 1056.65 430.412 1059.8 418.981 C 1073.02 371.117 1095.46 338.819 1138.69 314.354 C 1130.7 315.434 1124.16 317.935 1117.3 322.109 C 1073.8 348.597 1058.05 400.107 1046.68 446.448 A 161.22 161.22 0 0 1 1028.27 391.199 A 99.1954 99.1954 0 0 1 1048.17 315.709 C 1068.21 289.467 1096.66 276.561 1128.85 272.371 z"/>
<path transform="translate(0,0)" fill="rgb(254,254,254)" d="M 939.664 425.336 C 969.789 420.559 1012.89 447.751 1037.6 463.644 C 1003.11 462.63 970.875 467.579 940.82 485.431 C 916.588 499.824 894.298 521.253 887.146 549.254 C 892.36 542.162 896.696 534.425 901.934 527.327 C 926.783 493.648 964.139 475.362 1005.23 471.078 C 1018.07 469.74 1031.45 471.011 1044.09 468.938 C 1044.42 468.885 1044.74 468.823 1045.07 468.765 C 1059.36 477.277 1073.82 488.743 1086.45 499.588 C 1056.12 530.409 1023.11 585.455 1017.81 628.814 C 1023.04 618.237 1026.55 606.76 1031.27 595.924 C 1046.04 562.004 1064.74 530.552 1090.69 503.938 C 1117.38 521.939 1140.69 546.126 1164.34 567.868 C 1159.23 579.989 1153.46 591.796 1148.89 604.148 C 1138.34 632.613 1133.1 663.995 1133.21 694.409 C 1133.24 703.339 1133.28 727.27 1139.37 733.397 C 1142.99 726.922 1139.06 702.951 1139.05 694.333 C 1139.04 686.694 1139.57 678.95 1140.26 671.339 C 1143.43 635.884 1153.97 604.401 1169.77 572.771 A 641.307 641.307 0 0 1 1253.24 670.991 A 171.587 171.587 0 0 0 1248.73 683.56 C 1237.67 717.44 1232.85 757.827 1249.49 790.705 C 1249.05 779.539 1246.63 768.506 1245.46 757.406 C 1242.69 731.119 1246.47 701.445 1258.32 677.672 C 1269.92 696.099 1281.6 714.488 1292.19 733.519 C 1310.41 767.948 1323.82 803.804 1333.95 841.373 C 1320.61 834.448 1308.31 826.605 1294.16 821.189 C 1276.54 814.448 1240.48 809.555 1227.15 799.543 C 1201.25 780.1 1210.71 693.575 1193.72 680.243 C 1191.28 678.324 1188.73 677.371 1185.59 677.856 C 1180.99 678.569 1177.18 681.539 1174.48 685.225 C 1159.7 705.403 1172.99 766.108 1177.41 790.303 C 1150.4 785.446 1112.36 784.237 1092.81 762.169 C 1072.05 738.741 1082.03 670.683 1087.2 640.745 C 1089.28 628.749 1093.15 616.464 1093.91 604.35 C 1094.25 598.927 1094 592.001 1089.66 588.03 C 1087.15 585.727 1083.54 584.959 1080.23 585.1 C 1075.53 585.298 1071.48 588.198 1068.46 591.623 C 1038.76 625.311 1043.16 713.067 1045.18 755.903 C 1016.28 743.614 959.012 712.918 942.671 685.541 C 927.218 659.653 959.943 613.649 975.515 593.784 C 987.366 578.665 1005.54 564.23 1010.26 544.868 C 1011.26 540.79 1011.74 536.112 1009.17 532.477 C 1007.2 529.697 1003.83 528.251 1000.62 527.506 C 987.225 524.401 972.375 530.951 961.141 537.929 C 924.367 560.775 912.473 610.517 903.091 649.703 C 880.971 619.63 858.398 585.091 852.752 547.51 C 848.184 517.106 855.419 487.722 873.906 463.101 C 890.658 440.789 912.42 429.341 939.664 425.336 z"/>
<path transform="translate(0,0)" fill="rgb(254,254,254)" d="M 629.685 216.359 C 649.468 214.839 669.991 217.005 687.958 225.938 C 705.024 234.423 717.046 248.365 722.938 266.498 C 735.847 306.231 723.284 348.003 705.03 383.742 C 694.402 361.795 682.823 338.324 664.864 321.39 C 648.066 305.551 618.932 289.85 595.362 290.757 C 589.105 290.998 582.151 292.015 577.866 297.094 C 574.856 300.663 574.044 305.456 574.528 309.99 C 576.964 332.824 607.682 347.012 624.462 358.55 C 634.167 365.223 643.565 372.588 652.625 380.113 C 668.059 392.931 685.581 409.063 687.14 430.448 C 689.471 462.417 651.395 501.206 631.453 524.276 C 630.73 520.484 629.77 516.716 628.863 512.962 C 619.428 473.91 599.292 411.826 562.972 390.217 C 557.722 387.093 551.825 384.348 545.612 386.125 C 541.977 387.164 539.023 389.523 537.328 392.918 C 528.889 409.815 560.075 448.7 568.372 463.852 C 576.524 478.741 584.074 494.842 589.331 510.981 C 595.899 531.142 595.585 549.851 585.732 568.906 C 569.048 601.172 537.118 612.816 504.607 623.195 C 507.855 594.845 513.839 565.846 506.436 537.623 C 503.292 525.639 495.099 506.633 483.809 500.669 C 480.314 498.822 475.971 498.357 472.236 499.811 C 465.16 502.567 462.496 510.088 461.458 517.044 C 456.57 549.803 477.042 618.318 462.039 646.683 C 451.184 667.205 410.341 671.874 390.202 676.701 C 379.096 679.363 368.277 682.6 357.416 686.116 C 367.14 641.095 368.9 589.562 356.326 544.967 C 353.109 533.556 348.403 522.801 343.537 512.018 C 350.527 495.974 387.645 435.83 398.676 424.271 L 408.009 447.701 C 425.027 494.216 437.526 551.412 437.671 600.999 C 437.703 611.678 436.343 622.417 435.27 633.032 L 434.189 633.932 L 435.904 633.762 L 435.408 635.632 C 436.219 634.676 436.298 634.672 436.97 633.364 C 453.941 600.329 431.787 501.962 420.719 465.639 C 415.673 449.079 409.252 433.246 402.638 417.265 C 423.814 387.395 445.526 357.989 469.303 330.111 C 490.176 358.574 494.503 394.506 506.895 426.801 C 516.657 452.239 530.963 475.402 541.308 500.532 C 550.024 521.704 554.614 543.966 562.626 565.282 C 558.345 513.502 532.039 476.249 514.202 429.994 C 500.645 394.839 496.746 356.876 472.637 326.578 A 390.448 390.448 0 0 1 512.77 283.741 C 546.301 314.612 575.28 348.765 601.633 385.927 C 610.063 397.813 616.184 411.31 625.025 422.847 C 625.293 423.196 625.569 423.539 625.841 423.886 C 612.774 377.399 554.318 312.249 519.094 278.738 C 519.262 276.836 519.383 276.158 520.646 274.603 C 527.962 265.599 562.687 258.334 574.422 256.9 C 604.996 253.164 635.464 259.437 660.381 277.958 C 669.828 284.98 678.128 293.494 687.442 300.744 C 679.429 285.298 667.395 273.021 652.497 264.082 C 620.873 245.107 585.377 243.747 550.354 252.287 C 573.733 232.104 599.154 220.455 629.685 216.359 z"/>
<path transform="translate(0,0)" fill="rgb(254,254,254)" d="M 583.526 761.391 C 590.532 761.165 598.175 762.422 604.909 764.298 C 620.147 768.543 632.573 777.955 640.103 792.052 C 654.002 818.072 649.131 850.343 641.327 877.349 C 636.259 868.687 631.386 859.531 625.288 851.552 C 617.154 840.909 607.88 833.108 594.123 831.44 C 587.375 830.622 577.293 830.248 571.97 835.322 C 555.489 851.031 602.515 895.023 612.448 906.636 C 618.661 913.899 624.78 921.999 629.094 930.565 C 632.253 936.838 633.116 945.028 633.653 952.004 C 636.175 984.704 623.414 1017.39 602.134 1041.85 C 596.789 1030.59 591.664 1019.05 585.622 1008.15 C 575.672 990.186 542.565 936.463 525.721 926.936 C 523.191 925.504 519.713 924.291 516.864 925.527 C 513.169 927.131 509.912 932.774 509.1 936.563 C 502.839 965.765 551.81 1008.52 566.739 1031.07 C 573.192 1040.82 580.313 1054.27 577.437 1066.22 C 571.452 1091.1 526.402 1127.4 504.337 1141.35 C 504.05 1130.2 503.653 1119 502.338 1107.92 C 497.787 1069.57 482.548 1025.73 459.618 994.364 C 456.478 990.069 453.268 985.061 449.002 981.838 C 444.91 978.746 439.873 978.333 434.934 979.303 C 431.66 979.945 428.966 981.845 427.144 984.629 C 412.337 1007.25 435.979 1056.58 444.129 1078.74 C 447.842 1088.83 451.015 1099.16 452.937 1109.76 C 456.339 1128.51 455.267 1146.32 443.926 1162.32 C 422.99 1191.87 379.686 1204.67 345.789 1210.33 C 366.325 1158.54 377.745 1116.61 359.917 1061.27 C 356.981 1052.16 352.322 1038.89 343.059 1034.62 C 340.24 1033.32 336.606 1032.66 333.699 1034.04 C 320.193 1040.45 327.241 1076.47 328.272 1088.53 C 328.957 1096.55 329.428 1104.71 329.195 1112.75 C 328.741 1128.44 325.108 1146.15 320.59 1161.19 C 302.063 1222.84 265.253 1214.34 215.282 1233.35 C 192.958 1241.84 172.836 1255.2 151.838 1266.38 C 157.183 1246.84 165.655 1228.61 173.84 1210.14 A 1514 1514 0 0 1 248.24 1065.9 C 256.483 1091.52 258.832 1129.27 260.44 1156.45 C 260.977 1165.54 260.365 1175.02 261.654 1183.99 L 262.99 1184.87 L 264.129 1184 C 270.012 1167.56 257.946 1078.25 252.132 1060.03 L 258.823 1049 C 266.735 1035.31 275.508 1022.06 284.439 1009.02 A 463.879 463.879 0 0 1 300.77 1130.9 C 300.74 1141.39 299.262 1151.83 299.182 1162.32 L 300.152 1162.7 C 300.366 1162.42 300.611 1162.17 300.793 1161.88 C 304.003 1156.68 303.724 1145.76 304.191 1139.59 C 307.839 1091.44 300.916 1048.27 289.147 1001.79 C 297.58 988.453 307.565 975.948 317.102 963.382 C 335.32 939.378 353.966 915.41 374.336 893.186 C 379.401 915.133 381.12 938.4 384.771 960.668 C 391.595 1002.28 399.513 1043.58 404.891 1085.44 C 405.658 1091.41 409.241 1137.66 410.463 1139.57 C 421.389 1124.12 384.949 918.612 379.567 886.336 C 390.352 875.075 400.93 863.391 412.701 853.153 C 422.748 862.664 430.808 874.734 438.506 886.192 C 464.544 924.942 484.161 965.357 502.343 1008.3 C 509.454 1025.09 517.681 1050.54 528.103 1064.85 C 513.96 1009.01 459.575 888.16 417.292 849.358 C 425.57 841.494 434.436 834.291 443.197 826.978 C 489.078 838.311 562.019 892.542 587.679 931.4 C 593.143 939.674 606.262 973.359 607.897 975.251 C 607.902 969.264 607.287 962.442 604.956 956.861 C 599.531 943.873 593.874 930.837 585.7 919.305 C 557.311 879.252 499.942 841.554 454.704 822.586 C 469.496 813.514 486.131 801.063 502.814 796.058 C 527.233 788.732 581.445 789.636 604.549 799.582 C 616.203 804.6 625.83 813.268 636.91 819.358 L 638.102 820.005 C 634.57 815.463 630.89 811.412 626.54 807.63 C 595.678 780.797 555.66 783.572 517.456 786.098 C 538.453 772.631 558.479 763.786 583.526 761.391 z"/>
</svg>