<svg version="1.1" xmlns="http://www.w3.org/2000/svg" style="display: block;" viewBox="0 0 2048 2048" width="1024" height="1024">
<path transform="translate(0,0)" fill="rgb(245,241,227)" d="M 0 0 L 2048 0 L 2048 2048 L 0 2048 L 0 0 z"/>
<path transform="translate(0,0)" fill="rgb(3,3,2)" d="M 1367.42 76.4256 C 1378.7 76.0887 1401.29 82.2151 1413.54 84.3526 C 1430.64 87.3364 1447.89 89.2677 1464.99 92.1887 C 1468.68 92.8176 1474.92 93.5149 1478.15 95.3684 C 1481.1 97.0646 1492.89 123.815 1495.68 129.212 C 1543.63 222.044 1603.51 321.695 1672.17 400.49 C 1688.02 418.681 1704.06 436.706 1721.34 453.562 C 1734.93 466.815 1759.98 487.783 1770.06 502.086 C 1764.11 517.197 1755.65 531.479 1747.12 545.256 C 1728 551.368 1707.33 554.449 1687.82 559.437 L 1687.77 989.949 C 1690.45 992.798 1693.06 995.107 1693.52 999.201 C 1695.39 1016.12 1694 1034.64 1693.97 1051.74 L 1693.8 1154.96 L 1693.67 1521.26 C 1713.21 1526.6 1723.81 1531.47 1735.3 1548.79 C 1757.93 1517.9 1785.77 1493.48 1817.84 1472.77 C 1823.33 1469.22 1829.97 1463.89 1836.33 1462.27 C 1839.12 1461.56 1840.19 1461.84 1842.66 1463.19 C 1843.17 1465.32 1843.37 1465.92 1842.34 1468.01 C 1840.01 1472.7 1835.53 1477.04 1832.35 1481.32 A 241.743 241.743 0 0 0 1816.27 1506.17 C 1806.25 1523.95 1799.85 1540.77 1798.2 1561.17 C 1811.53 1548.25 1828.69 1536.99 1845.3 1528.69 C 1848.57 1527.05 1851.32 1525.84 1854.88 1527.06 C 1855.64 1529.28 1855.72 1530.38 1854.32 1532.42 C 1851.5 1536.53 1847.48 1540.27 1844.26 1544.13 C 1833.5 1557.01 1824.34 1571.34 1822.26 1588.24 C 1826.19 1589.18 1830.24 1590.05 1834.06 1591.4 C 1845.36 1595.38 1857.27 1603.36 1862.25 1614.61 C 1864.52 1619.76 1864.9 1625.11 1862.65 1630.34 C 1858.69 1639.52 1848.96 1645.18 1840.3 1649.28 C 1818.87 1659.43 1795.05 1666.26 1772.82 1674.72 A 6605.43 6605.43 0 0 1 1592.28 1741.15 C 1411.43 1806.68 1228.27 1865.75 1047.11 1930.39 C 999.775 1947.28 953.013 1965.57 905.977 1983.22 C 890.259 1989.12 874.618 1991.32 857.903 1988.68 C 831.921 1984.57 806.065 1969.22 782.193 1958.35 L 702.178 1921.98 L 329.131 1748.93 A 8922.62 8922.62 0 0 1 243.329 1708.42 C 228.274 1701.22 210.336 1694.39 196.86 1684.65 C 191.713 1680.93 186.843 1676.3 184.79 1670.12 C 183.199 1665.33 183.814 1660.34 186.256 1655.96 C 196.33 1637.9 230.473 1628.96 249.042 1623.78 C 245.923 1614.58 242.806 1605.53 237.445 1597.35 C 234.818 1593.34 228.984 1588.41 227.452 1584.26 C 226.557 1581.84 227.018 1581.28 228.182 1579.24 C 229.117 1578.77 229.616 1578.42 230.759 1578.31 C 244.016 1577.06 268.496 1596.24 277.593 1605.12 C 274.581 1586.66 270.658 1564.75 259.551 1549.19 C 254.776 1542.5 245.839 1534.38 243.324 1526.81 C 242.721 1524.99 242.731 1525.74 243.589 1524.03 L 246.088 1523.27 C 265.454 1526.53 309.567 1563.54 321.822 1579.93 C 321.164 1570.61 320.153 1561.5 317.222 1552.58 C 314.66 1544.78 310.572 1536.4 309.328 1528.31 C 309.267 1527.91 309.301 1527.49 309.188 1527.1 C 309.12 1526.87 308.928 1526.7 308.798 1526.49 L 309.347 1525.72 C 311.9 1524.71 312.482 1524.46 315.237 1525.29 C 328.096 1529.19 354.124 1565.37 361.667 1578.04 C 359.834 1488.67 361.438 1399.16 361.202 1309.76 L 360.382 607.338 C 334.848 613.229 308.93 619.838 283.034 623.805 C 270.784 619.253 259.987 614.046 248.88 607.135 C 254.807 595.055 264.279 583.569 271.765 572.285 C 291.65 542.312 312.194 512.769 331.925 482.702 L 438.9 319.608 C 452.453 299.131 467.522 271.546 482.774 253.44 A 22072.2 22072.2 0 0 1 1088.25 129.931 A 15910.6 15910.6 0 0 1 1268.76 94.7937 C 1301.45 88.4218 1334.39 80.5162 1367.42 76.4256 z"/>
<path transform="translate(0,0)" fill="rgb(125,138,154)" d="M 590.221 630 C 593.566 629.864 596.362 629.576 599.05 632.02 C 600.9 633.703 601.687 635.631 601.376 638.129 C 600.848 642.375 598.213 644.099 594.951 646.242 C 590.883 646.188 588.717 645.715 585.523 643.284 C 584.739 641.719 584.012 640.915 584.144 639.097 C 584.458 634.778 587.149 632.616 590.221 630 z"/>
<path transform="translate(0,0)" fill="rgb(219,205,178)" d="M 594.505 657.224 L 595.932 657.351 C 600.003 661.671 602.72 667.899 605.583 673.113 C 599.88 671.421 594.229 669.484 588.571 667.642 C 584.162 666.395 575.175 665.594 572.2 662.524 L 572.578 660.78 L 574.9 659.639 L 572.221 661.274 C 576.38 657.395 587.342 658.943 593.252 657.536 C 593.671 657.436 594.087 657.328 594.505 657.224 z"/>
<path transform="translate(0,0)" fill="rgb(245,241,227)" d="M 1364.54 895.139 C 1365.94 895.023 1367.26 894.996 1368.66 895.174 C 1373.22 895.757 1376.24 896.914 1379.13 900.529 C 1379.75 902.893 1380.06 904.297 1379.52 906.7 C 1376.36 903.777 1373.68 901.246 1369.28 900.605 C 1358.47 899.032 1347.25 905.561 1338.78 911.613 C 1336.57 913.717 1334.62 915.71 1332.92 918.266 L 1332.13 919.461 C 1330.24 922.307 1329.7 922.841 1326.47 923.509 C 1326.25 921.266 1326.32 921.202 1327.48 919.296 C 1336.55 904.393 1347.93 898.807 1364.54 895.139 z"/>
<path transform="translate(0,0)" fill="rgb(116,101,91)" d="M 1372.97 333.882 C 1375.02 334.488 1374.62 334.58 1375.63 336.299 C 1375.49 336.575 1375.4 336.873 1375.22 337.128 C 1372.14 341.634 1318.98 366.514 1311.83 368.493 C 1310.54 366.638 1309.86 366.193 1309.69 363.884 C 1324.58 360.52 1356.81 341.277 1372.97 333.882 z"/>
<path transform="translate(0,0)" fill="rgb(219,205,178)" d="M 1226.62 948.083 C 1231.42 947.565 1236.3 948.744 1240.49 951.197 C 1242.33 952.275 1242.38 952.276 1242.89 954.422 C 1231.17 957.609 1222.26 968.482 1215.1 977.692 L 1208.6 986.432 C 1207.47 984.714 1206.33 982.986 1205.35 981.179 C 1203.05 976.95 1202.36 972.431 1203.84 967.794 C 1206.92 958.117 1218.13 952.352 1226.62 948.083 z"/>
<path transform="translate(0,0)" fill="rgb(219,205,178)" d="M 1246.66 957.781 C 1252.16 959.178 1257.27 965.117 1261.42 968.818 C 1246.02 974.951 1235.27 985.37 1225.43 998.495 C 1224.3 1000.25 1225.06 999.476 1223.02 1000.67 C 1219.3 998.81 1216.6 994.279 1214.09 991.027 C 1221.33 975.379 1231.23 965.324 1246.66 957.781 z"/>
<path transform="translate(0,0)" fill="rgb(219,205,178)" d="M 1264.75 972.841 C 1269.14 974.362 1273.2 979.268 1276.58 982.436 C 1261.46 993.78 1253.11 1005.64 1242.66 1021.15 C 1237.62 1016.75 1232.84 1012.16 1228.08 1007.47 C 1235.4 991.131 1249.58 981.241 1264.75 972.841 z"/>
<path transform="translate(0,0)" fill="rgb(148,131,108)" d="M 425.733 1673.98 C 433.814 1677.24 441.609 1680.89 449.427 1684.74 C 449.317 1687.36 449.32 1689.98 449.268 1692.59 C 449.083 1702.08 450.023 1711.95 442.684 1719.01 C 437.303 1722.44 432.111 1724.67 426.095 1726.64 L 425.733 1673.98 z"/>
<path transform="translate(0,0)" fill="rgb(245,241,227)" d="M 622.128 1072.32 C 623.067 1072.19 623.95 1072.02 624.911 1072.13 C 630.067 1072.74 649.079 1091.06 653.872 1095.32 A 1172.91 1172.91 0 0 0 722.943 1153.09 C 728.751 1157.63 744.552 1167.11 747.576 1172.99 C 748.697 1175.17 748.616 1176.4 747.953 1178.68 C 746.417 1178.34 745.908 1178.15 744.538 1177.24 C 716.25 1156.01 688.813 1133.53 661.314 1111.3 C 645.881 1098.82 630.612 1085.43 614.086 1074.42 C 616.433 1072.63 619.24 1072.75 622.128 1072.32 z"/>
<path transform="translate(0,0)" fill="rgb(181,165,140)" d="M 1635.69 1578.01 L 1636.24 1578.42 C 1638.29 1582.2 1637.54 1630.77 1637.64 1639 C 1631.64 1635.93 1625.22 1634.09 1618.82 1632.07 L 1611.02 1628.92 A 1392.61 1392.61 0 0 0 1610.01 1587.69 L 1635.69 1578.01 z"/>
<path transform="translate(0,0)" fill="rgb(116,101,91)" d="M 606.906 1077.89 C 616.33 1081.86 742.337 1184.76 747.981 1193.4 C 737.714 1192.41 687.036 1152.58 676.643 1144.57 C 662.064 1133.33 609.008 1094.01 606.906 1077.89 z"/>
<path transform="translate(0,0)" fill="rgb(148,131,108)" d="M 1361.61 310.92 C 1362.52 310.906 1363.07 310.834 1364 311.163 C 1369.79 313.2 1373.06 320.202 1375.9 325.17 C 1353.74 335.152 1332.19 346.533 1310.59 357.646 C 1309.63 358.489 1308.63 359.232 1307.62 359.997 C 1302.82 356.145 1300.13 349.704 1297.1 344.417 C 1318.78 333.636 1340.14 322.108 1361.61 310.92 z"/>
<path transform="translate(0,0)" fill="rgb(180,74,74)" d="M 500.74 819.681 C 519.658 835.503 575.418 856.194 600.656 857.041 C 599.461 861.188 597.839 865.033 596.109 868.976 C 593.758 869.095 591.441 869.053 589.088 868.924 C 563.49 867.516 514.074 850.948 496.803 831.448 C 497.817 827.393 499.255 823.577 500.74 819.681 z"/>
<path transform="translate(0,0)" fill="rgb(180,74,74)" d="M 637.757 758.323 C 638.379 758.455 639.018 758.524 639.624 758.718 C 641.718 759.389 642.342 760.839 643.287 762.69 C 651.548 778.869 656.816 797.44 664.423 814.145 C 655.305 823.251 644.75 829.963 633.29 835.715 C 627.039 838.415 620.979 840.535 614.36 842.121 C 619.465 823.588 626.332 805.617 630.906 786.898 C 633.002 778.321 633.424 765.778 637.757 758.323 z"/>
<path transform="translate(0,0)" fill="rgb(180,74,74)" d="M 526.955 716.198 C 552.968 725.652 582.085 731.049 609.139 737.118 C 614.239 738.262 619.774 738.558 624.734 739.883 C 626.247 740.288 627.39 741.108 628.671 741.974 C 630.482 743.2 631.207 743.913 633.505 743.768 C 635.895 739.458 631.25 734.432 633.584 729.98 C 635.813 729.995 635.823 730.211 637.643 731.241 C 639.607 734.987 639.412 739.229 639.645 743.375 C 639.565 744.87 639.559 746.605 639.169 748.048 C 638.23 751.523 636.117 753.68 632.881 755.148 C 619.079 761.411 538.984 738.905 522.114 732.284 L 526.955 716.198 z"/>
<path transform="translate(0,0)" fill="rgb(245,241,227)" d="M 564.52 670.688 C 579.462 675.375 594.661 680.04 610.056 682.968 C 617.507 698.643 621.995 714.555 622.929 731.86 L 603.275 726.69 A 3339.23 3339.23 0 0 0 538.972 711.833 C 544.738 695.827 552.451 682.593 564.52 670.688 z"/>
<path transform="translate(0,0)" fill="rgb(181,165,140)" d="M 1034.42 1017.25 C 1038.08 1017.95 1136.77 1085.15 1152.07 1094.11 L 1126.24 1101.31 C 1122.35 1102.53 1118.07 1103.2 1114.08 1104.11 C 1097.14 1091 1081.06 1076.76 1064.38 1063.31 C 1046.99 1049.29 1029 1036.01 1011.52 1022.09 C 1019.2 1020.76 1026.81 1018.93 1034.42 1017.25 z"/>
<path transform="translate(0,0)" fill="rgb(181,165,140)" d="M 872.027 1082.28 C 882.334 1087.72 892.233 1097.1 901.39 1104.43 L 955.87 1148.14 L 935.243 1154.37 A 5017.8 5017.8 0 0 1 872.027 1172.93 L 872.027 1082.28 z"/>
<path transform="translate(0,0)" fill="rgb(181,165,140)" d="M 1348.78 642.296 C 1351.13 645.15 1349.64 768.421 1349.61 783.248 A 994.729 994.729 0 0 0 1317.85 790.716 C 1315.44 786.075 1316.88 666.29 1316.88 650.585 C 1327.48 647.543 1338.02 644.7 1348.78 642.296 z"/>
<path transform="translate(0,0)" fill="rgb(181,165,140)" d="M 746.932 947.388 C 748.961 950.826 747.901 958.325 747.865 962.376 C 687.394 977.895 626.795 993.71 566.618 1010.34 C 533.752 1019.42 501.07 1030.39 467.811 1037.87 C 462.139 1035.14 456.098 1032.98 450.243 1030.65 L 440.746 1026.97 C 477.934 1013.78 517.836 1005.37 556.022 995.283 C 619.364 978.551 682.813 960.918 746.932 947.388 z"/>
<path transform="translate(0,0)" fill="rgb(219,205,178)" d="M 1396.23 630.192 C 1396.69 630.661 1397.32 631.007 1397.6 631.598 C 1398.51 633.504 1397.7 756.779 1397.74 770.4 C 1385.3 773.937 1372.55 776.688 1359.97 779.719 C 1359.56 779.309 1358.99 779.014 1358.76 778.489 C 1357.3 775.177 1358.34 655.381 1358.41 640.143 L 1396.23 630.192 z"/>
<path transform="translate(0,0)" fill="rgb(219,205,178)" d="M 1262.4 1061.75 C 1258.05 1057.54 1253.92 1053.17 1250.63 1048.07 C 1247.12 1042.63 1246.33 1037.06 1247.85 1030.78 C 1252.36 1012.23 1271.28 995.229 1287.03 985.881 C 1294.56 981.409 1307.39 974.132 1316.29 976.377 C 1319.22 979.045 1319.47 982.676 1321.25 986.208 C 1323.93 987.538 1324.75 987.029 1327.64 986.526 L 1328.91 986.145 C 1335.62 1001.61 1350.51 1023.77 1363.73 1034.16 C 1346.81 1039.02 1329.66 1044.56 1312.33 1047.7 C 1304.35 1040.6 1295.14 1032.13 1285.41 1027.49 C 1282.86 1026.28 1281.88 1026.46 1279.36 1027.53 L 1279.45 1029.35 C 1285.22 1037.44 1295.81 1044.26 1303.64 1050.49 A 493.456 493.456 0 0 1 1262.4 1061.75 z"/>
<path transform="translate(0,0)" fill="rgb(180,74,74)" d="M 1390.41 941.316 C 1391.32 941.264 1392.33 941.371 1393.22 941.545 C 1413.17 945.396 1444.42 990.782 1456.01 1008.06 A 5031.85 5031.85 0 0 1 1395.01 1025.62 C 1386.93 1028.08 1378.63 1030.05 1370.46 1032.24 C 1357.27 1016.35 1341.47 1000.19 1334.64 980.397 C 1351.9 958.75 1361.08 945.744 1390.41 941.316 z"/>
<path transform="translate(0,0)" fill="rgb(3,3,2)" d="M 1403.3 974.616 C 1401.73 974.046 1400.47 974.145 1399.79 972.517 C 1399.09 970.857 1398.88 969.274 1398.61 967.511 C 1394.17 961.88 1385.62 964.232 1382.67 957.437 C 1384.5 955.956 1386.09 955.888 1388.4 956.081 C 1393.48 956.507 1398.42 959.511 1401.28 963.692 C 1403 966.192 1404.42 969.102 1405.64 971.875 C 1414.97 975.574 1423.97 978.949 1428.03 989.059 C 1429.49 992.687 1430.26 997.139 1428.39 1000.76 C 1427.45 1002.57 1426.57 1002.87 1424.94 1003.99 C 1421.07 1004.49 1418.47 1003.45 1415.45 1001.06 C 1409.44 996.319 1402.67 986.63 1400.32 979.363 L 1400.67 977.162 L 1402.82 976.01 L 1403.3 974.616 z"/>
<path transform="translate(0,0)" fill="rgb(245,241,227)" d="M 1403.3 974.616 C 1411.15 976.046 1416.93 982.29 1421.32 988.663 C 1423.27 991.502 1423.33 993.46 1422.88 996.868 L 1421.58 997.899 C 1414.76 995.24 1407.14 982.101 1402.82 976.01 L 1403.3 974.616 z"/>
<path transform="translate(0,0)" fill="rgb(181,165,140)" d="M 1416.82 793.533 C 1441.65 808.559 1463.77 830.772 1485.54 849.916 A 6473.76 6473.76 0 0 0 1571.63 924.785 C 1571.78 939.903 1573.22 956.249 1571.51 971.216 C 1556.09 956.409 1540.74 941.471 1524.62 927.423 C 1488.6 896.034 1450.84 866.524 1414.66 835.245 C 1414.9 821.239 1415.12 807.455 1416.82 793.533 z"/>
<path transform="translate(0,0)" fill="rgb(148,131,108)" d="M 1204.12 208.361 C 1212.18 207.253 1220.91 207.413 1229.03 207.819 C 1256.25 209.181 1314.26 216.509 1333.03 237.699 C 1342.78 248.71 1363.57 282.03 1362.58 296.735 C 1358.35 305.484 1317.47 323.093 1306.92 329.091 C 1301.79 310.864 1297 295.64 1284.19 281.242 C 1276.32 273.711 1268.73 271.37 1258.34 269.304 C 1261.64 263.02 1264.65 256.915 1267 250.215 C 1255.57 242.455 1242.57 236.973 1231.49 228.976 C 1243.04 231.7 1259.51 243.038 1270.09 249.006 C 1276.84 246.954 1305.92 237.48 1309.56 234.295 C 1308.72 232.205 1308.28 231.591 1305.98 230.926 C 1296.79 228.26 1278.87 236.803 1270.6 240.314 C 1246.27 226.031 1220.93 215.54 1193.11 210.474 C 1196.58 209.198 1200.46 208.888 1204.12 208.361 z"/>
<path transform="translate(0,0)" fill="rgb(181,165,140)" d="M 746.648 1007.27 L 747.43 1007.86 C 749.55 1017.66 747.829 1036.44 747.821 1047.03 L 748.002 1137.4 C 727.489 1119.85 706.236 1103.09 685.383 1085.94 C 667.015 1070.7 647.782 1056.36 629.699 1040.83 C 645.248 1035.43 661.583 1031.52 677.417 1026.94 C 700.422 1020.27 723.419 1013.09 746.648 1007.27 z"/>
<path transform="translate(0,0)" fill="rgb(219,205,178)" d="M 743.501 971.183 C 745.172 971.019 745.521 971.103 747.027 971.645 C 749.579 979.069 747.949 990.74 747.792 998.562 L 597.351 1041.19 C 566.701 1050.08 535.582 1060.94 504.427 1067.65 C 499.79 1064.14 495.258 1060.47 490.681 1056.88 A 431.512 431.512 0 0 0 474.218 1044.1 C 499.636 1038.92 525.147 1029.88 550.195 1022.94 C 613.739 1005.33 679.548 986.093 743.501 971.183 z"/>
<path transform="translate(0,0)" fill="rgb(181,165,140)" d="M 1399.34 779.119 C 1404.5 780.173 1408.68 785.335 1412.29 788.925 C 1399.45 795.742 1382.19 798.178 1368.06 801.742 L 1294.28 820.481 L 1025.39 888.888 A 4114.85 4114.85 0 0 0 884.566 926.445 L 872.69 929.89 L 872.674 914.255 L 1232.6 820.501 A 7369.65 7369.65 0 0 1 1333.99 795.261 C 1355.76 790.042 1377.87 785.418 1399.34 779.119 z"/>
<path transform="translate(0,0)" fill="rgb(180,74,74)" d="M 523.465 740.093 C 558.451 753.056 590.796 758.804 627.744 762.359 C 621.23 791.287 612.218 819.516 603.077 847.701 L 602.44 849.985 L 600.554 850.982 C 567.128 844.693 533.912 831.49 504.447 814.68 C 509.476 789.974 513.541 763.358 523.465 740.093 z"/>
<path transform="translate(0,0)" fill="rgb(181,165,140)" d="M 620.859 1043.41 C 621 1043.51 621.17 1043.57 621.282 1043.69 C 633.551 1057.68 649.738 1068.11 664.171 1079.85 L 747.914 1148.43 L 748.008 1162.23 C 706.072 1132.5 668.253 1098.04 630.39 1063.45 C 620.752 1064.17 605.553 1064.04 598.554 1071.73 C 596.627 1073.85 595.921 1076.35 596.236 1079.17 C 598.252 1097.22 649.921 1135.13 664.433 1146.5 C 677.924 1157.11 691.275 1168.23 705.649 1177.61 C 719.214 1186.46 735.11 1194.37 747.692 1204.42 C 735.273 1199.3 722.312 1195.45 709.635 1191.01 A 1245.89 1245.89 0 0 1 661.198 1172.4 C 606.08 1149.61 555.643 1113.45 510.663 1074.75 C 524.549 1070.19 539.113 1067.05 553.206 1063.1 C 575.817 1056.78 598.237 1049.75 620.859 1043.41 z"/>
<path transform="translate(0,0)" fill="rgb(181,165,140)" d="M 1472.96 104.34 C 1473.23 104.537 1522.65 196.743 1523.84 201.493 C 1524.62 204.577 1523.57 208.13 1522.04 210.849 C 1516.79 220.149 1504.03 226.222 1493.96 228.906 C 1474.9 233.981 1459.74 228.728 1443.43 219.141 C 1414.55 199.561 1392.31 155.987 1378.44 124.263 C 1409.77 117.158 1441.4 110.357 1472.96 104.34 z"/>
<path transform="translate(0,0)" fill="rgb(180,74,74)" d="M 1266.58 279.823 C 1267.95 280.062 1267.7 279.974 1269.31 280.53 C 1279.21 283.96 1287.03 299.103 1291.39 308.066 C 1261.22 330.94 1221.55 347.585 1188.2 365.74 C 1112.91 406.729 1037.59 449.436 960.289 486.478 L 950.906 490.692 C 947.494 488.821 944.025 486.683 941.767 483.417 C 940.193 481.141 939.443 478.326 940.463 475.645 C 942.052 471.467 948.558 467.733 952.221 465.308 C 990.935 439.677 1032.58 417.213 1072.86 394.13 A 5273.9 5273.9 0 0 0 1266.58 279.823 z"/>
<path transform="translate(0,0)" fill="rgb(148,131,108)" d="M 1405.95 841.358 C 1422.68 849.408 1448.14 874.792 1463.08 887.461 C 1497.78 916.875 1535.19 944.292 1565.86 978.072 L 1544.25 984.321 C 1517.54 990.542 1490.98 998.607 1464.51 1005.82 C 1449.33 981.427 1430.94 954.822 1407.25 937.959 L 1405.95 841.358 z"/>
<path transform="translate(0,0)" fill="rgb(181,165,140)" d="M 1032.64 935.056 L 1035.02 935.163 C 1037.98 942.285 1035.96 996.901 1035.95 1008.25 C 1028.34 1009.96 998.591 1014.08 995.024 1018.81 C 995.969 1021.4 998.261 1023.11 1000.33 1024.83 C 1017.62 1039.15 1036.05 1052.41 1053.69 1066.33 C 1070.78 1079.81 1087.31 1094.19 1104.93 1106.96 C 1092.28 1109.4 1079.93 1114.14 1067.41 1117.34 C 1058.19 1104.78 1042.83 1094.7 1030.67 1084.94 C 1004.18 1061.85 975.296 1040.58 947.254 1019.43 C 926.553 1003.81 906.185 987.624 884.944 972.748 C 902.169 969.214 919.352 964.21 936.433 959.975 A 2605.73 2605.73 0 0 0 1032.64 935.056 z"/>
<path transform="translate(0,0)" fill="rgb(181,165,140)" d="M 1364.88 127.332 L 1368.02 126.722 C 1368.63 126.926 1369.3 127.001 1369.85 127.335 C 1371.24 128.185 1379.14 145.229 1380.33 147.553 C 1390.35 167.129 1401.68 185.639 1412.47 204.744 C 1412.12 218.342 1410.9 230.265 1403.24 242.04 C 1393.62 256.832 1379.82 264.322 1362.86 267.963 C 1354.7 255.749 1347.96 243.351 1338.63 231.858 C 1322.37 215.486 1303.63 212.075 1282.07 206.263 C 1274.56 187.053 1262.6 169.258 1254.04 150.421 C 1290.5 140.909 1327.85 134.3 1364.88 127.332 z"/>
<path transform="translate(0,0)" fill="rgb(181,165,140)" d="M 1243.38 152.235 L 1244.68 152.296 C 1250.38 157.806 1268.29 195.297 1272.54 205.016 C 1248.98 199.206 1226.43 197.775 1202.32 200.282 C 1198.48 200.682 1192.98 200.687 1189.53 202.361 C 1187.08 203.547 1185.52 205.206 1184.51 207.707 C 1183.43 210.364 1183.57 212.796 1184.77 215.405 C 1189.19 225.035 1217.53 232.947 1227.45 237.17 C 1234.17 240.028 1252.13 246.877 1253.99 254.593 C 1254.43 256.429 1254.28 258.273 1252.92 259.669 C 1250.11 262.557 1245.09 264.028 1241.95 266.812 C 1236.94 271.257 1233.86 279.455 1229.77 284.856 C 1223.94 292.554 1215.91 293.836 1206.93 295.051 C 1199.93 295.174 1193.22 294.563 1186.52 292.495 C 1144.26 279.47 1117.3 218.433 1098.23 182.377 C 1146.18 170.801 1195.03 162.019 1243.38 152.235 z"/>
<path transform="translate(0,0)" fill="rgb(148,131,108)" d="M 872.372 974.316 C 881.671 977.795 897.589 992.498 906.235 999.018 C 958.257 1038.24 1008.92 1079.09 1060.28 1119.18 L 1039.48 1124.61 A 5137 5137 0 0 0 964.663 1145.77 C 950.327 1133.27 935.224 1121.48 920.53 1109.41 C 904.813 1096.49 889.338 1082.99 872.282 1071.85 A 6470.29 6470.29 0 0 1 872.372 974.316 z"/>
<path transform="translate(0,0)" fill="rgb(181,165,140)" d="M 952.357 214.278 C 954.05 213.93 955.285 213.906 956.995 213.944 C 961.261 219.257 964.172 226.637 967.293 232.718 C 977.587 252.77 990.32 273.951 993.415 296.583 C 995.226 309.821 993.467 324.905 984.84 335.569 C 977.025 345.228 964.093 350.282 951.945 351.341 C 932.428 353.042 916.329 344.311 901.813 332.307 C 877.001 311.32 849.439 269.627 836.695 239.305 C 875.068 230.329 913.601 221.435 952.357 214.278 z"/>
<path transform="translate(0,0)" fill="rgb(181,165,140)" d="M 1088.97 184.338 C 1101.95 197.389 1118.83 242.93 1121.44 260.924 C 1123.55 275.505 1123.34 292.478 1113.77 304.542 C 1105.54 314.92 1091.57 319.966 1078.67 321.057 C 1057.14 322.879 1039.45 311.742 1023.77 298.329 C 1000.19 275.692 979.333 241.379 965.799 211.664 C 1006.57 201.622 1047.94 193.327 1088.97 184.338 z"/>
<path transform="translate(0,0)" fill="rgb(219,205,178)" d="M 424.036 629.488 C 437.26 633.33 450.605 636.932 463.534 641.692 L 463.443 939.385 C 463.403 950.815 465.104 1004.58 462.756 1011.3 L 459.727 1012.48 A 1763.32 1763.32 0 0 1 427.008 1022 C 422.631 974.948 424.779 925.247 424.624 877.878 L 424.036 629.488 z"/>
<path transform="translate(0,0)" fill="rgb(148,131,108)" d="M 1057.26 929.678 C 1059.85 930.39 1222.16 1039.5 1236.65 1049.95 C 1242.69 1054.31 1247.79 1058.56 1252.68 1064.18 L 1224.75 1072.55 A 1286.11 1286.11 0 0 0 1164.09 1091.44 C 1145.14 1082.19 1126.58 1067.78 1109 1056.09 C 1087.6 1041.86 1065.11 1028.37 1044.62 1012.88 C 1045.43 986.288 1044.85 959.497 1044.93 932.882 C 1049.25 932.155 1053.14 931.189 1057.26 929.678 z"/>
<path transform="translate(0,0)" fill="rgb(181,165,140)" d="M 829.74 240.438 C 833.126 244.371 835.747 253.208 838.127 258.208 C 850.114 283.402 866.314 309.105 868.993 337.464 C 870.16 349.819 868.275 363.37 859.838 373.003 C 852.282 381.629 841.114 385.205 829.943 385.722 C 807.569 386.757 788.596 376.964 772.392 362.335 C 745.328 334.964 728.767 298.734 709.006 266.044 C 749.181 257.398 789.231 247.381 829.74 240.438 z"/>
<path transform="translate(0,0)" fill="rgb(181,165,140)" d="M 699.385 267.326 C 699.956 267.688 700.597 267.96 701.099 268.414 C 705.368 272.272 728.276 318.17 731.21 325.351 A 137.032 137.032 0 0 1 738.498 348.779 C 741.712 364.03 742.936 382.798 733.648 396.22 C 727.172 405.579 716.488 411.027 705.402 412.665 C 682.412 416.063 662.929 404.714 645.197 391.58 C 617.175 366.671 599.398 324.651 578.718 293.139 C 619.138 285.827 659.18 275.78 699.385 267.326 z"/>
<path transform="translate(0,0)" fill="rgb(148,131,108)" d="M 501.117 312.615 L 549.555 329.23 C 543.73 340.99 534.864 352.015 527.152 362.613 A 2127.39 2127.39 0 0 0 494.842 407.583 A 14788.1 14788.1 0 0 0 364.005 597.248 L 342.528 602.178 A 1562.57 1562.57 0 0 0 300.29 611.926 A 9381.79 9381.79 0 0 0 501.117 312.615 z"/>
<path transform="translate(0,0)" fill="rgb(219,205,178)" d="M 1405.17 800.128 L 1406.21 801.031 C 1407.56 810.609 1406.15 821.665 1405.88 831.385 C 1363.69 843.249 1320.67 852.235 1278.22 863.14 L 1035.91 926.106 C 982.199 939.639 927.256 951.1 874.468 967.865 L 873.651 967.701 C 871.139 962.447 872.816 944.064 872.845 937.354 C 924.86 921.151 978.722 909.508 1031.5 896.012 L 1281.79 831.366 C 1322.67 820.868 1365.12 813.345 1405.17 800.128 z"/>
<path transform="translate(0,0)" fill="rgb(219,205,178)" d="M 1675.71 562.113 L 1678.08 562.336 C 1681.96 570.022 1678.06 940.192 1679.75 990.205 L 1644.2 1002.1 C 1642.19 1002.78 1642.4 1003.01 1640.2 1002.36 C 1637.85 993.465 1639.55 980.643 1639.52 971.16 L 1639.36 899.112 L 1638.94 571.163 L 1675.71 562.113 z"/>
<path transform="translate(0,0)" fill="rgb(148,131,108)" d="M 1748.8 494.941 L 1759.9 502.199 A 217.665 217.665 0 0 1 1742 536.33 C 1708.67 547.896 1668.42 554.324 1633.64 562.579 C 1608.75 568.484 1584.15 575.597 1559.38 581.954 C 1531.53 589.098 1503.52 595.498 1475.59 602.295 A 30668.6 30668.6 0 0 0 979.133 727.06 L 875.12 752.778 C 856.488 757.208 828.225 760.678 812.064 769.397 C 812.018 757.794 810.174 742.546 814.761 731.732 C 830.644 743.135 846.218 751.76 866.578 748.471 C 886.545 745.246 910.359 734.03 922.323 717.192 C 927.362 710.1 929.635 702.218 931.79 693.914 C 948.515 708.393 965.363 716.835 987.983 715.266 C 1009.7 713.76 1036.76 705.786 1051.54 688.833 C 1060.42 678.65 1063.13 667.358 1062.44 654.118 C 1085.07 671.719 1105.31 680.399 1134.53 676.647 C 1154.85 674.038 1177.96 663.97 1190.73 647.389 C 1198.72 637.006 1200.77 625.916 1200.98 613.139 C 1222.91 631.448 1247.85 642.942 1276.98 640.387 C 1297.21 638.612 1320.73 630.124 1333.95 614.038 C 1342.23 603.967 1344.48 592.841 1346.41 580.386 C 1367.54 598.668 1391.91 609.316 1420.25 607.414 C 1438.75 606.173 1458.99 598.383 1471.16 583.922 C 1479.67 573.812 1481.29 563.401 1481.1 550.706 C 1507.39 568.542 1530.17 576.461 1561.97 570.226 C 1580.02 566.687 1598.98 559.274 1609.6 543.388 C 1615.34 534.799 1617.13 526.427 1617.5 516.342 C 1639.43 532.777 1659.63 541.174 1687.41 537.249 C 1707.74 534.376 1727.93 526.108 1740.44 509.166 C 1743.71 504.732 1746.3 499.835 1748.8 494.941 z"/>
<path transform="translate(0,0)" fill="rgb(181,165,140)" d="M 1530.18 210.719 C 1553.49 248.002 1575.84 285.249 1600.94 321.399 C 1601.39 329.067 1602.1 336.826 1602.16 344.503 C 1602.24 354.493 1600.08 364.401 1592.72 371.578 C 1582.3 381.725 1562.75 386.665 1548.46 386.593 C 1523.24 386.465 1503.62 370.156 1486.76 353.211 C 1471.72 337.473 1458.75 319.124 1445.79 301.689 L 1408.11 252.007 C 1416.03 239.276 1420.44 226.803 1421.18 211.775 C 1429.4 220.091 1439.54 227.719 1450.06 232.847 C 1466.49 240.85 1485.36 241.441 1502.56 235.48 C 1515.33 231.053 1524.29 222.774 1530.18 210.719 z"/>
<path transform="translate(0,0)" fill="rgb(219,205,178)" d="M 860.469 764.134 L 862.466 764.408 C 865.312 769.955 863.235 1182.35 863.349 1220.44 A 1508.93 1508.93 0 0 1 823.074 1230.51 L 820.149 1229.75 C 818.749 1227.01 818.814 1224.17 818.733 1221.17 C 818.373 1207.9 819.031 1194.42 819.036 1181.13 L 819.079 1082.38 L 819.05 775.083 C 832.742 770.985 846.603 767.588 860.469 764.134 z"/>
<path transform="translate(0,0)" fill="rgb(181,165,140)" d="M 748.934 352.674 C 756.068 359.732 770.027 388.581 775.564 398.393 C 790.414 424.715 808.232 450.908 819.61 478.944 C 824.913 492.011 829.489 507.215 829.893 521.407 C 830.289 535.318 827.13 549.493 817.01 559.666 C 808.051 568.672 794.648 573.528 782.027 573.508 C 759.024 573.472 741.502 558.678 725.961 543.421 C 694.689 511.018 657.803 439.19 638.787 396.73 C 639.242 397.145 639.693 397.564 640.154 397.974 C 656.969 412.928 680.172 423.268 703.009 421.594 C 716.597 420.598 728.905 414.799 737.792 404.34 C 750.705 389.143 750.357 371.293 748.934 352.674 z"/>
<path transform="translate(0,0)" fill="rgb(181,165,140)" d="M 1629.83 573.314 C 1632.63 583.138 1630.73 661.772 1630.74 677.896 A 26184.4 26184.4 0 0 0 1631.25 1003.89 L 1600.28 987.065 A 954.362 954.362 0 0 0 1580.55 976.795 C 1579.55 933.307 1580.8 889.525 1580.87 846 L 1580.92 584.883 C 1597.34 581.68 1613.49 576.96 1629.83 573.314 z"/>
<path transform="translate(0,0)" fill="rgb(181,165,140)" d="M 1065.8 925.139 C 1088.46 921.817 1110.41 915.423 1132.56 909.727 L 1210.77 889.913 C 1273 873.738 1335.71 859.079 1397.78 842.401 C 1397.74 872.886 1397.63 903.566 1398.92 934.019 C 1376.91 930.979 1354.07 943.077 1337.03 955.925 C 1333.81 958.354 1330.98 960.991 1328.21 963.917 C 1327.7 971.431 1327.26 978.722 1328.91 986.145 L 1327.64 986.526 C 1320.85 966.21 1318.32 957.523 1328.41 937.592 C 1334.6 925.364 1345.19 912.151 1358.77 907.978 C 1362.7 906.769 1365.95 906.785 1369.92 907.663 C 1371.67 909.836 1371.98 910.776 1371.82 913.592 C 1371.62 917.192 1369.82 921.612 1371.25 924.99 C 1373.34 925.677 1373.45 925.597 1375.37 924.636 C 1380.3 922.165 1385.06 914.686 1386.4 909.471 C 1387.45 905.367 1386.59 899.818 1384.35 896.23 C 1381.81 892.154 1377.52 890.104 1372.93 889.252 C 1361.18 887.076 1346.74 891.018 1337.25 898.105 C 1333.92 900.586 1330.61 903.793 1328.38 907.319 C 1324.93 912.774 1306.9 958.693 1305.16 966.088 L 1304.71 967.941 C 1300.6 969.438 1285.33 977.29 1282.1 975.535 C 1278.09 973.354 1274.21 969.241 1270.88 966.11 C 1259.19 955.131 1247.55 943.238 1231.87 938.301 C 1218.82 942.311 1203.66 949.342 1196.84 961.931 C 1193.89 967.385 1193.34 973.321 1195.25 979.214 C 1200.45 995.237 1225.86 1018.5 1239.15 1028.45 C 1238.37 1032.46 1237.99 1036.31 1237.81 1040.38 C 1196.19 1010.78 1152.67 984.012 1110.32 955.489 C 1095.82 945.722 1079.23 936.214 1065.8 925.139 z"/>
<path transform="translate(0,0)" fill="rgb(181,165,140)" d="M 766.842 723.806 C 774.495 734.842 780.955 746.758 788.11 758.129 C 792.315 764.811 800.35 778.197 808.699 779.598 C 809.232 779.687 809.772 779.734 810.308 779.802 A 72.4403 72.4403 0 0 1 810.745 783.639 C 811.936 796.947 810.711 811.438 810.616 824.838 L 810.339 904.796 L 810.451 1179.65 C 810.445 1185.58 811.592 1222.87 809.017 1225.86 L 805.306 1224.89 C 788.949 1219.51 772.875 1213.27 756.761 1207.21 C 756.137 1191.12 756.847 1174.78 756.834 1158.67 L 756.796 1054.18 L 755.983 726.573 C 759.883 726.032 763.193 725.3 766.842 723.806 z"/>
<path transform="translate(0,0)" fill="rgb(181,165,140)" d="M 1575.07 984.119 C 1579.36 983.593 1616.09 1005.59 1622.8 1009.17 C 1592.62 1015.77 1562.88 1025.74 1533.25 1034.5 L 1386.28 1077.12 L 911.095 1207.13 L 872.101 1218.12 L 871.987 1181.66 C 891.774 1174.78 912.57 1169.7 932.719 1163.9 L 1071.73 1125.24 L 1451.21 1018.66 C 1492.38 1006.81 1534.18 996.937 1575.07 984.119 z"/>
<path transform="translate(0,0)" fill="rgb(181,165,140)" d="M 260.172 603.737 C 270.271 591.542 278.524 577.775 287.392 564.671 A 2943.44 2943.44 0 0 0 339.39 486.246 L 449.406 320.865 C 457.077 309.284 477.974 271.153 486.56 264.599 C 498.644 266.478 511.719 273.136 523.178 277.487 A 1112.99 1112.99 0 0 0 570.049 293.812 C 627.733 388.096 676.216 487.982 728.192 585.452 A 1969.37 1969.37 0 0 0 789.831 693.63 C 797.469 706.164 804.96 720.807 814.761 731.732 C 810.174 742.546 812.018 757.794 812.064 769.397 C 809.257 770.799 808.194 771.62 805.008 771.469 C 798.945 764.982 794.433 754.37 789.931 746.638 L 756.786 689.262 A 7934.02 7934.02 0 0 1 618.018 438.225 C 604.43 413.103 591.425 387.688 578.107 362.424 C 572.086 351.002 566.498 338.151 559.289 327.501 C 552.153 316.957 510.743 305.794 497.394 303.046 C 478.194 336.232 454.893 368.249 433.514 400.1 A 7237.82 7237.82 0 0 1 366.587 500.086 C 340.152 538.894 313.099 577.45 287.577 616.857 C 278.28 612.733 269.148 608.541 260.172 603.737 z"/>
<path transform="translate(0,0)" fill="rgb(181,165,140)" d="M 1369.39 84.4396 C 1379.91 85.2003 1390.99 88.6567 1401.37 90.7381 A 766.759 766.759 0 0 0 1457.7 100.04 C 1425.46 103.129 1384.11 114.154 1351.44 120.579 A 13096.2 13096.2 0 0 0 1078.26 178.404 C 913.834 214.925 748.236 246.427 584.105 284.276 A 855.175 855.175 0 0 0 572.498 286.335 C 547.822 276.488 522.654 267.674 497.62 258.778 C 535.278 252.645 572.953 242.708 610.251 234.529 C 659.414 223.748 708.858 214.171 758.116 203.818 A 13189 13189 0 0 1 928.161 170.298 A 20524.7 20524.7 0 0 1 1177.14 121.168 L 1302.59 96.8839 C 1324.64 92.5841 1347.11 86.9702 1369.39 84.4396 z"/>
<path transform="translate(0,0)" fill="rgb(245,241,227)" d="M 1570.98 588.279 C 1571.35 588.849 1571.82 589.367 1572.09 589.991 C 1573.96 594.368 1572.17 880.97 1572.22 914.205 C 1542.6 889.727 1514.39 863.251 1485.31 838.109 C 1459.35 815.444 1432.77 792.882 1405.71 771.539 C 1406.13 723.734 1405.2 675.936 1405.77 628.109 L 1570.98 588.279 z"/>
<path transform="translate(0,0)" fill="rgb(245,241,227)" d="M 472.401 643.835 L 553.39 668.234 C 541.224 681.43 538.674 696.238 528.549 709.143 C 526.338 709.567 524.161 710.053 521.974 710.586 C 519.198 713.091 518.204 715.72 517.355 719.284 C 515.787 725.868 517.726 732.71 516.641 739.317 C 515.071 748.878 510.056 759.277 507.307 768.689 C 503.128 782.996 500.671 797.544 498.23 812.218 C 497.962 812.459 497.704 812.713 497.425 812.941 C 494.193 815.584 492.737 817.493 491.417 821.538 C 489.694 826.818 488.955 832.339 491.68 837.415 C 500.377 853.615 547.758 869.034 564.661 873.435 C 621.992 888.363 600.744 855.366 614.41 847.385 L 618.673 848.764 C 642.474 841.956 657.042 834.323 674.122 816.23 C 667.501 793.724 654.713 772.858 647.758 750.598 C 645.655 743.869 648.89 735.652 645.604 729.125 C 643.486 724.919 637.637 723.219 633.546 721.59 C 629.271 709.96 629.142 698.544 623.675 685.646 C 658.168 698.854 694.601 708.344 729.896 719.294 L 747.011 724.5 L 747.668 937.826 C 717.097 944.089 686.827 952.724 656.541 960.273 A 5801.03 5801.03 0 0 0 472.348 1009.13 C 473.237 972.807 472.714 936.356 472.804 900.016 L 472.401 643.835 z"/>
<path transform="translate(0,0)" fill="rgb(219,205,178)" d="M 546.181 351.009 L 554.665 336.979 C 572.569 367.722 587.272 400.326 604.268 431.581 C 656.677 527.962 708.584 624.251 763.879 719.036 A 3997.88 3997.88 0 0 1 619.324 675.219 C 614.331 666.96 609.743 658.525 602.574 651.908 C 607.015 648.555 610.367 645.356 611.043 639.56 C 611.506 635.582 610.109 631.886 607.485 628.91 C 603.74 624.664 598.134 622.204 592.495 622.139 C 588.051 622.088 583.378 623.668 580.277 626.949 C 576.286 631.17 576.064 636.627 575.956 642.108 C 575.91 644.469 576.114 646.518 574.429 648.401 C 573.386 649.567 571.79 650.577 570.563 651.542 C 566.977 654.363 563.726 657.763 560.534 661.017 C 542.982 654.621 524.766 649.631 506.867 644.277 A 3694.24 3694.24 0 0 0 427.151 620.967 C 408.971 615.918 389.058 608.553 370.43 605.908 L 369.22 605.298 C 385.079 581.081 401.765 557.507 418.075 533.603 C 428.535 518.274 438.333 502.357 449.417 487.476 A 5288.13 5288.13 0 0 0 449.722 569.163 C 449.85 576.423 448.916 586.282 450.663 593.182 C 451.185 595.249 451.669 595.396 453.369 596.447 L 454.497 595.63 C 460.129 582.885 457.618 495.779 457.934 475.552 C 472.381 452.75 488.724 430.4 504.263 408.284 C 517.79 389.033 530.939 368.944 546.181 351.009 z"/>
<path transform="translate(0,0)" fill="rgb(3,3,2)" d="M 629.619 525.193 C 631.325 526.062 632.445 526.788 633.127 528.609 C 636.969 538.865 637.242 573.853 632.835 583.654 C 631.617 583.084 630.915 582.43 629.918 581.545 C 625.693 568.564 626.68 538.458 629.619 525.193 z"/>
<path transform="translate(0,0)" fill="rgb(3,3,2)" d="M 583.961 493.111 C 585.667 493.731 586.15 494.045 587.458 495.188 C 591.58 506.596 591.324 556.105 587.606 567.987 L 584.983 567.706 C 584.251 567.035 584.071 566.966 583.552 565.943 C 579.905 558.76 580.816 501.007 583.961 493.111 z"/>
<path transform="translate(0,0)" fill="rgb(3,3,2)" d="M 546.181 351.009 C 549.641 353.223 551.075 355.326 551.958 359.368 C 555.319 374.765 553.054 425.35 553.053 445.016 L 553.079 548.137 C 553.079 566.093 553.656 584.272 552.895 602.205 C 552.655 607.847 552.041 613.166 550.076 618.505 C 547.541 617.598 546.632 617.653 545.503 615.014 C 543.124 609.448 543.614 370.463 546.181 351.009 z"/>
<path transform="translate(0,0)" fill="rgb(245,241,227)" d="M 1305.09 653.181 C 1306.21 653.224 1305.44 653.13 1307.27 653.975 C 1308.91 667.253 1307.27 682.675 1307.28 696.201 L 1307.24 792.911 L 875.269 904.472 L 874.166 904.678 L 872.743 903.565 C 871.769 888.19 872.691 872.228 872.727 856.798 L 872.944 761.445 L 1305.09 653.181 z"/>
<path transform="translate(0,0)" fill="rgb(219,205,178)" d="M 1128.78 254.663 C 1133.13 258.151 1136.35 264.421 1139.85 268.882 C 1143.15 273.084 1147.02 276.94 1150.91 280.588 C 1169.62 298.119 1187.81 304.364 1213.22 303.701 A 11180.9 11180.9 0 0 1 1060.74 392.025 C 1028.08 410.579 993.556 429.392 961.938 449.403 C 954.308 454.232 940.705 461.083 936.192 468.942 C 933.361 473.871 932.297 479.052 934.15 484.471 C 935.801 489.299 939.398 494.098 944.08 496.33 C 948.102 498.247 951.458 497.565 955.455 496.123 C 966.306 492.206 976.709 486.284 986.989 481.053 L 1038 454.857 A 10121.4 10121.4 0 0 0 1230.17 353.12 C 1242.96 346.298 1272.05 328.714 1284.05 324.81 C 1287.57 327.78 1289.81 328.377 1294.33 328.438 C 1295.92 328.459 1296.23 328.9 1297.56 329.712 L 1297.93 332.521 L 1296.5 334.145 C 1294.49 334.67 1291.83 335.091 1290.01 336.028 C 1287.96 337.083 1287.63 338.762 1287.46 340.919 C 1286.74 350.424 1302.78 371.442 1309.14 377.836 C 1309.38 378.084 1309.64 378.323 1309.89 378.567 C 1321.2 374.842 1332.17 368.658 1342.85 363.391 C 1355.6 357.099 1368.63 351.087 1381.03 344.123 C 1382.46 340.087 1384.3 336.173 1386 332.242 C 1383.81 318.578 1378.58 310.539 1368.53 301.41 L 1370.05 298.722 L 1369.04 298.368 L 1370.23 298.166 L 1371.78 294.399 C 1370.12 288.12 1367.82 282.038 1365.64 275.926 C 1380.76 273.867 1390.41 267.201 1402.43 258.359 C 1419.7 282.533 1438.47 305.64 1455.81 329.81 C 1465.75 343.665 1476.02 357.52 1482.85 373.25 C 1487.1 383.047 1491.06 395.792 1486.59 406.103 C 1482.68 415.128 1473.82 418.953 1465.25 422.326 C 1441.35 429.809 1416.25 434.853 1391.84 440.479 A 9467.68 9467.68 0 0 0 1273.76 467.574 C 1191.54 486.637 1110.11 508.696 1028.15 528.773 A 5593.81 5593.81 0 0 0 952.826 547.211 C 936.691 551.385 919.994 557.019 903.604 559.816 C 900.5 560.346 897.876 560.186 894.828 559.453 C 886.951 557.559 881.648 553.959 876.14 548.076 C 863.17 534.223 854.153 516.61 844.247 500.559 C 817.24 456.801 792.703 411.631 766.032 367.672 C 773.556 374.485 781.235 380.743 790.27 385.466 C 807.385 394.413 827.616 397.122 846.137 391.054 C 857.55 387.316 866.782 380.008 872.006 369.072 C 880.729 350.814 877.129 330.189 870.771 311.887 C 883.569 327.858 899.431 344.174 918.083 353.185 C 933.281 360.527 951.102 362.418 967.169 356.79 C 980.5 352.12 991.589 342.719 997.584 329.845 C 1004.94 314.041 1002.9 295.723 996.851 279.9 C 1006 291.91 1016.28 303.35 1028.26 312.601 C 1043.66 324.479 1062.13 332.759 1081.95 330.135 C 1097 328.142 1112.11 320.395 1121.14 307.979 C 1132.96 291.727 1131.97 273.318 1128.78 254.663 z"/>
<path transform="translate(0,0)" fill="rgb(181,165,140)" d="M 1610.71 334.58 C 1621.66 348.295 1631.2 363.352 1642.14 377.2 A 1031.61 1031.61 0 0 0 1744.01 488.693 C 1740.5 494.297 1737.08 500.138 1732.68 505.107 C 1718.82 520.771 1696.54 528.459 1676.02 529.284 C 1663.59 529.784 1651.84 527.293 1640.81 521.495 C 1613.42 507.091 1570.46 454.764 1549.91 429.192 C 1541.21 418.358 1532.63 405.92 1522.28 396.622 L 1521.22 395.689 C 1536.23 430.759 1582.39 479.798 1608.4 508.776 L 1608.5 509.894 C 1609.52 522.244 1608.05 532.585 1599.56 542.208 C 1587.16 556.247 1565.45 562.782 1547.27 563.745 C 1496.09 566.455 1465.22 523.512 1437.14 486.964 C 1430.46 478.265 1423.8 467.702 1415.66 460.372 L 1414.76 460.907 C 1419.39 476.714 1435.53 498.688 1445.84 511.364 C 1454.55 522.077 1469.8 535.097 1473.01 548.761 C 1474.97 557.15 1473.14 565.811 1468.51 573.011 C 1460.28 585.843 1445.05 593.74 1430.51 596.97 C 1421.88 598.887 1412.79 598.833 1404.04 597.894 C 1372.34 594.496 1353.46 576.35 1331.7 555.018 C 1310.87 534.6 1279.56 498.937 1255.85 484.087 C 1273.97 513.977 1313.22 546.048 1337.02 573.731 C 1337.19 584.71 1336.88 595.057 1330.58 604.594 C 1321.53 618.276 1301.27 626.673 1285.66 629.847 C 1224.1 642.362 1183.43 586.599 1146.85 546.668 C 1139.53 538.684 1130.99 527.176 1121.73 521.528 C 1121.21 521.214 1120.68 520.928 1120.16 520.628 L 1120.98 519.396 L 1119.66 521.155 L 1120.92 524.014 L 1119.89 520.708 C 1121.29 535.134 1178.62 591.186 1191.52 607.63 L 1192.21 608.527 A 124.954 124.954 0 0 1 1192.53 616.916 C 1192.53 628.95 1186.66 640.536 1178.05 648.743 C 1163.42 662.693 1139.74 668.638 1119.99 668.346 C 1087.1 667.858 1066.7 647.541 1045.17 625.282 A 1161.02 1161.02 0 0 1 1013.17 590.386 C 1003.13 578.784 992.996 563.064 980.579 554.072 C 988.504 578.331 1017.44 607.855 1035.24 626.984 C 1041.8 634.04 1049.52 640.932 1054.67 649.112 C 1055.67 661.824 1054.3 672.942 1045.76 683.132 C 1032.82 698.561 1007.51 705.382 988.228 707.033 C 923.534 712.575 884.653 602.588 841.334 566.336 L 840.229 565.421 C 845.481 579.341 854.763 591.841 863.122 604.049 A 1529.55 1529.55 0 0 0 894.764 648.925 C 904.519 662.023 914.997 674.809 923.893 688.503 C 923.472 692.39 922.94 696.167 921.702 699.893 C 916.66 715.075 904.268 724.659 890.484 731.497 C 874.755 739.3 859.864 743.621 842.532 737.586 C 834.264 734.707 822.852 729.554 816.93 722.934 C 808.838 713.89 800.437 694.658 793.948 683.629 C 766.427 636.855 737.097 590.411 713.377 541.573 A 127.152 127.152 0 0 0 730.421 559.49 C 746.785 573.699 766.014 583.084 788.149 581.365 C 802.278 580.268 815.744 574.443 824.937 563.392 C 839.264 546.169 838.766 525.295 836.702 504.328 C 847.212 523.619 860.17 550.675 879.726 561.969 C 887.886 566.682 900.371 567.956 909.668 566.441 C 920.179 564.729 930.727 561.482 941.082 558.986 A 5926.76 5926.76 0 0 0 1007.22 542.752 L 1203.69 493.276 C 1251.14 481.382 1299.11 470.065 1346.87 459.433 C 1384.72 451.006 1423.75 443.365 1460.98 432.571 C 1473.69 428.89 1488.74 422.81 1495.15 410.408 C 1501.58 397.961 1496.02 382.881 1491.78 370.637 C 1508.69 383.756 1525.08 395.479 1547.3 395.225 C 1565.21 395.021 1588.29 389.345 1600.82 375.786 C 1611.55 364.165 1611.06 349.29 1610.71 334.58 z"/>
<path transform="translate(0,0)" fill="rgb(181,165,140)" d="M 1822.53 1479.11 C 1822.47 1482.85 1808.74 1502.55 1806.02 1507.68 C 1796.57 1525.56 1790.08 1546.01 1788.78 1566.27 C 1788.5 1570.64 1788.36 1573.85 1791.34 1577.23 C 1793.43 1577.27 1794.13 1577.45 1795.87 1576.13 C 1800.16 1572.87 1803.55 1567.69 1807.57 1563.95 C 1816.04 1556.07 1825.46 1549.19 1835 1542.67 C 1821.11 1559.82 1814.54 1572.11 1814.81 1594.65 C 1828.49 1597.7 1842.85 1601.33 1851.98 1613.05 C 1854.51 1616.29 1856.01 1620.1 1855.36 1624.26 C 1854.53 1629.57 1851.56 1632.33 1847.36 1635.31 C 1829.72 1647.83 1781.08 1662.18 1757.73 1671.33 A 5449.97 5449.97 0 0 1 1595.99 1730.73 L 1172.67 1877.85 L 971.191 1949.11 C 946.401 1958 922.235 1969.85 897.105 1977.54 A 88.3633 88.3633 0 0 1 856.38 1979.84 C 833.387 1975.57 809.174 1962.15 788.018 1952.27 A 5989.47 5989.47 0 0 0 711.583 1916.75 A 17295.4 17295.4 0 0 1 368.928 1757.97 C 317.874 1733.78 265.975 1711.47 215.823 1685.37 C 208.836 1681.73 198.452 1676.27 194.172 1669.48 C 192.608 1667 192.11 1663.75 193.171 1660.97 C 199.477 1644.45 242.94 1636.25 258.514 1629.93 C 261.392 1621.26 248.008 1598.32 244.108 1590 C 262.165 1599.44 270.718 1614.04 281.374 1630.68 C 283.553 1631.44 283.515 1631.38 285.68 1630.54 C 286.548 1629.37 287.299 1628.29 287.625 1626.84 C 290.378 1614.55 280.204 1576.59 275.811 1564.92 C 272.705 1556.66 268.912 1549.18 264.196 1541.74 C 269.178 1545.56 274.892 1549.44 278.957 1554.22 C 288.995 1566.03 293.638 1587.55 295.593 1602.6 C 296.527 1609.8 296.728 1617.51 298.585 1624.51 L 300.204 1625.24 C 301.786 1624.86 302.898 1625.07 303.795 1623.56 C 309.728 1613.57 296.499 1575.28 292.695 1563.68 C 312.216 1577.78 318.189 1585.78 322.218 1610.01 C 322.77 1613.33 323.378 1617.67 325.44 1620.41 C 326.545 1621.88 326.03 1621.39 328.126 1621.64 L 330.006 1619.85 C 334.192 1608.31 328.675 1567.37 325.552 1554.36 C 324.284 1549.08 322.153 1544.19 319.988 1539.23 C 323.658 1542.73 327.12 1546.26 330.231 1550.27 C 340.841 1563.97 347.967 1582.58 345.509 1600.13 C 344.898 1604.5 343.721 1609.2 344.972 1613.5 L 346.809 1614.45 C 348.459 1613.81 348.848 1613.95 349.895 1612.38 C 355.297 1604.3 352.636 1585.41 350.913 1576.31 C 354.176 1582.01 356.783 1587.2 358.255 1593.68 C 363.379 1616.25 360.951 1670.41 360.982 1695.25 C 360.981 1699.2 361.232 1703.17 361.393 1707.12 C 379.029 1719.81 404.305 1727.97 424.747 1735.39 C 433.251 1733.2 442.944 1730.48 449.402 1724.23 C 458.903 1715.04 458.011 1700.37 458.548 1688.15 C 508.545 1708.06 557.888 1729.89 607.616 1750.47 C 658.885 1771.7 711.414 1791.98 761.465 1815.9 C 761.666 1836.32 762.916 1858.56 760.88 1878.79 C 759.125 1881.51 754.04 1880.91 750.709 1882.02 C 749.268 1884.27 749.519 1884.19 750.079 1886.84 C 756.32 1895.08 768.236 1897.27 776.471 1903.02 C 785.214 1909.13 793.335 1920.09 803.615 1923.28 C 806.078 1922.86 805.8 1923.41 807.38 1921.18 C 805.546 1912.19 781.625 1897.81 774.317 1891.78 C 784.813 1889.35 819.647 1925.1 832.446 1929.34 C 835.112 1930.22 835.917 1929.84 838.283 1928.49 C 839.175 1926.72 839.6 1925.41 839.402 1923.44 C 837.729 1906.76 813.046 1875.92 800.384 1865.18 C 812.617 1869.46 823.724 1874.19 833.851 1882.46 C 843.021 1889.96 851.058 1899.81 856.676 1910.23 C 859.179 1914.88 861.309 1920.12 864.364 1924.41 C 865.482 1925.98 866.501 1926.76 868.296 1927.53 L 869.972 1926.52 C 870.546 1925.08 870.703 1923.87 870.676 1922.3 C 870.504 1911.95 852.347 1890.51 845.605 1883.31 C 856.24 1891.44 867.025 1899.56 876.36 1909.21 C 881.34 1914.36 886.443 1926.67 892.951 1928.73 C 898.859 1925.85 915.876 1890.74 920.487 1883.44 C 925.825 1874.97 931.823 1866.98 937.81 1858.97 C 928.644 1880.72 924.477 1904.79 918.53 1927.63 C 926.555 1920.97 933.198 1910.71 939.988 1902.71 C 946.623 1894.88 954.02 1888.16 961.72 1881.43 C 957.333 1888.98 934.499 1920.44 934.375 1925.06 C 935.734 1925.89 935.718 1926.34 937.051 1926.06 C 941.232 1925.19 946.173 1918.86 948.897 1915.52 C 956.29 1906.47 977.864 1874.65 976.816 1863.83 L 975.367 1862.97 C 965.076 1865.32 943.617 1887.55 934.957 1895.18 C 937.975 1881.41 942.023 1869.21 948.088 1856.47 C 950.959 1850.44 957.337 1843.39 957.868 1836.77 C 958.047 1834.53 958.163 1834.4 956.661 1832.63 C 956.038 1832.71 955.392 1832.67 954.794 1832.85 C 950.23 1834.27 944.564 1840.9 941.309 1844.34 A 261.896 261.896 0 0 0 892.796 1915.93 C 889.716 1911.46 886.403 1907.19 883.073 1902.9 L 882.68 1835.91 C 906.076 1829.29 928.966 1820.68 952.011 1812.95 L 1102.33 1762.29 A 16296.8 16296.8 0 0 0 1601.2 1590.15 A 1759.92 1759.92 0 0 1 1600.92 1633.62 C 1613.27 1641.17 1628.51 1643.96 1641.52 1650.65 C 1658.71 1642.2 1677.42 1637.21 1694.76 1628.92 C 1694.85 1595.41 1693.95 1561.92 1693.92 1528.41 C 1709.1 1532.35 1724.39 1535.83 1729.46 1552.79 C 1730.66 1556.82 1731.55 1561.44 1734.32 1564.69 C 1738.19 1565.11 1744.51 1551.83 1746.95 1548.25 C 1764.96 1521.84 1796.31 1496.83 1822.53 1479.11 z"/>
<path transform="translate(0,0)" fill="rgb(181,165,140)" d="M 369.465 1702.6 C 368.481 1676.33 369.256 1649.81 369.39 1623.52 A 13610.4 13610.4 0 0 0 369.941 1482.13 L 369.557 999.252 L 369.288 735.004 L 368.916 652.692 C 368.796 637.248 367.367 620.571 369.22 605.298 L 370.43 605.908 C 370.622 606.868 370.726 607.6 371.122 608.53 C 374.302 615.994 406.178 624.286 415.332 627.455 A 13575 13575 0 0 0 418.853 1041.57 L 420.174 1271.85 A 21896.4 21896.4 0 0 1 420.089 1494.62 L 420.064 1561.85 C 420.068 1575.1 419.389 1588.78 420.765 1601.97 C 421.332 1607.39 421.235 1610.63 425.814 1614.18 C 439.916 1625.1 461.384 1631.36 477.872 1638.09 L 563.292 1672.64 L 684.57 1721.85 C 710.702 1732.54 736.955 1744.46 763.669 1753.56 C 765.861 1754.31 767.694 1754.78 770.036 1754.3 C 771.757 1753.95 771.792 1753.31 772.764 1752.01 C 774.798 1719.83 773.004 1682.01 772.944 1649.33 L 772.238 1445.37 L 771.945 1356.05 C 771.953 1341.46 773.782 1324.1 771.15 1309.85 C 769.662 1307.8 769.667 1307.57 767.267 1306.86 L 765.827 1308.23 C 761.775 1318.91 763.96 1371.78 763.953 1386.47 A 14765.4 14765.4 0 0 0 764.657 1563.09 L 764.834 1745.93 L 743.293 1736.39 L 743.099 1643.65 C 743.094 1634.2 744.75 1616.72 742.974 1608.39 C 742.389 1605.65 740.971 1603.92 738.684 1602.38 L 736.849 1602.76 C 735.302 1604.92 734.888 1606.72 734.714 1609.32 C 733.896 1621.57 734.912 1634.65 734.906 1647.01 L 734.867 1733.04 A 8125.72 8125.72 0 0 1 656.024 1701.21 C 655.28 1654.41 659.752 1193.41 655.66 1184.2 C 654.725 1182.09 654.138 1182.18 652.088 1181.51 L 650.219 1183.12 C 648.892 1186.66 648.39 1189.86 648.277 1193.64 C 647.567 1217.38 648.283 1241.45 648.22 1265.22 L 647.975 1422.28 L 647.79 1589.84 A 5822.62 5822.62 0 0 0 647.623 1698.03 C 611.305 1683.56 574.755 1669.18 539.025 1653.33 A 10254.5 10254.5 0 0 0 539.808 1453.8 C 539.754 1442.81 541.397 1411.48 539.05 1402.9 C 538.389 1400.48 537.785 1399.68 535.632 1398.51 L 533.006 1399.39 C 531.183 1402 531.18 1404.96 531.029 1408.03 C 529.712 1434.86 531.191 1462.68 531.254 1489.61 L 531.046 1650.82 C 499.889 1636.81 457.359 1624.79 429.031 1607.51 A 42238 42238 0 0 1 427.013 1030.06 C 436.395 1035.44 447.374 1038.79 457.475 1042.64 C 458.934 1079.18 458.159 1115.99 458.091 1152.56 C 458.069 1164.27 457.215 1176.34 457.754 1187.98 C 457.843 1189.89 458.271 1190.98 459.415 1192.55 C 461.987 1193.34 462.135 1193.26 464.695 1192.38 C 465.745 1191.05 466.176 1190.11 466.385 1188.41 C 468.243 1173.38 466.914 1156.94 466.905 1141.74 L 466.831 1048.3 C 490.478 1068.34 514.547 1087.95 537.978 1108.23 C 537.165 1109.04 535.151 1108.34 533.589 1109.03 C 533.136 1110.22 532.939 1110.58 532.743 1112 C 530.911 1125.26 532.485 1149.13 532.461 1163.73 C 532.418 1189.57 530.721 1216.95 532.383 1242.58 C 532.629 1246.37 532.862 1249.84 535.184 1252.98 C 537.415 1253.3 537.356 1253.28 539.258 1252.06 C 542.627 1245.9 541.062 1127.53 541.08 1110.5 C 607.956 1165.05 675.338 1188.84 755.656 1216.06 C 777.803 1223.56 799.498 1232.23 821.944 1238.89 L 821.303 1863.3 C 813.2 1860.09 800.923 1856.23 792.157 1856.97 C 789.469 1857.2 788.565 1857.73 786.915 1859.78 C 786.875 1866.23 797.481 1871.76 802.198 1875.76 C 813.996 1885.75 824.012 1906.32 831.043 1920.27 C 812.085 1903.48 794.281 1889.52 769.775 1881.92 C 769.949 1858.7 771.941 1833.71 769.305 1810.72 A 55.9531 55.9531 0 0 0 765.955 1808.71 C 746.429 1797.72 716.053 1787.32 694.509 1778.07 A 12276.2 12276.2 0 0 0 521.789 1705.71 C 511.936 1701.73 422.107 1663.59 421.236 1663.53 C 420.735 1663.49 420.266 1663.79 419.781 1663.92 C 414.762 1674.62 417.776 1710.46 418.013 1724.14 C 401.788 1717.43 384.791 1711.2 369.465 1702.6 z"/>
<path transform="translate(0,0)" fill="rgb(219,205,178)" d="M 1682.4 999.95 L 1684.07 1000.54 C 1686.83 1007.96 1684.39 1100.51 1684.35 1115.32 L 1683.78 1442.41 L 1685.04 1623.96 C 1672.83 1629.88 1659.4 1634.16 1646.79 1639.28 C 1646.76 1625.93 1648.52 1577.29 1645.52 1567.82 C 1645.22 1566.86 1645.26 1566.75 1644.35 1566.45 C 1641.13 1565.39 1637.05 1566.87 1634.14 1568.18 C 1614.77 1576.93 1593.9 1583.31 1573.93 1590.65 L 1445.4 1636.61 A 18954.4 18954.4 0 0 1 1038.58 1775.03 L 936.022 1809.64 C 915.629 1816.45 894.187 1822.4 874.444 1830.84 C 874.038 1840.78 874.315 1850.8 874.318 1860.75 L 874.701 1896.1 C 861.572 1883.57 846.438 1871.8 829.173 1865.7 L 829.782 1237.78 A 43820 43820 0 0 0 1468.78 1061.87 C 1508.34 1050.41 1547.77 1038.35 1587.42 1027.23 C 1619.21 1018.32 1651.13 1010.64 1682.4 999.95 z"/>
<path transform="translate(0,0)" fill="rgb(3,3,2)" d="M 1639.44 1055.97 C 1642.03 1056.28 1642.3 1056.25 1644.24 1057.96 C 1648.87 1068.85 1645.94 1127.69 1645.78 1143.15 C 1621.52 1146.86 1596.89 1155.97 1573.26 1162.75 L 1460.4 1193.96 A 11981.9 11981.9 0 0 0 1240.21 1257.31 L 1057.19 1309.62 C 998.378 1326.91 939.946 1345.48 880.822 1361.72 L 877.497 1361.14 C 876.256 1360.08 875.686 1359.83 875.072 1358.24 C 873.292 1353.63 873.404 1292.76 874.201 1283.26 C 874.461 1280.16 874.879 1277.64 876.235 1274.84 C 889.344 1265.08 996.545 1240.51 1020.62 1233.64 L 1460.92 1107.2 C 1520.4 1089.95 1580.29 1074.39 1639.44 1055.97 z"/>
<path transform="translate(0,0)" fill="rgb(245,241,227)" d="M 1169.55 1200.05 C 1173.37 1201 1179.06 1205.2 1181.03 1208.65 C 1182.58 1211.36 1183.07 1214.53 1181.86 1217.49 C 1181.01 1219.56 1179.28 1221.03 1177.31 1222 C 1171.18 1225.03 1163.85 1222.32 1157.74 1220.5 C 1150.08 1217.71 1143.28 1214.74 1136.74 1209.78 C 1147.53 1206.2 1158.63 1203.26 1169.55 1200.05 z"/>
<path transform="translate(0,0)" fill="rgb(180,74,74)" d="M 1044.17 1236.23 C 1045.61 1235.98 1045.89 1235.89 1047.37 1235.84 C 1053.08 1235.68 1061.38 1242.83 1064.9 1246.82 C 1068.46 1250.87 1072.16 1256.61 1071.11 1262.28 C 1070.65 1264.74 1068.95 1266.46 1066.75 1267.52 C 1058.92 1271.3 1047.55 1266.88 1039.99 1264.14 C 1028.12 1258.75 1015.03 1253.69 1004.09 1246.58 A 1072.22 1072.22 0 0 1 1044.17 1236.23 z"/>
<path transform="translate(0,0)" fill="rgb(180,74,74)" d="M 1472.8 1113.24 C 1481.5 1111.24 1532.66 1140.64 1543.7 1146.62 C 1534.9 1147.32 1526.16 1147.84 1517.33 1148 C 1488.36 1147.64 1467.65 1138.82 1444.94 1120.93 A 519.16 519.16 0 0 1 1472.8 1113.24 z"/>
<path transform="translate(0,0)" fill="rgb(180,74,74)" d="M 941.429 1264.19 C 947.542 1265.96 956.722 1273.58 960.319 1278.71 C 962.65 1282.04 963.754 1285.73 962.944 1289.77 C 961.214 1298.41 951.524 1305.57 944.341 1309.91 C 929.973 1318.59 913.791 1321.77 897.42 1317.63 C 891.856 1315.84 887.407 1313.19 882.601 1309.97 C 882.327 1304.73 882.628 1299.41 882.728 1294.16 C 885.956 1293.31 891.316 1292.45 893.336 1289.6 C 890.436 1286.67 886.245 1287.47 883.131 1284.79 L 883.208 1282.03 C 888.17 1276.71 931.654 1266.37 941.429 1264.19 z"/>
<path transform="translate(0,0)" fill="rgb(181,165,140)" d="M 1635.77 1066.13 L 1636.65 1066.87 C 1639.08 1081.12 1637.09 1118.63 1637.03 1135.21 C 1615.31 1140.47 1594.32 1148.4 1572.64 1153.81 C 1555.2 1143.54 1538.75 1132.78 1520.64 1123.54 C 1509.98 1118.29 1499.02 1113.57 1488.14 1108.79 C 1509.02 1104.42 1529.71 1097.1 1550.19 1091.07 C 1578.69 1082.68 1607.41 1075.01 1635.77 1066.13 z"/>
<path transform="translate(0,0)" fill="rgb(181,165,140)" d="M 1433.91 1124.19 L 1435.54 1124.38 L 1434.86 1123.8 C 1440.09 1124.69 1448.16 1132.57 1453.01 1135.65 C 1476.64 1150.63 1496.2 1157.56 1524.5 1155.77 C 1532.38 1155.27 1540.31 1153.96 1548.21 1154.06 C 1551.23 1154.09 1554.91 1154.17 1557.16 1156.43 C 1553.85 1160.74 1442.49 1189.37 1428.85 1193.27 L 898.243 1347.84 L 882.346 1352.53 L 882.204 1319.02 C 895.307 1327.32 908.12 1329.62 923.369 1326.75 C 939.406 1323.73 956.549 1315.43 965.75 1301.47 C 969.894 1295.18 971.958 1287.94 970.043 1280.5 C 967.672 1271.29 960.4 1265.68 952.716 1260.99 C 966.918 1257.21 981.01 1252.88 995.125 1248.78 C 1009.25 1260.17 1044.8 1279.36 1062.78 1276.97 C 1068.65 1276.2 1074.85 1273.61 1078.43 1268.69 C 1080.8 1265.44 1081.48 1261.55 1080.78 1257.63 C 1078.7 1245.95 1068.43 1237.54 1059.14 1231.27 C 1081.84 1225.66 1104.4 1218.72 1126.88 1212.27 C 1138.56 1222.77 1153.5 1232.26 1169.73 1232.81 C 1176.37 1233.04 1184.13 1231.06 1188.96 1226.27 C 1191.61 1223.65 1192.84 1220.27 1192.6 1216.57 C 1192.04 1208.01 1185.94 1202.22 1180.07 1196.82 C 1209.24 1187.8 1238.74 1180.16 1268.04 1171.59 A 8235.19 8235.19 0 0 1 1433.91 1124.19 z"/>
<path transform="translate(0,0)" fill="rgb(3,3,2)" d="M 1640.39 1190.99 C 1642.57 1191.09 1642.6 1190.85 1644.53 1192.17 C 1645.89 1195.22 1646.14 1198.11 1646.33 1201.41 C 1647.17 1216.55 1646.46 1231.95 1646.71 1247.12 A 6258.99 6258.99 0 0 1 1647.03 1405.78 L 1647.02 1472.47 C 1647.01 1486.83 1648.53 1503.21 1645.19 1517.18 C 1643.09 1519.32 1640.5 1520.21 1637.72 1521.23 C 1627.34 1525.02 1616.54 1527.83 1606.05 1531.33 L 1532.04 1556.64 A 7195.69 7195.69 0 0 0 1387.9 1608.93 C 1366.74 1616.74 1345.06 1623.61 1324.25 1632.25 C 1323.96 1632.32 1323.67 1632.43 1323.38 1632.44 C 1322.05 1632.48 1320.99 1632.41 1320.11 1631.36 C 1318.78 1629.77 1318.43 1628.05 1318.33 1626.04 C 1317.42 1608.99 1318.16 1591.52 1318.16 1574.42 L 1318.08 1475.4 L 1317.98 1360.41 C 1318.03 1335.96 1317.62 1311.37 1319.09 1286.96 C 1364.27 1274.78 1409.1 1260.32 1454.01 1247.15 C 1516.14 1228.92 1578.94 1211.3 1640.39 1190.99 z"/>
<path transform="translate(0,0)" fill="rgb(181,165,140)" d="M 1635.45 1202.11 L 1637.25 1202.98 C 1639.8 1218.5 1638.17 1253.58 1638.27 1271.09 C 1599.43 1280.12 1561.34 1293.94 1523.36 1305.98 A 19579 19579 0 0 0 1329.27 1368.55 L 1328.17 1368.78 L 1326.91 1367.58 C 1326.6 1342.8 1326.79 1317.98 1326.75 1293.19 A 15403.5 15403.5 0 0 1 1528.62 1233.89 C 1564.11 1223.36 1599.53 1210.97 1635.45 1202.11 z"/>
<path transform="translate(0,0)" fill="rgb(181,165,140)" d="M 1635.59 1280.06 L 1637.18 1280.22 L 1637.85 1282.38 L 1639.24 1282.6 C 1636.34 1287.9 1638.02 1342.62 1637.99 1352.99 C 1620.07 1360.6 1600.48 1365.93 1581.97 1372.07 A 3185 3185 0 0 0 1500.25 1400.29 C 1487.53 1404.75 1469.56 1408.56 1458.98 1416.68 L 1459.01 1417.9 C 1468.95 1421.5 1614.28 1369.6 1637.82 1362.54 L 1637.53 1436.06 C 1609.24 1447.01 1580.27 1456.29 1551.62 1466.27 A 12000.7 12000.7 0 0 0 1413.32 1515.35 C 1392.2 1522.94 1351.27 1535.16 1334.08 1545.67 C 1331.57 1547.2 1329.56 1548.58 1328.87 1551.52 C 1330.89 1552.25 1332.41 1551.83 1334.41 1551.25 C 1355.8 1544.99 1377.29 1536.33 1398.37 1528.84 L 1513.9 1488.06 C 1555.04 1473.89 1596.09 1458.56 1637.62 1445.62 C 1637.24 1467.42 1637.67 1489.29 1637.74 1511.1 C 1613.76 1520.14 1589.14 1527.83 1564.91 1536.22 L 1448.67 1577.31 C 1407.96 1591.72 1368.01 1608.45 1326.94 1621.85 A 20601.7 20601.7 0 0 1 1327.01 1378.74 C 1338.91 1373.8 1351.56 1370.08 1363.78 1365.96 A 5254.12 5254.12 0 0 1 1441.79 1340.46 C 1506.14 1319.78 1570.62 1298.72 1635.59 1280.06 z"/>
<path transform="translate(0,0)" fill="rgb(3,3,2)" d="M 1372.45 1398.13 C 1382.31 1398.09 1391.25 1399.76 1400 1404.52 C 1409.48 1409.68 1417.07 1417.54 1420.08 1428.09 C 1422.61 1436.98 1422.37 1447.42 1417.66 1455.57 C 1412.3 1464.83 1402.89 1469.8 1392.89 1472.41 C 1385.36 1471.82 1376.97 1469.81 1369.63 1468 C 1360.13 1465.66 1352.05 1462.14 1347.03 1453.21 C 1342.71 1445.55 1342.78 1436.38 1345.4 1428.16 C 1349.89 1414.08 1359.83 1404.96 1372.45 1398.13 z"/>
<path transform="translate(0,0)" fill="rgb(181,165,140)" d="M 1374.25 1408.15 C 1381.28 1407.22 1387 1409.05 1393.74 1410.88 C 1384.95 1415.28 1377.7 1420.12 1372.7 1428.95 C 1367.55 1438.05 1367.38 1446.96 1369.88 1456.79 L 1370.45 1458.15 C 1368.78 1459.07 1369.6 1458.98 1367.61 1458.46 C 1363.57 1457.4 1357.36 1454.16 1355.45 1450.25 C 1352.31 1443.83 1352.35 1435.98 1354.66 1429.32 C 1358.23 1419.03 1364.89 1412.97 1374.25 1408.15 z"/>
<path transform="translate(0,0)" fill="rgb(219,205,178)" d="M 1397.45 1419 C 1399.61 1419.43 1402.03 1419.8 1404.01 1420.77 C 1407.93 1422.69 1410.54 1427.29 1411.63 1431.34 C 1413.39 1437.89 1411.8 1445.71 1408.45 1451.48 C 1404.57 1458.17 1399.62 1460.98 1392.32 1462.9 C 1390.87 1462.64 1389.41 1462.4 1387.99 1461.98 C 1383.51 1460.64 1380.22 1457.98 1378.23 1453.72 C 1375.71 1448.3 1376.77 1441.8 1379.09 1436.51 C 1382.85 1427.9 1388.86 1422.48 1397.45 1419 z"/>
<path transform="translate(0,0)" fill="rgb(3,3,2)" d="M 1269.4 1299.95 C 1270.73 1300.14 1272.66 1299.94 1273.55 1301.06 C 1275.29 1303.26 1275.24 1306.87 1275.35 1309.55 C 1275.74 1319.3 1275.06 1329.07 1275.09 1338.83 A 7437.19 7437.19 0 0 1 1275.15 1421.3 L 1274.54 1647.21 C 1244.93 1658.36 1213.78 1666.78 1183.79 1677.1 L 878.446 1779.95 C 876.112 1779.58 876.077 1779.44 874.422 1777.73 C 871.917 1768.21 873.409 1754.82 873.345 1744.87 L 873.04 1681.1 L 873.118 1521.57 C 873.142 1491.93 872.193 1461.91 873.371 1432.3 C 873.547 1427.88 873.883 1423.59 875.45 1419.41 C 887.025 1411.76 968.804 1390.2 988.034 1384.53 L 1178.11 1328.04 C 1208.56 1318.82 1239.2 1309.97 1269.4 1299.95 z"/>
<path transform="translate(0,0)" fill="rgb(181,165,140)" d="M 1184.44 1451.09 C 1193.48 1450.24 1199.75 1451.89 1208.2 1454.7 C 1201.37 1456.45 1195.8 1458.35 1189.96 1462.51 C 1181.3 1468.69 1174.79 1477.73 1173.44 1488.45 C 1171.87 1500.95 1177.51 1512.74 1185.16 1522.21 L 1186.46 1523.33 L 1185.62 1523.99 C 1182.2 1523.76 1179.03 1523.25 1175.78 1522.11 C 1167.64 1519.23 1161.25 1511.58 1157.99 1503.8 C 1153.85 1493.95 1154.47 1482.96 1158.9 1473.32 C 1164.2 1461.81 1172.89 1455.31 1184.44 1451.09 z"/>
<path transform="translate(0,0)" fill="rgb(219,205,178)" d="M 1204.19 1464.21 C 1207.82 1463.86 1211.84 1463.3 1215.36 1464.47 C 1220.54 1466.2 1224.66 1469.68 1226.97 1474.64 C 1230.6 1482.46 1229.75 1492.45 1226.74 1500.32 C 1222.73 1510.82 1216.46 1516.37 1206.51 1520.72 C 1203.52 1520.91 1200.8 1520.88 1197.95 1519.84 C 1192.07 1517.71 1187.68 1514 1185.1 1508.27 C 1181.68 1500.66 1181.43 1490.82 1184.44 1483.04 C 1188.21 1473.28 1194.98 1468.23 1204.19 1464.21 z"/>
<path transform="translate(0,0)" fill="rgb(181,165,140)" d="M 1264.94 1310.09 L 1265.9 1310.69 C 1268.55 1316.08 1266.66 1608.05 1266.32 1640.28 A 2563.8 2563.8 0 0 1 1216.73 1657.18 L 1216.77 1641.25 L 1216.8 1527.13 C 1222.2 1523.04 1226.77 1518.7 1230.5 1512.99 C 1237.41 1502.4 1240.37 1489.23 1237.4 1476.81 C 1234.54 1464.83 1226.93 1457.22 1216.83 1450.95 L 1216.74 1324.9 L 1264.94 1310.09 z"/>
<path transform="translate(0,0)" fill="rgb(219,205,178)" d="M 1206.93 1328.15 L 1207.73 1328.79 C 1209.81 1340.61 1208.34 1354.48 1208.34 1366.58 L 1208.24 1446.92 C 1200.04 1443.94 1191.97 1441.52 1183.13 1442.69 C 1171.56 1444.23 1161.37 1451.32 1154.63 1460.67 A 48.3122 48.3122 0 0 0 1145.96 1497.3 C 1147.94 1508.38 1153.94 1519.01 1163.49 1525.25 C 1177.04 1534.11 1193.72 1532.73 1208.75 1529.39 L 1208.43 1660.1 L 1107.18 1693.97 C 1106.52 1655.84 1107.09 1617.6 1107.04 1579.45 C 1107.02 1566.98 1108.58 1547.52 1106.85 1535.87 C 1106.44 1533.1 1105.47 1530.87 1103.05 1529.25 C 1101.63 1528.29 1102 1528.61 1100.11 1528.89 C 1096.01 1534.43 1098.19 1676.28 1098.26 1697.26 C 1069.12 1705.7 1040.13 1716.39 1011.31 1726 L 1011.75 1510.5 L 1011.63 1466.93 C 1011.63 1461.87 1012.51 1455.88 1011.71 1450.94 C 1011.3 1448.41 1010.64 1447.69 1009.01 1445.84 C 1006.36 1445.5 1006.13 1445.42 1003.78 1446.65 C 1000.88 1453.28 1002.93 1699.66 1002.99 1728.92 A 6169.06 6169.06 0 0 1 882.101 1769.47 L 881.631 1425.51 C 911.32 1413.4 946.899 1405.67 977.938 1396.31 L 1206.93 1328.15 z"/>
<path transform="translate(0,0)" fill="rgb(3,3,2)" d="M 906.161 1472.72 L 906.973 1473.33 C 910.225 1479.78 909.67 1490.8 909.828 1497.92 C 910.716 1538 910.199 1578.23 910.204 1618.33 C 910.206 1639.72 912.047 1664.08 909.571 1685.19 C 909.248 1687.94 908.475 1689.24 906.583 1691.22 C 906.346 1691 906.094 1690.8 905.872 1690.56 C 903.55 1688.11 902.964 1686.88 902.569 1683.58 C 901.478 1674.46 902.041 1664.7 902.011 1655.5 L 901.893 1605.71 C 901.822 1564.35 900.197 1522.2 902.066 1480.9 C 902.26 1476.63 902.938 1475.62 906.161 1472.72 z"/>
</svg>