<svg width="512" height="512" viewBox="0 0 512 512" fill="none" xmlns="http://www.w3.org/2000/svg" xmlns:xlink="http://www.w3.org/1999/xlink" class=""><rect id="r9" width="512" height="512" x="0" y="0" rx="128" fill="url(#ra)" stroke="#FFFFFF" stroke-width="0" stroke-opacity="100%" paint-order="stroke"></rect><clipPath id="clip"><use xlink:href="#r9"></use></clipPath><defs><radialGradient id="ra" cx="50%" cy="50%" r="100%" fx="50%" fy="0%" gradientUnits="objectBoundingBox"><stop stop-color="#FC466B"></stop><stop offset="1" stop-color="#3F5EFB"></stop></radialGradient><radialGradient id="rb" cx="0" cy="0" r="1" gradientUnits="userSpaceOnUse" gradientTransform="translate(256) rotate(90) scale(512)"><stop stop-color="white"></stop><stop offset="1" stop-color="white" stop-opacity="0"></stop></radialGradient></defs><svg xmlns="http://www.w3.org/2000/svg" fill="none" viewBox="0 0 16 16" width="352" height="352" x="80" y="80" style="color: rgb(255, 255, 255);" alignment-baseline="middle"><path stroke="currentColor" stroke-linecap="round" stroke-linejoin="round" stroke-width="1.5" d="M4.878 8.75 2.28 11.425a2 2 0 0 0-.53 1.357v1.468h12.5v-1.468a2 2 0 0 0-.53-1.357L11.122 8.75m-6.372 1c0-2.463 3.25-8 3.25-8s3.25 5.537 3.25 8v4.5h-6.5v-4.5Z"></path><path stroke="currentColor" stroke-linecap="round" stroke-linejoin="round" d="M8.5 8a.5.5 0 1 1-1 0 .5.5 0 0 1 1 0Z"></path></svg></svg>